NotoSerifMyanmar-Light.ufo
<glyph name="question" format="2">
  <advance width="663"/>
  <unicode hex="003F"/>
  <guideline x="182" y="321" angle="0"/>
  <outline>
    <contour>
      <point x="326" y="321" type="line"/>
      <point x="327" y="425"/>
      <point x="592" y="492"/>
      <point x="592" y="730" type="curve" smooth="yes"/>
      <point x="592" y="854"/>
      <point x="509" y="950"/>
      <point x="349" y="950" type="curve" smooth="yes"/>
      <point x="182" y="950"/>
      <point x="87" y="860"/>
      <point x="87" y="700" type="curve" smooth="yes"/>
      <point x="87" y="697"/>
      <point x="87" y="692"/>
      <point x="88" y="687" type="curve"/>
      <point x="112" y="687" type="line"/>
      <point x="112" y="700" type="line" smooth="yes"/>
      <point x="112" y="850"/>
      <point x="198" y="915"/>
      <point x="349" y="915" type="curve" smooth="yes"/>
      <point x="511" y="915"/>
      <point x="565" y="825"/>
      <point x="565" y="727" type="curve" smooth="yes"/>
      <point x="565" y="500"/>
      <point x="304" y="445"/>
      <point x="304" y="321" type="curve"/>
    </contour>
    <contour>
      <point x="326" y="-10" type="curve" smooth="yes"/>
      <point x="400" y="-10"/>
      <point x="438" y="37"/>
      <point x="438" y="99" type="curve" smooth="yes"/>
      <point x="438" y="161"/>
      <point x="400" y="208"/>
      <point x="326" y="208" type="curve" smooth="yes"/>
      <point x="252" y="208"/>
      <point x="214" y="161"/>
      <point x="214" y="99" type="curve" smooth="yes"/>
      <point x="214" y="37"/>
      <point x="252" y="-10"/>
    </contour>
    <contour>
      <point x="326" y="16" type="curve" smooth="yes"/>
      <point x="263" y="16"/>
      <point x="234" y="52"/>
      <point x="234" y="99" type="curve" smooth="yes"/>
      <point x="234" y="146"/>
      <point x="263" y="182"/>
      <point x="326" y="182" type="curve" smooth="yes"/>
      <point x="389" y="182"/>
      <point x="418" y="146"/>
      <point x="418" y="99" type="curve" smooth="yes"/>
      <point x="418" y="52"/>
      <point x="389" y="16"/>
    </contour>
  </outline>
</glyph>
<glyph name="gha" format="2">
  <advance width="1027"/>
  <unicode hex="1003"/>
  <outline>
    <contour>
      <point x="296" y="-10" type="curve" smooth="yes"/>
      <point x="306" y="-10" type="line" smooth="yes"/>
      <point x="394" y="-10"/>
      <point x="460" y="24"/>
      <point x="501" y="76" type="curve" smooth="yes"/>
      <point x="537" y="121"/>
      <point x="554" y="179"/>
      <point x="554" y="260" type="curve" smooth="yes"/>
      <point x="554" y="342"/>
      <point x="536" y="399"/>
      <point x="500" y="445" type="curve" smooth="yes"/>
      <point x="466" y="489"/>
      <point x="417" y="521"/>
      <point x="352" y="530" type="curve"/>
      <point x="352" y="501" type="line"/>
      <point x="472" y="483"/>
      <point x="534" y="391"/>
      <point x="534" y="268" type="curve" smooth="yes"/>
      <point x="534" y="252" type="line" smooth="yes"/>
      <point x="534" y="108"/>
      <point x="453" y="18"/>
      <point x="299" y="18" type="curve" smooth="yes"/>
      <point x="173" y="18"/>
      <point x="86" y="84"/>
      <point x="86" y="186" type="curve" smooth="yes"/>
      <point x="86" y="326"/>
      <point x="243" y="329"/>
      <point x="243" y="444" type="curve" smooth="yes"/>
      <point x="243" y="508"/>
      <point x="195" y="530"/>
      <point x="154" y="530" type="curve" smooth="yes"/>
      <point x="105" y="530"/>
      <point x="58" y="498"/>
      <point x="61" y="430" type="curve"/>
      <point x="81" y="430" type="line"/>
      <point x="83" y="481"/>
      <point x="112" y="504"/>
      <point x="153" y="504" type="curve" smooth="yes"/>
      <point x="186" y="504"/>
      <point x="222" y="490"/>
      <point x="222" y="442" type="curve" smooth="yes"/>
      <point x="222" y="344"/>
      <point x="66" y="340"/>
      <point x="66" y="186" type="curve" smooth="yes"/>
      <point x="66" y="69"/>
      <point x="156" y="-10"/>
    </contour>
    <contour>
      <point x="490" y="81" type="line"/>
      <point x="533" y="17"/>
      <point x="612" y="-10"/>
      <point x="688" y="-10" type="curve" smooth="yes"/>
      <point x="708" y="-10" type="line" smooth="yes"/>
      <point x="796" y="-10"/>
      <point x="862" y="24"/>
      <point x="903" y="76" type="curve" smooth="yes"/>
      <point x="939" y="121"/>
      <point x="956" y="179"/>
      <point x="956" y="260" type="curve" smooth="yes"/>
      <point x="956" y="341"/>
      <point x="939" y="399"/>
      <point x="903" y="444" type="curve" smooth="yes"/>
      <point x="862" y="496"/>
      <point x="796" y="530"/>
      <point x="701" y="530" type="curve" smooth="yes"/>
      <point x="681" y="530"/>
      <point x="662" y="529"/>
      <point x="642" y="526" type="curve"/>
      <point x="642" y="502" type="line"/>
      <point x="697" y="502" type="line" smooth="yes"/>
      <point x="854" y="502"/>
      <point x="936" y="412"/>
      <point x="936" y="268" type="curve" smooth="yes"/>
      <point x="936" y="252" type="line" smooth="yes"/>
      <point x="936" y="109"/>
      <point x="854" y="18"/>
      <point x="698" y="18" type="curve" smooth="yes"/>
      <point x="609" y="18"/>
      <point x="544" y="48"/>
      <point x="505" y="100" type="curve"/>
    </contour>
  </outline>
</glyph>
<glyph name="nga" format="2">
  <advance width="658"/>
  <unicode hex="1004"/>
  <outline>
    <contour>
      <point x="556" y="166" type="line"/>
      <point x="532" y="73"/>
      <point x="451.038" y="18"/>
      <point x="329" y="18" type="curve" smooth="yes"/>
      <point x="173" y="18"/>
      <point x="91" y="108"/>
      <point x="91" y="252" type="curve" smooth="yes"/>
      <point x="91" y="268" type="line" smooth="yes"/>
      <point x="91" y="411"/>
      <point x="173" y="502"/>
      <point x="329" y="502" type="curve" smooth="yes"/>
      <point x="450.862" y="502"/>
      <point x="532" y="446"/>
      <point x="556" y="354" type="curve"/>
      <point x="578" y="354" type="line"/>
      <point x="553" y="465"/>
      <point x="462" y="530"/>
      <point x="339" y="530" type="curve" smooth="yes"/>
      <point x="319" y="530" type="line" smooth="yes"/>
      <point x="233" y="530"/>
      <point x="166" y="500"/>
      <point x="124" y="444" type="curve" smooth="yes"/>
      <point x="89" y="399"/>
      <point x="71" y="336"/>
      <point x="71" y="260" type="curve" smooth="yes"/>
      <point x="71" y="184"/>
      <point x="89" y="121"/>
      <point x="124" y="76" type="curve" smooth="yes"/>
      <point x="166" y="21"/>
      <point x="232" y="-10"/>
      <point x="319" y="-10" type="curve" smooth="yes"/>
      <point x="339" y="-10" type="line" smooth="yes"/>
      <point x="459" y="-10"/>
      <point x="552" y="52"/>
      <point x="578" y="166" type="curve"/>
    </contour>
  </outline>
</glyph>
<glyph name="ca" format="2">
  <advance width="658"/>
  <unicode hex="1005"/>
  <note>
ca
</note>
  <outline>
    <contour>
      <point x="215" y="151" type="curve" smooth="yes"/>
      <point x="310" y="151"/>
      <point x="358" y="178"/>
      <point x="358" y="260" type="curve" smooth="yes"/>
      <point x="358" y="342"/>
      <point x="310" y="369"/>
      <point x="215" y="369" type="curve" smooth="yes"/>
      <point x="129" y="369"/>
      <point x="72" y="342"/>
      <point x="72" y="259" type="curve" smooth="yes"/>
      <point x="72" y="177"/>
      <point x="129" y="151"/>
    </contour>
    <contour>
      <point x="213" y="173" type="curve" smooth="yes"/>
      <point x="115" y="173"/>
      <point x="92" y="207"/>
      <point x="92" y="260" type="curve" smooth="yes"/>
      <point x="92" y="313"/>
      <point x="115" y="347"/>
      <point x="213" y="347" type="curve" smooth="yes"/>
      <point x="311" y="347"/>
      <point x="334" y="313"/>
      <point x="334" y="260" type="curve" smooth="yes"/>
      <point x="334" y="207"/>
      <point x="311" y="173"/>
    </contour>
    <contour>
      <point x="319" y="530" type="line" smooth="yes"/>
      <point x="231" y="530"/>
      <point x="165" y="496"/>
      <point x="128" y="449" type="curve" smooth="yes"/>
      <point x="87" y="399"/>
      <point x="71" y="341"/>
      <point x="71" y="260" type="curve" smooth="yes"/>
      <point x="71" y="179"/>
      <point x="87" y="121"/>
      <point x="128" y="71" type="curve" smooth="yes"/>
      <point x="165" y="24"/>
      <point x="231" y="-10"/>
      <point x="319" y="-10" type="curve" smooth="yes"/>
      <point x="339" y="-10" type="line" smooth="yes"/>
      <point x="427" y="-10"/>
      <point x="493" y="24"/>
      <point x="530" y="71" type="curve" smooth="yes"/>
      <point x="570" y="121"/>
      <point x="587" y="179"/>
      <point x="587" y="260" type="curve" smooth="yes"/>
      <point x="587" y="341"/>
      <point x="570" y="399"/>
      <point x="530" y="449" type="curve" smooth="yes"/>
      <point x="493" y="496"/>
      <point x="427" y="530"/>
      <point x="339" y="530" type="curve" smooth="yes"/>
    </contour>
    <contour>
      <point x="329" y="18" type="curve" smooth="yes"/>
      <point x="173" y="18"/>
      <point x="91" y="108"/>
      <point x="91" y="252" type="curve" smooth="yes"/>
      <point x="91" y="268" type="line" smooth="yes"/>
      <point x="91" y="411"/>
      <point x="173" y="502"/>
      <point x="329" y="502" type="curve" smooth="yes"/>
      <point x="485" y="502"/>
      <point x="567" y="411"/>
      <point x="567" y="268" type="curve" smooth="yes"/>
      <point x="567" y="252" type="line" smooth="yes"/>
      <point x="567" y="108"/>
      <point x="485" y="18"/>
    </contour>
  </outline>
</glyph>
<glyph name="ja" format="2">
  <advance width="701"/>
  <unicode hex="1007"/>
  <note>
ja
</note>
  <outline>
    <contour>
      <point x="333" y="502" type="curve"/>
      <point x="422" y="521" type="line"/>
      <point x="289" y="521"/>
      <point x="268" y="464"/>
      <point x="268" y="418" type="curve" smooth="yes"/>
      <point x="268" y="378"/>
      <point x="289" y="325"/>
      <point x="422" y="325" type="curve" smooth="yes"/>
      <point x="555" y="325"/>
      <point x="577" y="378"/>
      <point x="577" y="418" type="curve" smooth="yes"/>
      <point x="577" y="464"/>
      <point x="551" y="530"/>
      <point x="356" y="530" type="curve" smooth="yes"/>
      <point x="339" y="530" type="line" smooth="yes"/>
      <point x="240" y="530"/>
      <point x="168" y="499"/>
      <point x="124" y="442" type="curve" smooth="yes"/>
      <point x="89" y="396"/>
      <point x="71" y="335"/>
      <point x="71" y="260" type="curve" smooth="yes"/>
      <point x="71" y="183"/>
      <point x="90" y="121"/>
      <point x="124" y="75" type="curve" smooth="yes"/>
      <point x="167" y="20"/>
      <point x="233" y="-10"/>
      <point x="319" y="-10" type="curve" smooth="yes"/>
      <point x="339" y="-10" type="line" smooth="yes"/>
      <point x="462" y="-10"/>
      <point x="553" y="55"/>
      <point x="578" y="166" type="curve"/>
      <point x="556" y="166" type="line"/>
      <point x="532" y="74"/>
      <point x="451" y="18"/>
      <point x="329" y="18" type="curve" smooth="yes"/>
      <point x="173" y="18"/>
      <point x="91" y="109"/>
      <point x="91" y="252" type="curve" smooth="yes"/>
      <point x="91" y="268" type="line" smooth="yes"/>
      <point x="91" y="412"/>
      <point x="174" y="502"/>
    </contour>
    <contour>
      <point x="419" y="502" type="curve" smooth="yes"/>
      <point x="507" y="502"/>
      <point x="557" y="472"/>
      <point x="557" y="420" type="curve" smooth="yes"/>
      <point x="557" y="378"/>
      <point x="525" y="353"/>
      <point x="439" y="353" type="curve" smooth="yes"/>
      <point x="406" y="353" type="line" smooth="yes"/>
      <point x="320" y="353"/>
      <point x="288" y="379"/>
      <point x="288" y="425" type="curve" smooth="yes"/>
      <point x="288" y="461"/>
      <point x="316" y="502"/>
    </contour>
    <contour>
      <point x="678" y="332" type="line"/>
      <point x="624" y="331"/>
      <point x="574" y="346"/>
      <point x="574" y="413" type="curve"/>
      <point x="558" y="403" type="line"/>
      <point x="559" y="331"/>
      <point x="615" y="309"/>
      <point x="678" y="311" type="curve"/>
    </contour>
  </outline>
</glyph>
<glyph name="jha" format="2">
  <advance width="832"/>
  <unicode hex="1008"/>
  <outline>
    <contour>
      <point x="756" y="520" type="line"/>
      <point x="734" y="520" type="line"/>
      <point x="734" y="-350" type="line" smooth="yes"/>
      <point x="734" y="-458"/>
      <point x="695" y="-502"/>
      <point x="609" y="-502" type="curve" smooth="yes"/>
      <point x="523" y="-502"/>
      <point x="484" y="-458"/>
      <point x="484" y="-350" type="curve" smooth="yes"/>
      <point x="484" y="36" type="line"/>
      <point x="462" y="36" type="line"/>
      <point x="462" y="-356" type="line" smooth="yes"/>
      <point x="462" y="-468"/>
      <point x="508" y="-530"/>
      <point x="609" y="-530" type="curve" smooth="yes"/>
      <point x="710" y="-530"/>
      <point x="756" y="-468"/>
      <point x="756" y="-356" type="curve" smooth="yes"/>
    </contour>
    <component base="ca"/>
  </outline>
</glyph>
<glyph name="nnya" format="2">
  <advance width="1060"/>
  <unicode hex="100A"/>
  <outline>
    <contour>
      <point x="989" y="-309" type="line"/>
      <point x="967" y="-309" type="line"/>
      <point x="967" y="-310" type="line" smooth="yes"/>
      <point x="967" y="-403"/>
      <point x="946" y="-443"/>
      <point x="906" y="-464" type="curve" smooth="yes"/>
      <point x="841" y="-495"/>
      <point x="739" y="-502"/>
      <point x="535" y="-502" type="curve" smooth="yes"/>
      <point x="334" y="-502"/>
      <point x="228" y="-494"/>
      <point x="164" y="-464" type="curve" smooth="yes"/>
      <point x="123" y="-443"/>
      <point x="102" y="-403"/>
      <point x="102" y="-310" type="curve" smooth="yes"/>
      <point x="102" y="138" type="line"/>
      <point x="80" y="166" type="line"/>
      <point x="80" y="-311" type="line" smooth="yes"/>
      <point x="80" y="-419"/>
      <point x="105" y="-462"/>
      <point x="147" y="-487" type="curve" smooth="yes"/>
      <point x="213" y="-523"/>
      <point x="325" y="-530"/>
      <point x="535" y="-530" type="curve" smooth="yes"/>
      <point x="748" y="-530"/>
      <point x="857" y="-523"/>
      <point x="922" y="-487" type="curve" smooth="yes"/>
      <point x="964" y="-462"/>
      <point x="989" y="-419"/>
      <point x="989" y="-311" type="curve" smooth="yes"/>
    </contour>
    <component base="nga" xScale="-1" yScale="-1" xOffset="658" yOffset="520"/>
    <component base="_aa" yScale="-1" xOffset="658" yOffset="520"/>
  </outline>
</glyph>
<glyph name="tta" format="2">
  <advance width="658"/>
  <unicode hex="100B"/>
  <outline>
    <contour>
      <point x="71" y="8" type="line"/>
      <point x="71" y="-188" type="line" smooth="yes"/>
      <point x="71" y="-286"/>
      <point x="91" y="-325"/>
      <point x="125" y="-350" type="curve" smooth="yes"/>
      <point x="168" y="-382"/>
      <point x="239" y="-388"/>
      <point x="325" y="-388" type="curve" smooth="yes"/>
      <point x="411" y="-388"/>
      <point x="482" y="-382"/>
      <point x="525" y="-350" type="curve" smooth="yes"/>
      <point x="559" y="-325"/>
      <point x="578" y="-286"/>
      <point x="578" y="-188" type="curve"/>
      <point x="578" y="-186" type="line"/>
      <point x="556" y="-186" type="line"/>
      <point x="556" y="-269"/>
      <point x="540" y="-304"/>
      <point x="509" y="-326" type="curve" smooth="yes"/>
      <point x="468" y="-354"/>
      <point x="403" y="-361"/>
      <point x="325" y="-361" type="curve" smooth="yes"/>
      <point x="247" y="-361"/>
      <point x="182" y="-354"/>
      <point x="141" y="-326" type="curve" smooth="yes"/>
      <point x="110" y="-304"/>
      <point x="93" y="-269"/>
      <point x="93" y="-183" type="curve" smooth="yes"/>
      <point x="93" y="-79" type="line"/>
    </contour>
    <contour>
      <point x="578" y="166" type="line"/>
      <point x="556" y="151" type="line"/>
      <point x="556" y="12" type="line" smooth="yes"/>
      <point x="556" y="-74"/>
      <point x="539" y="-109"/>
      <point x="508" y="-131" type="curve" smooth="yes"/>
      <point x="467" y="-159"/>
      <point x="402" y="-166"/>
      <point x="324" y="-166" type="curve" smooth="yes"/>
      <point x="246" y="-166"/>
      <point x="181" y="-159"/>
      <point x="140" y="-131" type="curve" smooth="yes"/>
      <point x="109" y="-109"/>
      <point x="93" y="-74"/>
      <point x="93" y="9" type="curve"/>
      <point x="93" y="9" type="line"/>
      <point x="71" y="9" type="line"/>
      <point x="71" y="7" type="line"/>
      <point x="71" y="-91"/>
      <point x="90" y="-130"/>
      <point x="124" y="-155" type="curve" smooth="yes"/>
      <point x="167" y="-187"/>
      <point x="238" y="-193"/>
      <point x="324" y="-193" type="curve" smooth="yes"/>
      <point x="410" y="-193"/>
      <point x="481" y="-187"/>
      <point x="524" y="-155" type="curve" smooth="yes"/>
      <point x="558" y="-130"/>
      <point x="578" y="-91"/>
      <point x="578" y="7" type="curve" smooth="yes"/>
    </contour>
    <contour>
      <point x="680" y="-502" type="line"/>
      <point x="661" y="-502" type="line" smooth="yes"/>
      <point x="609" y="-502"/>
      <point x="578" y="-485"/>
      <point x="578" y="-383" type="curve" smooth="yes"/>
      <point x="578" y="-187" type="line"/>
      <point x="556" y="-290" type="line"/>
      <point x="556" y="-389" type="line" smooth="yes"/>
      <point x="556" y="-497"/>
      <point x="596" y="-530"/>
      <point x="656" y="-530" type="curve" smooth="yes"/>
      <point x="666" y="-530"/>
      <point x="676" y="-529"/>
      <point x="680" y="-528" type="curve"/>
    </contour>
    <component base="nga"/>
  </outline>
</glyph>
<glyph name="ttha" format="2">
  <advance width="658"/>
  <unicode hex="100C"/>
  <note>
ttha
</note>
  <outline>
    <contour>
      <point x="578" y="166" type="line"/>
      <point x="556" y="136" type="line"/>
      <point x="556" y="-325" type="line" smooth="yes"/>
      <point x="556" y="-411"/>
      <point x="539" y="-446"/>
      <point x="508" y="-468" type="curve" smooth="yes"/>
      <point x="467" y="-496"/>
      <point x="403" y="-503"/>
      <point x="325" y="-503" type="curve" smooth="yes"/>
      <point x="183" y="-503"/>
      <point x="93" y="-478"/>
      <point x="93" y="-383" type="curve" smooth="yes"/>
      <point x="93" y="-316"/>
      <point x="146" y="-268"/>
      <point x="234" y="-268" type="curve" smooth="yes"/>
      <point x="340" y="-268"/>
      <point x="385" y="-322"/>
      <point x="388" y="-365" type="curve"/>
      <point x="416" y="-365" type="line"/>
      <point x="412" y="-302"/>
      <point x="348" y="-247"/>
      <point x="234" y="-247" type="curve" smooth="yes"/>
      <point x="120" y="-247"/>
      <point x="71" y="-322"/>
      <point x="71" y="-385" type="curve" smooth="yes"/>
      <point x="71" y="-431"/>
      <point x="92" y="-471"/>
      <point x="125" y="-492" type="curve" smooth="yes"/>
      <point x="168" y="-524"/>
      <point x="239" y="-530"/>
      <point x="325" y="-530" type="curve" smooth="yes"/>
      <point x="411" y="-530"/>
      <point x="481" y="-524"/>
      <point x="524" y="-492" type="curve" smooth="yes"/>
      <point x="557" y="-467"/>
      <point x="578" y="-428"/>
      <point x="578" y="-330" type="curve" smooth="yes"/>
    </contour>
    <component base="nga"/>
  </outline>
</glyph>
<glyph name="dda" format="2">
  <advance width="658"/>
  <unicode hex="100D"/>
  <note>
dda
</note>
  <outline>
    <contour>
      <point x="80" y="166" type="line"/>
      <point x="80" y="-8" type="line" smooth="yes"/>
      <point x="80" y="-106"/>
      <point x="100" y="-145"/>
      <point x="134" y="-170" type="curve" smooth="yes"/>
      <point x="177" y="-202"/>
      <point x="248" y="-208"/>
      <point x="334" y="-208" type="curve" smooth="yes"/>
      <point x="420" y="-208"/>
      <point x="491" y="-202"/>
      <point x="534" y="-170" type="curve" smooth="yes"/>
      <point x="568" y="-145"/>
      <point x="587" y="-106"/>
      <point x="587" y="-8" type="curve"/>
      <point x="587" y="-6" type="line"/>
      <point x="565" y="-6" type="line"/>
      <point x="565" y="-89"/>
      <point x="549" y="-124"/>
      <point x="518" y="-146" type="curve" smooth="yes"/>
      <point x="477" y="-174"/>
      <point x="412" y="-181"/>
      <point x="334" y="-181" type="curve" smooth="yes"/>
      <point x="256" y="-181"/>
      <point x="191" y="-174"/>
      <point x="150" y="-146" type="curve" smooth="yes"/>
      <point x="119" y="-124"/>
      <point x="102" y="-89"/>
      <point x="102" y="-3" type="curve" smooth="yes"/>
      <point x="102" y="151" type="line"/>
    </contour>
    <contour>
      <point x="692" y="-502" type="line"/>
      <point x="672" y="-502" type="line" smooth="yes"/>
      <point x="622" y="-502"/>
      <point x="587" y="-485"/>
      <point x="587" y="-343" type="curve" smooth="yes"/>
      <point x="587" y="-6" type="line"/>
      <point x="565" y="-99" type="line"/>
      <point x="565" y="-349" type="line" smooth="yes"/>
      <point x="565" y="-496"/>
      <point x="610" y="-530"/>
      <point x="667" y="-530" type="curve" smooth="yes"/>
      <point x="672" y="-530"/>
      <point x="682" y="-530"/>
      <point x="692" y="-529" type="curve"/>
    </contour>
    <component base="nga" xScale="-1" xOffset="658"/>
  </outline>
</glyph>
<glyph name="ddha" format="2">
  <advance width="625"/>
  <unicode hex="100E"/>
  <note>
ddha
</note>
  <outline>
    <contour>
      <point x="296" y="-10" type="curve" smooth="yes"/>
      <point x="306" y="-10" type="line" smooth="yes"/>
      <point x="394" y="-10"/>
      <point x="460" y="24"/>
      <point x="501" y="76" type="curve" smooth="yes"/>
      <point x="537" y="121"/>
      <point x="554" y="179"/>
      <point x="554" y="260" type="curve" smooth="yes"/>
      <point x="554" y="342"/>
      <point x="536" y="399"/>
      <point x="500" y="445" type="curve" smooth="yes"/>
      <point x="466" y="489"/>
      <point x="417" y="521"/>
      <point x="352" y="530" type="curve"/>
      <point x="352" y="501" type="line"/>
      <point x="472" y="483"/>
      <point x="534" y="391"/>
      <point x="534" y="268" type="curve" smooth="yes"/>
      <point x="534" y="252" type="line" smooth="yes"/>
      <point x="534" y="108"/>
      <point x="453" y="18"/>
      <point x="299" y="18" type="curve" smooth="yes"/>
      <point x="173" y="18"/>
      <point x="86" y="84"/>
      <point x="86" y="186" type="curve" smooth="yes"/>
      <point x="86" y="326"/>
      <point x="243" y="329"/>
      <point x="243" y="444" type="curve" smooth="yes"/>
      <point x="243" y="508"/>
      <point x="195" y="530"/>
      <point x="154" y="530" type="curve" smooth="yes"/>
      <point x="105" y="530"/>
      <point x="58" y="498"/>
      <point x="61" y="430" type="curve"/>
      <point x="81" y="430" type="line"/>
      <point x="83" y="481"/>
      <point x="112" y="504"/>
      <point x="153" y="504" type="curve" smooth="yes"/>
      <point x="186" y="504"/>
      <point x="222" y="490"/>
      <point x="222" y="442" type="curve" smooth="yes"/>
      <point x="222" y="344"/>
      <point x="66" y="340"/>
      <point x="66" y="186" type="curve" smooth="yes"/>
      <point x="66" y="69"/>
      <point x="156" y="-10"/>
    </contour>
  </outline>
</glyph>
<glyph name="nna" format="2">
  <advance width="1252"/>
  <unicode hex="100F"/>
  <note>
nna
</note>
  <outline>
    <contour>
      <point x="867" y="18" type="line"/>
      <point x="867" y="-6" type="line"/>
      <point x="882" y="-9"/>
      <point x="903" y="-10"/>
      <point x="928" y="-10" type="curve" smooth="yes"/>
      <point x="1021" y="-10"/>
      <point x="1087" y="24"/>
      <point x="1128" y="76" type="curve" smooth="yes"/>
      <point x="1164" y="121"/>
      <point x="1181" y="179"/>
      <point x="1181" y="260" type="curve" smooth="yes"/>
      <point x="1181" y="341"/>
      <point x="1164" y="399"/>
      <point x="1128" y="444" type="curve" smooth="yes"/>
      <point x="1087" y="496"/>
      <point x="1022" y="530"/>
      <point x="943" y="530" type="curve" smooth="yes"/>
      <point x="931" y="530" type="line" smooth="yes"/>
      <point x="799" y="530"/>
      <point x="708" y="436"/>
      <point x="708" y="308" type="curve" smooth="yes"/>
      <point x="708" y="247"/>
      <point x="729" y="204"/>
      <point x="729" y="134" type="curve" smooth="yes"/>
      <point x="729" y="75"/>
      <point x="696" y="17"/>
      <point x="626" y="17" type="curve" smooth="yes"/>
      <point x="556" y="17"/>
      <point x="524" y="75"/>
      <point x="524" y="134" type="curve" smooth="yes"/>
      <point x="524" y="204"/>
      <point x="545" y="247"/>
      <point x="545" y="308" type="curve" smooth="yes"/>
      <point x="545" y="436"/>
      <point x="452" y="530"/>
      <point x="321" y="530" type="curve" smooth="yes"/>
      <point x="309" y="530" type="line" smooth="yes"/>
      <point x="230" y="530"/>
      <point x="165" y="496"/>
      <point x="124" y="444" type="curve" smooth="yes"/>
      <point x="88" y="399"/>
      <point x="71" y="341"/>
      <point x="71" y="260" type="curve" smooth="yes"/>
      <point x="71" y="179"/>
      <point x="88" y="121"/>
      <point x="124" y="76" type="curve" smooth="yes"/>
      <point x="165" y="24"/>
      <point x="231" y="-10"/>
      <point x="324" y="-10" type="curve" smooth="yes"/>
      <point x="349" y="-10"/>
      <point x="370" y="-9"/>
      <point x="385" y="-6" type="curve"/>
      <point x="385" y="18" type="line"/>
      <point x="329" y="18" type="line" smooth="yes"/>
      <point x="173" y="18"/>
      <point x="91" y="108"/>
      <point x="91" y="252" type="curve" smooth="yes"/>
      <point x="91" y="268" type="line" smooth="yes"/>
      <point x="91" y="411"/>
      <point x="172" y="502"/>
      <point x="319" y="502" type="curve" smooth="yes"/>
      <point x="427" y="502"/>
      <point x="525" y="439"/>
      <point x="525" y="308" type="curve" smooth="yes"/>
      <point x="525" y="239"/>
      <point x="504" y="202"/>
      <point x="504" y="132" type="curve" smooth="yes"/>
      <point x="504" y="56"/>
      <point x="536" y="-11"/>
      <point x="625" y="-11" type="curve" smooth="yes"/>
      <point x="627" y="-11" type="line" smooth="yes"/>
      <point x="716" y="-11"/>
      <point x="749" y="56"/>
      <point x="749" y="132" type="curve" smooth="yes"/>
      <point x="749" y="202"/>
      <point x="728" y="239"/>
      <point x="728" y="308" type="curve" smooth="yes"/>
      <point x="728" y="439"/>
      <point x="825" y="502"/>
      <point x="933" y="502" type="curve" smooth="yes"/>
      <point x="1080" y="502"/>
      <point x="1161" y="411"/>
      <point x="1161" y="268" type="curve" smooth="yes"/>
      <point x="1161" y="252" type="line" smooth="yes"/>
      <point x="1161" y="108"/>
      <point x="1079" y="18"/>
      <point x="923" y="18" type="curve" smooth="yes"/>
    </contour>
    <contour>
      <point x="626" y="530" type="curve" smooth="yes"/>
      <point x="553" y="530"/>
      <point x="501" y="483"/>
      <point x="489" y="436" type="curve"/>
      <point x="507" y="423" type="line"/>
      <point x="521" y="476"/>
      <point x="564" y="504"/>
      <point x="626" y="504" type="curve" smooth="yes"/>
      <point x="688" y="504"/>
      <point x="731" y="476"/>
      <point x="745" y="423" type="curve"/>
      <point x="763" y="436" type="line"/>
      <point x="751" y="483"/>
      <point x="699" y="530"/>
    </contour>
  </outline>
</glyph>
<glyph name="ta" format="2">
  <advance width="1060"/>
  <unicode hex="1010"/>
  <outline>
    <contour>
      <point x="319" y="530" type="line" smooth="yes"/>
      <point x="231" y="530"/>
      <point x="165" y="496"/>
      <point x="124" y="445" type="curve" smooth="yes"/>
      <point x="87" y="399"/>
      <point x="71" y="341"/>
      <point x="71" y="260" type="curve" smooth="yes"/>
      <point x="71" y="179"/>
      <point x="87" y="121"/>
      <point x="124" y="76" type="curve" smooth="yes"/>
      <point x="166" y="25"/>
      <point x="231" y="-10"/>
      <point x="319" y="-10" type="curve" smooth="yes"/>
      <point x="339" y="-10" type="line" smooth="yes"/>
      <point x="427" y="-10"/>
      <point x="493" y="24"/>
      <point x="534" y="76" type="curve" smooth="yes"/>
      <point x="570" y="121"/>
      <point x="587" y="179"/>
      <point x="587" y="260" type="curve" smooth="yes"/>
      <point x="587" y="341"/>
      <point x="570" y="399"/>
      <point x="534" y="444" type="curve" smooth="yes"/>
      <point x="493" y="496"/>
      <point x="427" y="530"/>
      <point x="339" y="530" type="curve" smooth="yes"/>
    </contour>
    <contour>
      <point x="329" y="18" type="curve" smooth="yes"/>
      <point x="173" y="18"/>
      <point x="91" y="108"/>
      <point x="91" y="252" type="curve" smooth="yes"/>
      <point x="91" y="268" type="line" smooth="yes"/>
      <point x="91" y="411"/>
      <point x="173" y="502"/>
      <point x="329" y="502" type="curve" smooth="yes"/>
      <point x="485" y="502"/>
      <point x="567" y="411"/>
      <point x="567" y="268" type="curve" smooth="yes"/>
      <point x="567" y="252" type="line" smooth="yes"/>
      <point x="567" y="108"/>
      <point x="485" y="18"/>
    </contour>
    <contour>
      <point x="523" y="439" type="curve"/>
      <point x="538" y="420" type="line"/>
      <point x="577" y="472"/>
      <point x="642" y="502"/>
      <point x="731" y="502" type="curve" smooth="yes"/>
      <point x="887" y="502"/>
      <point x="969" y="411"/>
      <point x="969" y="268" type="curve" smooth="yes"/>
      <point x="969" y="252" type="line" smooth="yes"/>
      <point x="969" y="108"/>
      <point x="887" y="18"/>
      <point x="730" y="18" type="curve" smooth="yes"/>
      <point x="675" y="18" type="line"/>
      <point x="675" y="-6" type="line"/>
      <point x="695" y="-9"/>
      <point x="714" y="-10"/>
      <point x="734" y="-10" type="curve" smooth="yes"/>
      <point x="829" y="-10"/>
      <point x="895" y="24"/>
      <point x="936" y="76" type="curve" smooth="yes"/>
      <point x="972" y="121"/>
      <point x="989" y="179"/>
      <point x="989" y="260" type="curve" smooth="yes"/>
      <point x="989" y="341"/>
      <point x="972" y="399"/>
      <point x="936" y="444" type="curve" smooth="yes"/>
      <point x="895" y="496"/>
      <point x="829" y="530"/>
      <point x="741" y="530" type="curve" smooth="yes"/>
      <point x="721" y="530" type="line" smooth="yes"/>
      <point x="645" y="530"/>
      <point x="566" y="503"/>
    </contour>
  </outline>
</glyph>
<glyph name="da" format="2">
  <advance width="548"/>
  <unicode hex="1012"/>
  <note>
da
</note>
  <outline>
    <contour>
      <point x="471" y="394" type="curve" smooth="yes"/>
      <point x="471" y="486"/>
      <point x="403" y="530"/>
      <point x="290" y="530" type="curve" smooth="yes"/>
      <point x="274" y="530" type="line" smooth="yes"/>
      <point x="90" y="530"/>
      <point x="73" y="427"/>
      <point x="84" y="366" type="curve"/>
      <point x="104" y="366" type="line"/>
      <point x="99" y="439"/>
      <point x="114" y="502"/>
      <point x="277" y="502" type="curve" smooth="yes"/>
      <point x="415" y="502"/>
      <point x="451" y="454"/>
      <point x="451" y="395" type="curve" smooth="yes"/>
      <point x="451" y="324"/>
      <point x="398" y="274"/>
      <point x="248" y="274" type="curve" smooth="yes"/>
      <point x="158" y="274" type="line"/>
      <point x="158" y="246" type="line"/>
      <point x="248" y="246" type="line" smooth="yes"/>
      <point x="398" y="246"/>
      <point x="451" y="196"/>
      <point x="451" y="125" type="curve" smooth="yes"/>
      <point x="451" y="66"/>
      <point x="415" y="18"/>
      <point x="277" y="18" type="curve" smooth="yes"/>
      <point x="114" y="18"/>
      <point x="99" y="81"/>
      <point x="104" y="154" type="curve"/>
      <point x="84" y="154" type="line"/>
      <point x="73" y="93"/>
      <point x="90" y="-10"/>
      <point x="274" y="-10" type="curve" smooth="yes"/>
      <point x="290" y="-10" type="line" smooth="yes"/>
      <point x="403" y="-10"/>
      <point x="471" y="34"/>
      <point x="471" y="126" type="curve" smooth="yes"/>
      <point x="471" y="255"/>
      <point x="320" y="265"/>
      <point x="248" y="265" type="curve"/>
      <point x="248" y="255" type="line"/>
      <point x="320" y="255"/>
      <point x="471" y="265"/>
    </contour>
  </outline>
</glyph>
<glyph name="na" format="2">
  <advance width="533"/>
  <unicode hex="1014"/>
  <note>
This glyph won't take marks below. Na with dotbelow is precomposed; any other below marks would use na.alt.
</note>
  <outline>
    <contour>
      <point x="295" y="-515" type="line"/>
      <point x="295" y="77" type="line" smooth="yes"/>
      <point x="295" y="156"/>
      <point x="240" y="199"/>
      <point x="153" y="199" type="curve" smooth="yes"/>
      <point x="66" y="199"/>
      <point x="14" y="160"/>
      <point x="14" y="94" type="curve" smooth="yes"/>
      <point x="14" y="-7"/>
      <point x="142" y="-10"/>
      <point x="258" y="-10" type="curve" smooth="yes"/>
      <point x="282" y="-10" type="line" smooth="yes"/>
      <point x="409" y="-10"/>
      <point x="501" y="28"/>
      <point x="501" y="139" type="curve" smooth="yes"/>
      <point x="501" y="256"/>
      <point x="406" y="283"/>
      <point x="307" y="297" type="curve" smooth="yes"/>
      <point x="286" y="300" type="line" smooth="yes"/>
      <point x="194" y="313"/>
      <point x="118" y="327"/>
      <point x="118" y="402" type="curve" smooth="yes"/>
      <point x="118" y="470"/>
      <point x="188" y="502"/>
      <point x="269" y="502" type="curve" smooth="yes"/>
      <point x="367" y="502"/>
      <point x="427" y="465"/>
      <point x="431" y="384" type="curve"/>
      <point x="451" y="384" type="line"/>
      <point x="448" y="481"/>
      <point x="376" y="530"/>
      <point x="274" y="530" type="curve" smooth="yes"/>
      <point x="180" y="530"/>
      <point x="96" y="490"/>
      <point x="96" y="399" type="curve" smooth="yes"/>
      <point x="96" y="313"/>
      <point x="165" y="292"/>
      <point x="263" y="278" type="curve" smooth="yes"/>
      <point x="284" y="275" type="line" smooth="yes"/>
      <point x="382" y="261"/>
      <point x="479" y="238"/>
      <point x="479" y="136" type="curve" smooth="yes"/>
      <point x="479" y="41"/>
      <point x="388" y="18"/>
      <point x="275" y="18" type="curve" smooth="yes"/>
      <point x="250" y="18" type="line" smooth="yes"/>
      <point x="160" y="18"/>
      <point x="36" y="18"/>
      <point x="36" y="97" type="curve" smooth="yes"/>
      <point x="36" y="146"/>
      <point x="83" y="171"/>
      <point x="147" y="171" type="curve" smooth="yes"/>
      <point x="229" y="171"/>
      <point x="273" y="139"/>
      <point x="273" y="70" type="curve" smooth="yes"/>
      <point x="273" y="-515" type="line"/>
    </contour>
  </outline>
</glyph>
<glyph name="pa" format="2">
  <advance width="658"/>
  <unicode hex="1015"/>
  <outline>
    <contour>
      <point x="385" y="530" type="curve"/>
      <point x="385" y="501" type="line"/>
      <point x="505" y="483"/>
      <point x="567" y="391"/>
      <point x="567" y="268" type="curve" smooth="yes"/>
      <point x="567" y="252" type="line" smooth="yes"/>
      <point x="567" y="108"/>
      <point x="485" y="18"/>
      <point x="329" y="18" type="curve" smooth="yes"/>
      <point x="173" y="18"/>
      <point x="91" y="108"/>
      <point x="91" y="252" type="curve" smooth="yes"/>
      <point x="91" y="268" type="line" smooth="yes"/>
      <point x="91" y="391"/>
      <point x="153" y="483"/>
      <point x="273" y="501" type="curve"/>
      <point x="273" y="530" type="line"/>
      <point x="208" y="521"/>
      <point x="159" y="489"/>
      <point x="129" y="450" type="curve" smooth="yes"/>
      <point x="88" y="399"/>
      <point x="71" y="342"/>
      <point x="71" y="260" type="curve" smooth="yes"/>
      <point x="71" y="179"/>
      <point x="87" y="121"/>
      <point x="128" y="71" type="curve" smooth="yes"/>
      <point x="165" y="24"/>
      <point x="231" y="-10"/>
      <point x="319" y="-10" type="curve" smooth="yes"/>
      <point x="339" y="-10" type="line" smooth="yes"/>
      <point x="427" y="-10"/>
      <point x="493" y="24"/>
      <point x="530" y="71" type="curve" smooth="yes"/>
      <point x="570" y="121"/>
      <point x="587" y="179"/>
      <point x="587" y="260" type="curve" smooth="yes"/>
      <point x="587" y="342"/>
      <point x="569" y="399"/>
      <point x="529" y="450" type="curve" smooth="yes"/>
      <point x="499" y="489"/>
      <point x="450" y="521"/>
    </contour>
  </outline>
</glyph>
<glyph name="pha" format="2">
  <advance width="658"/>
  <unicode hex="1016"/>
  <note>
pha
</note>
  <outline>
    <contour>
      <point x="587" y="260" type="curve" smooth="yes"/>
      <point x="587" y="388"/>
      <point x="522" y="529"/>
      <point x="434" y="529" type="curve" smooth="yes"/>
      <point x="374" y="529"/>
      <point x="356" y="463"/>
      <point x="356" y="378" type="curve" smooth="yes"/>
      <point x="356" y="227"/>
      <point x="428" y="127"/>
      <point x="538" y="85" type="curve"/>
      <point x="538" y="111" type="line"/>
      <point x="447" y="141"/>
      <point x="376" y="239"/>
      <point x="376" y="375" type="curve" smooth="yes"/>
      <point x="376" y="442"/>
      <point x="387" y="501"/>
      <point x="438" y="501" type="curve" smooth="yes"/>
      <point x="511" y="501"/>
      <point x="567" y="372"/>
      <point x="567" y="268" type="curve" smooth="yes"/>
      <point x="567" y="252" type="line" smooth="yes"/>
      <point x="567" y="108"/>
      <point x="485" y="18"/>
      <point x="329" y="18" type="curve" smooth="yes"/>
      <point x="173" y="18"/>
      <point x="91" y="108"/>
      <point x="91" y="252" type="curve" smooth="yes"/>
      <point x="91" y="268" type="line" smooth="yes"/>
      <point x="91" y="391"/>
      <point x="153" y="483"/>
      <point x="273" y="501" type="curve"/>
      <point x="273" y="530" type="line"/>
      <point x="208" y="521"/>
      <point x="159" y="489"/>
      <point x="125" y="445" type="curve" smooth="yes"/>
      <point x="89" y="398"/>
      <point x="71" y="342"/>
      <point x="71" y="260" type="curve" smooth="yes"/>
      <point x="71" y="179"/>
      <point x="87" y="121"/>
      <point x="124" y="76" type="curve" smooth="yes"/>
      <point x="166" y="25"/>
      <point x="231" y="-10"/>
      <point x="319" y="-10" type="curve" smooth="yes"/>
      <point x="339" y="-10" type="line" smooth="yes"/>
      <point x="427" y="-10"/>
      <point x="493" y="24"/>
      <point x="534" y="76" type="curve" smooth="yes"/>
      <point x="570" y="121"/>
      <point x="587" y="179"/>
    </contour>
  </outline>
</glyph>
<glyph name="ma" format="2">
  <advance width="658"/>
  <unicode hex="1019"/>
  <outline>
    <contour>
      <point x="483" y="36" type="line"/>
      <point x="483" y="99" type="line" smooth="yes"/>
      <point x="483" y="165"/>
      <point x="426" y="195"/>
      <point x="329" y="195" type="curve" smooth="yes"/>
      <point x="232" y="195"/>
      <point x="175" y="165"/>
      <point x="175" y="99" type="curve" smooth="yes"/>
      <point x="175" y="36" type="line"/>
      <point x="195" y="36" type="line"/>
      <point x="195" y="91" type="line" smooth="yes"/>
      <point x="195" y="150"/>
      <point x="240" y="167"/>
      <point x="314" y="167" type="curve" smooth="yes"/>
      <point x="344" y="167" type="line" smooth="yes"/>
      <point x="418" y="167"/>
      <point x="463" y="150"/>
      <point x="463" y="91" type="curve" smooth="yes"/>
      <point x="463" y="36" type="line"/>
    </contour>
    <component base="pa"/>
  </outline>
</glyph>
<glyph name="la" format="2">
  <advance width="1073"/>
  <unicode hex="101C"/>
  <note>
la
</note>
  <outline>
    <contour>
      <point x="688" y="526" type="curve"/>
      <point x="688" y="502" type="line"/>
      <point x="744" y="502" type="line" smooth="yes"/>
      <point x="900" y="502"/>
      <point x="982" y="412"/>
      <point x="982" y="268" type="curve" smooth="yes"/>
      <point x="982" y="252" type="line" smooth="yes"/>
      <point x="982" y="109"/>
      <point x="913" y="18"/>
      <point x="765" y="18" type="curve" smooth="yes"/>
      <point x="628" y="18"/>
      <point x="570" y="88"/>
      <point x="548" y="263" type="curve" smooth="yes"/>
      <point x="538" y="345"/>
      <point x="518" y="410"/>
      <point x="483" y="455" type="curve" smooth="yes"/>
      <point x="445" y="504"/>
      <point x="386" y="530"/>
      <point x="305" y="530" type="curve" smooth="yes"/>
      <point x="153" y="530"/>
      <point x="71" y="425"/>
      <point x="71" y="260" type="curve" smooth="yes"/>
      <point x="71" y="188"/>
      <point x="85" y="123"/>
      <point x="128" y="71" type="curve" smooth="yes"/>
      <point x="166" y="25"/>
      <point x="225" y="-10"/>
      <point x="329" y="-10" type="curve" smooth="yes"/>
      <point x="347" y="-10"/>
      <point x="370" y="-9"/>
      <point x="385" y="-6" type="curve"/>
      <point x="385" y="18" type="line"/>
      <point x="329" y="18" type="line" smooth="yes"/>
      <point x="173" y="18"/>
      <point x="91" y="108"/>
      <point x="91" y="252" type="curve" smooth="yes"/>
      <point x="91" y="268" type="line" smooth="yes"/>
      <point x="91" y="411"/>
      <point x="160" y="502"/>
      <point x="308" y="502" type="curve" smooth="yes"/>
      <point x="445" y="502"/>
      <point x="503" y="432"/>
      <point x="525" y="257" type="curve" smooth="yes"/>
      <point x="535" y="175"/>
      <point x="555" y="110"/>
      <point x="590" y="65" type="curve" smooth="yes"/>
      <point x="628" y="16"/>
      <point x="686" y="-10"/>
      <point x="768" y="-10" type="curve" smooth="yes"/>
      <point x="920" y="-10"/>
      <point x="1002" y="95"/>
      <point x="1002" y="260" type="curve" smooth="yes"/>
      <point x="1002" y="332"/>
      <point x="988" y="397"/>
      <point x="945" y="449" type="curve" smooth="yes"/>
      <point x="907" y="495"/>
      <point x="848" y="530"/>
      <point x="744" y="530" type="curve" smooth="yes"/>
      <point x="726" y="530"/>
      <point x="703" y="529"/>
    </contour>
  </outline>
</glyph>
<glyph name="wa" format="2">
  <advance width="658"/>
  <unicode hex="101D"/>
  <outline>
    <contour>
      <point x="319" y="530" type="line" smooth="yes"/>
      <point x="231" y="530"/>
      <point x="165" y="496"/>
      <point x="124" y="445" type="curve" smooth="yes"/>
      <point x="87" y="399"/>
      <point x="71" y="341"/>
      <point x="71" y="260" type="curve" smooth="yes"/>
      <point x="71" y="179"/>
      <point x="87" y="121"/>
      <point x="124" y="76" type="curve" smooth="yes"/>
      <point x="165" y="24"/>
      <point x="231" y="-10"/>
      <point x="319" y="-10" type="curve" smooth="yes"/>
      <point x="339" y="-10" type="line" smooth="yes"/>
      <point x="427" y="-10"/>
      <point x="493" y="24"/>
      <point x="534" y="76" type="curve" smooth="yes"/>
      <point x="570" y="121"/>
      <point x="587" y="179"/>
      <point x="587" y="260" type="curve" smooth="yes"/>
      <point x="587" y="341"/>
      <point x="570" y="399"/>
      <point x="534" y="444" type="curve" smooth="yes"/>
      <point x="493" y="496"/>
      <point x="427" y="530"/>
      <point x="339" y="530" type="curve" smooth="yes"/>
    </contour>
    <contour>
      <point x="329" y="18" type="curve" smooth="yes"/>
      <point x="173" y="18"/>
      <point x="91" y="108"/>
      <point x="91" y="252" type="curve" smooth="yes"/>
      <point x="91" y="268" type="line" smooth="yes"/>
      <point x="91" y="411"/>
      <point x="173" y="502"/>
      <point x="329" y="502" type="curve" smooth="yes"/>
      <point x="485" y="502"/>
      <point x="567" y="411"/>
      <point x="567" y="268" type="curve" smooth="yes"/>
      <point x="567" y="252" type="line" smooth="yes"/>
      <point x="567" y="108"/>
      <point x="485" y="18"/>
    </contour>
  </outline>
</glyph>
<glyph name="lla" format="2">
  <advance width="658"/>
  <unicode hex="1020"/>
  <note>
lla
</note>
  <outline>
    <contour>
      <point x="578" y="166" type="line"/>
      <point x="556" y="151" type="line"/>
      <point x="556" y="-3" type="line" smooth="yes"/>
      <point x="556" y="-89"/>
      <point x="539" y="-124"/>
      <point x="508" y="-146" type="curve" smooth="yes"/>
      <point x="467" y="-174"/>
      <point x="402" y="-181"/>
      <point x="324" y="-181" type="curve" smooth="yes"/>
      <point x="246" y="-181"/>
      <point x="181" y="-174"/>
      <point x="140" y="-146" type="curve" smooth="yes"/>
      <point x="109" y="-124"/>
      <point x="93" y="-89"/>
      <point x="93" y="-6" type="curve"/>
      <point x="71" y="-6" type="line"/>
      <point x="71" y="-8" type="line"/>
      <point x="71" y="-106"/>
      <point x="90" y="-145"/>
      <point x="124" y="-170" type="curve" smooth="yes"/>
      <point x="167" y="-202"/>
      <point x="238" y="-208"/>
      <point x="324" y="-208" type="curve" smooth="yes"/>
      <point x="410" y="-208"/>
      <point x="481" y="-202"/>
      <point x="524" y="-170" type="curve" smooth="yes"/>
      <point x="558" y="-145"/>
      <point x="578" y="-106"/>
      <point x="578" y="-8" type="curve" smooth="yes"/>
    </contour>
    <contour>
      <point x="578" y="-328" type="line"/>
      <point x="556" y="-328" type="line"/>
      <point x="556" y="-411"/>
      <point x="540" y="-446"/>
      <point x="509" y="-468" type="curve" smooth="yes"/>
      <point x="468" y="-496"/>
      <point x="403" y="-503"/>
      <point x="325" y="-503" type="curve" smooth="yes"/>
      <point x="247" y="-503"/>
      <point x="182" y="-496"/>
      <point x="141" y="-468" type="curve" smooth="yes"/>
      <point x="110" y="-446"/>
      <point x="93" y="-411"/>
      <point x="93" y="-325" type="curve" smooth="yes"/>
      <point x="93" y="-51" type="line"/>
      <point x="71" y="-7" type="line"/>
      <point x="71" y="-330" type="line" smooth="yes"/>
      <point x="71" y="-428"/>
      <point x="91" y="-467"/>
      <point x="125" y="-492" type="curve" smooth="yes"/>
      <point x="168" y="-524"/>
      <point x="239" y="-530"/>
      <point x="325" y="-530" type="curve" smooth="yes"/>
      <point x="411" y="-530"/>
      <point x="482" y="-524"/>
      <point x="525" y="-492" type="curve" smooth="yes"/>
      <point x="559" y="-467"/>
      <point x="578" y="-428"/>
      <point x="578" y="-330" type="curve"/>
    </contour>
    <component base="nga"/>
  </outline>
</glyph>
<glyph name="a_m" format="2">
  <advance width="971"/>
  <unicode hex="1021"/>
  <note>
a_m
</note>
  <outline>
    <contour>
      <point x="649" y="530" type="curve" smooth="yes"/>
      <point x="635" y="530" type="line" smooth="yes"/>
      <point x="551" y="530"/>
      <point x="489" y="501"/>
      <point x="450" y="459" type="curve" smooth="yes"/>
      <point x="446" y="455"/>
      <point x="443" y="452"/>
      <point x="440" y="448" type="curve"/>
      <point x="457" y="430" type="line"/>
      <point x="497" y="476"/>
      <point x="562" y="502"/>
      <point x="642" y="502" type="curve" smooth="yes"/>
      <point x="798" y="502"/>
      <point x="880" y="411"/>
      <point x="880" y="268" type="curve" smooth="yes"/>
      <point x="880" y="252" type="line" smooth="yes"/>
      <point x="880" y="111"/>
      <point x="802" y="18"/>
      <point x="672" y="18" type="curve" smooth="yes"/>
      <point x="666" y="18" type="line" smooth="yes"/>
      <point x="596" y="18"/>
      <point x="564" y="40"/>
      <point x="564" y="92" type="curve" smooth="yes"/>
      <point x="564" y="146"/>
      <point x="599" y="167"/>
      <point x="669" y="167" type="curve" smooth="yes"/>
      <point x="724" y="167" type="line" smooth="yes"/>
      <point x="803" y="167"/>
      <point x="840" y="146"/>
      <point x="840" y="88" type="curve" smooth="yes"/>
      <point x="840" y="84" type="line"/>
      <point x="858" y="97" type="line"/>
      <point x="858" y="102" type="line" smooth="yes"/>
      <point x="858" y="162"/>
      <point x="814" y="195"/>
      <point x="698" y="195" type="curve" smooth="yes"/>
      <point x="597" y="195"/>
      <point x="544" y="170"/>
      <point x="544" y="93" type="curve" smooth="yes"/>
      <point x="544" y="9"/>
      <point x="607" y="-10"/>
      <point x="668" y="-10" type="curve" smooth="yes"/>
      <point x="751" y="-10"/>
      <point x="808" y="25"/>
      <point x="845" y="70" type="curve" smooth="yes"/>
      <point x="884" y="119"/>
      <point x="900" y="179"/>
      <point x="900" y="260" type="curve" smooth="yes"/>
      <point x="900" y="341"/>
      <point x="884" y="399"/>
      <point x="847" y="445" type="curve" smooth="yes"/>
      <point x="806" y="496"/>
      <point x="740" y="530"/>
    </contour>
    <component base="da"/>
  </outline>
</glyph>
<glyph name="a_shn" format="2">
  <advance width="1027"/>
  <unicode hex="1022"/>
  <note>
a_shn
</note>
  <outline>
    <contour>
      <point x="296" y="530" type="line" smooth="yes"/>
      <point x="156" y="530"/>
      <point x="66" y="451"/>
      <point x="66" y="334" type="curve" smooth="yes"/>
      <point x="66" y="180"/>
      <point x="222" y="176"/>
      <point x="222" y="78" type="curve" smooth="yes"/>
      <point x="222" y="30"/>
      <point x="186" y="16"/>
      <point x="153" y="16" type="curve" smooth="yes"/>
      <point x="112" y="16"/>
      <point x="83" y="39"/>
      <point x="81" y="90" type="curve"/>
      <point x="61" y="90" type="line"/>
      <point x="58" y="22"/>
      <point x="105" y="-10"/>
      <point x="154" y="-10" type="curve" smooth="yes"/>
      <point x="195" y="-10"/>
      <point x="243" y="12"/>
      <point x="243" y="76" type="curve" smooth="yes"/>
      <point x="243" y="191"/>
      <point x="86" y="194"/>
      <point x="86" y="334" type="curve" smooth="yes"/>
      <point x="86" y="436"/>
      <point x="173" y="502"/>
      <point x="299" y="502" type="curve" smooth="yes"/>
      <point x="453" y="502"/>
      <point x="534" y="412"/>
      <point x="534" y="268" type="curve" smooth="yes"/>
      <point x="534" y="252" type="line" smooth="yes"/>
      <point x="534" y="129"/>
      <point x="472" y="37"/>
      <point x="352" y="19" type="curve"/>
      <point x="352" y="-10" type="line"/>
      <point x="417" y="-1"/>
      <point x="466" y="31"/>
      <point x="500" y="75" type="curve" smooth="yes"/>
      <point x="536" y="121"/>
      <point x="554" y="178"/>
      <point x="554" y="260" type="curve" smooth="yes"/>
      <point x="554" y="341"/>
      <point x="537" y="399"/>
      <point x="501" y="444" type="curve" smooth="yes"/>
      <point x="460" y="496"/>
      <point x="394" y="530"/>
      <point x="306" y="530" type="curve" smooth="yes"/>
    </contour>
    <contour>
      <point x="490" y="439" type="curve"/>
      <point x="505" y="420" type="line"/>
      <point x="544" y="472"/>
      <point x="609" y="502"/>
      <point x="698" y="502" type="curve" smooth="yes"/>
      <point x="854" y="502"/>
      <point x="936" y="411"/>
      <point x="936" y="268" type="curve" smooth="yes"/>
      <point x="936" y="252" type="line" smooth="yes"/>
      <point x="936" y="108"/>
      <point x="854" y="18"/>
      <point x="697" y="18" type="curve" smooth="yes"/>
      <point x="642" y="18" type="line"/>
      <point x="642" y="-6" type="line"/>
      <point x="662" y="-9"/>
      <point x="681" y="-10"/>
      <point x="701" y="-10" type="curve" smooth="yes"/>
      <point x="796" y="-10"/>
      <point x="862" y="24"/>
      <point x="903" y="76" type="curve" smooth="yes"/>
      <point x="939" y="121"/>
      <point x="956" y="179"/>
      <point x="956" y="260" type="curve" smooth="yes"/>
      <point x="956" y="341"/>
      <point x="939" y="399"/>
      <point x="903" y="444" type="curve" smooth="yes"/>
      <point x="862" y="496"/>
      <point x="796" y="530"/>
      <point x="708" y="530" type="curve" smooth="yes"/>
      <point x="688" y="530" type="line" smooth="yes"/>
      <point x="612" y="530"/>
      <point x="533" y="503"/>
    </contour>
  </outline>
</glyph>
<glyph name="i_m" format="2">
  <advance width="1060"/>
  <unicode hex="1023"/>
  <note>
Unlikely to ever have marks below.
</note>
  <outline>
    <contour>
      <point x="675" y="18" type="line"/>
      <point x="675" y="-6" type="line"/>
      <point x="695" y="-9"/>
      <point x="714" y="-10"/>
      <point x="734" y="-10" type="curve" smooth="yes"/>
      <point x="824" y="-10"/>
      <point x="893" y="20"/>
      <point x="936" y="76" type="curve" smooth="yes"/>
      <point x="971" y="121"/>
      <point x="989" y="183"/>
      <point x="989" y="260" type="curve" smooth="yes"/>
      <point x="989" y="337"/>
      <point x="971" y="401"/>
      <point x="936" y="447" type="curve" smooth="yes"/>
      <point x="896" y="500"/>
      <point x="833" y="530"/>
      <point x="751" y="530" type="curve" smooth="yes"/>
      <point x="735" y="530" type="line" smooth="yes"/>
      <point x="640" y="530"/>
      <point x="556" y="479"/>
      <point x="530" y="370" type="curve"/>
      <point x="532" y="370" type="line"/>
      <point x="506" y="479"/>
      <point x="420" y="530"/>
      <point x="325" y="530" type="curve" smooth="yes"/>
      <point x="309" y="530" type="line" smooth="yes"/>
      <point x="230" y="530"/>
      <point x="168" y="502"/>
      <point x="128" y="452" type="curve" smooth="yes"/>
      <point x="91" y="406"/>
      <point x="71" y="340"/>
      <point x="71" y="260" type="curve" smooth="yes"/>
      <point x="71" y="179"/>
      <point x="91" y="115"/>
      <point x="129" y="70" type="curve" smooth="yes"/>
      <point x="172" y="18"/>
      <point x="239" y="-10"/>
      <point x="326" y="-10" type="curve" smooth="yes"/>
      <point x="346" y="-10"/>
      <point x="365" y="-9"/>
      <point x="385" y="-6" type="curve"/>
      <point x="385" y="18" type="line"/>
      <point x="330" y="18" type="line" smooth="yes"/>
      <point x="173" y="18"/>
      <point x="91" y="108"/>
      <point x="91" y="252" type="curve" smooth="yes"/>
      <point x="91" y="268" type="line" smooth="yes"/>
      <point x="91" y="411"/>
      <point x="170" y="502"/>
      <point x="319" y="502" type="curve" smooth="yes"/>
      <point x="407" y="502"/>
      <point x="504" y="465"/>
      <point x="517" y="316" type="curve" smooth="yes"/>
      <point x="523" y="249" type="line"/>
      <point x="537" y="249" type="line"/>
      <point x="543" y="316" type="line" smooth="yes"/>
      <point x="556" y="465"/>
      <point x="653" y="502"/>
      <point x="741" y="502" type="curve" smooth="yes"/>
      <point x="890" y="502"/>
      <point x="969" y="411"/>
      <point x="969" y="268" type="curve" smooth="yes"/>
      <point x="969" y="252" type="line" smooth="yes"/>
      <point x="969" y="108"/>
      <point x="887" y="18"/>
      <point x="730" y="18" type="curve" smooth="yes"/>
    </contour>
    <contour>
      <point x="982" y="-419" type="line"/>
      <point x="954" y="-419" type="line"/>
      <point x="954" y="-444" type="line" smooth="yes"/>
      <point x="954" y="-499"/>
      <point x="916" y="-520"/>
      <point x="805" y="-520" type="curve" smooth="yes"/>
      <point x="718" y="-520"/>
      <point x="670" y="-515"/>
      <point x="670" y="-481" type="curve" smooth="yes"/>
      <point x="670" y="-473" type="line"/>
      <point x="800" y="-443"/>
      <point x="908" y="-382"/>
      <point x="908" y="-260" type="curve" smooth="yes"/>
      <point x="908" y="-159"/>
      <point x="841" y="-85"/>
      <point x="722" y="-85" type="curve" smooth="yes"/>
      <point x="709" y="-85" type="line" smooth="yes"/>
      <point x="625" y="-85"/>
      <point x="551" y="-127"/>
      <point x="530" y="-217" type="curve"/>
      <point x="532" y="-217" type="line"/>
      <point x="510" y="-127"/>
      <point x="439" y="-85"/>
      <point x="361" y="-85" type="curve" smooth="yes"/>
      <point x="348" y="-85" type="line" smooth="yes"/>
      <point x="281" y="-85"/>
      <point x="229" y="-109"/>
      <point x="196" y="-153" type="curve" smooth="yes"/>
      <point x="167" y="-191"/>
      <point x="152" y="-244"/>
      <point x="152" y="-308" type="curve" smooth="yes"/>
      <point x="152" y="-372"/>
      <point x="167" y="-423"/>
      <point x="196" y="-460" type="curve" smooth="yes"/>
      <point x="232" y="-506"/>
      <point x="288" y="-530"/>
      <point x="362" y="-530" type="curve" smooth="yes"/>
      <point x="378" y="-530"/>
      <point x="394" y="-529"/>
      <point x="411" y="-527" type="curve"/>
      <point x="411" y="-502" type="line"/>
      <point x="365" y="-502" type="line" smooth="yes"/>
      <point x="239" y="-502"/>
      <point x="172" y="-430"/>
      <point x="172" y="-314" type="curve" smooth="yes"/>
      <point x="172" y="-301" type="line" smooth="yes"/>
      <point x="172" y="-186"/>
      <point x="236" y="-113"/>
      <point x="356" y="-113" type="curve" smooth="yes"/>
      <point x="429" y="-113"/>
      <point x="508" y="-143"/>
      <point x="518" y="-261" type="curve" smooth="yes"/>
      <point x="523" y="-317" type="line"/>
      <point x="537" y="-317" type="line"/>
      <point x="542" y="-261" type="line" smooth="yes"/>
      <point x="552" y="-143"/>
      <point x="635" y="-113"/>
      <point x="714" y="-113" type="curve" smooth="yes"/>
      <point x="827" y="-113"/>
      <point x="887" y="-171"/>
      <point x="887" y="-259" type="curve" smooth="yes"/>
      <point x="887" y="-265" type="line" smooth="yes"/>
      <point x="887" y="-358"/>
      <point x="802" y="-426"/>
      <point x="643" y="-461" type="curve"/>
      <point x="643" y="-479" type="line" smooth="yes"/>
      <point x="643" y="-523"/>
      <point x="674" y="-540"/>
      <point x="800" y="-540" type="curve" smooth="yes"/>
      <point x="938" y="-540"/>
      <point x="982" y="-511"/>
      <point x="982" y="-451" type="curve" smooth="yes"/>
    </contour>
  </outline>
</glyph>
<glyph name="ii" format="2">
  <advance width="1195"/>
  <unicode hex="1024"/>
  <outline>
    <contour>
      <point x="975" y="260" type="line" smooth="yes"/>
      <point x="975" y="341"/>
      <point x="960" y="399"/>
      <point x="924" y="444" type="curve" smooth="yes"/>
      <point x="884" y="495"/>
      <point x="822" y="530"/>
      <point x="741" y="530" type="curve" smooth="yes"/>
      <point x="721" y="530" type="line" smooth="yes"/>
      <point x="645" y="530"/>
      <point x="566" y="503"/>
      <point x="523" y="439" type="curve"/>
      <point x="538" y="420" type="line"/>
      <point x="577" y="472"/>
      <point x="642" y="502"/>
      <point x="731" y="502" type="curve" smooth="yes"/>
      <point x="878" y="502"/>
      <point x="953" y="411"/>
      <point x="953" y="268" type="curve" smooth="yes"/>
      <point x="953" y="-307" type="line" smooth="yes"/>
      <point x="953" y="-402"/>
      <point x="932" y="-442"/>
      <point x="893" y="-463" type="curve" smooth="yes"/>
      <point x="828" y="-496"/>
      <point x="732" y="-503"/>
      <point x="524" y="-503" type="curve" smooth="yes"/>
      <point x="319" y="-503"/>
      <point x="222" y="-495"/>
      <point x="158" y="-465" type="curve" smooth="yes"/>
      <point x="122" y="-449"/>
      <point x="93" y="-427"/>
      <point x="93" y="-373" type="curve" smooth="yes"/>
      <point x="93" y="-299"/>
      <point x="184" y="-246"/>
      <point x="334" y="-246" type="curve" smooth="yes"/>
      <point x="509" y="-246"/>
      <point x="583" y="-312"/>
      <point x="588" y="-365" type="curve"/>
      <point x="616" y="-365" type="line"/>
      <point x="610" y="-290"/>
      <point x="511" y="-225"/>
      <point x="334" y="-225" type="curve" smooth="yes"/>
      <point x="145" y="-225"/>
      <point x="71" y="-301"/>
      <point x="71" y="-375" type="curve" smooth="yes"/>
      <point x="71" y="-441"/>
      <point x="103" y="-467"/>
      <point x="143" y="-488" type="curve" smooth="yes"/>
      <point x="208" y="-523"/>
      <point x="310" y="-530"/>
      <point x="523" y="-530" type="curve" smooth="yes"/>
      <point x="739" y="-530"/>
      <point x="844" y="-523"/>
      <point x="910" y="-486" type="curve" smooth="yes"/>
      <point x="950" y="-461"/>
      <point x="975" y="-417"/>
      <point x="975" y="-308" type="curve" smooth="yes"/>
    </contour>
    <contour>
      <point x="1149" y="10" type="line"/>
      <point x="1127" y="10" type="line"/>
      <point x="1127" y="-520" type="line"/>
      <point x="1149" y="-520" type="line"/>
    </contour>
    <component base="asatstem" xOffset="1081"/>
    <component base="ga"/>
  </outline>
</glyph>
<glyph name="e_m" format="2">
  <advance width="658"/>
  <unicode hex="1027"/>
  <note>
e_m
</note>
  <outline>
    <contour>
      <point x="291" y="511" type="line"/>
      <point x="271" y="511" type="line"/>
      <point x="271" y="434" type="line" smooth="yes"/>
      <point x="271" y="344"/>
      <point x="356" y="325"/>
      <point x="431" y="325" type="curve" smooth="yes"/>
      <point x="558" y="325"/>
      <point x="577" y="379"/>
      <point x="577" y="419" type="curve" smooth="yes"/>
      <point x="577" y="464"/>
      <point x="548" y="530"/>
      <point x="363" y="530" type="curve" smooth="yes"/>
      <point x="173" y="530"/>
      <point x="71" y="435"/>
      <point x="71" y="260" type="curve" smooth="yes"/>
      <point x="71" y="87"/>
      <point x="170" y="-10"/>
      <point x="363" y="-10" type="curve" smooth="yes"/>
      <point x="548" y="-10"/>
      <point x="577" y="56"/>
      <point x="577" y="101" type="curve" smooth="yes"/>
      <point x="577" y="141"/>
      <point x="558" y="195"/>
      <point x="431" y="195" type="curve" smooth="yes"/>
      <point x="356" y="195"/>
      <point x="271" y="176"/>
      <point x="271" y="86" type="curve" smooth="yes"/>
      <point x="271" y="9" type="line"/>
      <point x="291" y="9" type="line"/>
      <point x="291" y="79" type="line" smooth="yes"/>
      <point x="291" y="157"/>
      <point x="371" y="167"/>
      <point x="422" y="167" type="curve" smooth="yes"/>
      <point x="439" y="167" type="line" smooth="yes"/>
      <point x="523" y="167"/>
      <point x="554" y="142"/>
      <point x="554" y="101" type="curve" smooth="yes"/>
      <point x="554" y="52"/>
      <point x="500" y="18"/>
      <point x="356" y="18" type="curve" smooth="yes"/>
      <point x="343" y="18" type="line" smooth="yes"/>
      <point x="182" y="18"/>
      <point x="91" y="110"/>
      <point x="91" y="252" type="curve" smooth="yes"/>
      <point x="91" y="268" type="line" smooth="yes"/>
      <point x="91" y="410"/>
      <point x="182" y="502"/>
      <point x="343" y="502" type="curve" smooth="yes"/>
      <point x="356" y="502" type="line" smooth="yes"/>
      <point x="500" y="502"/>
      <point x="554" y="468"/>
      <point x="554" y="419" type="curve" smooth="yes"/>
      <point x="554" y="378"/>
      <point x="523" y="353"/>
      <point x="439" y="353" type="curve" smooth="yes"/>
      <point x="422" y="353" type="line" smooth="yes"/>
      <point x="371" y="353"/>
      <point x="291" y="363"/>
      <point x="291" y="441" type="curve" smooth="yes"/>
    </contour>
  </outline>
</glyph>
<glyph name="e_mon" format="2">
  <advance width="658"/>
  <unicode hex="1028"/>
  <outline>
    <contour>
      <point x="226" y="260" type="curve"/>
      <point x="245" y="260" type="line"/>
      <point x="244" y="311"/>
      <point x="277" y="343"/>
      <point x="342" y="343" type="curve" smooth="yes"/>
      <point x="403" y="343"/>
      <point x="428" y="312"/>
      <point x="428" y="271" type="curve" smooth="yes"/>
      <point x="428" y="158"/>
      <point x="219" y="222"/>
      <point x="219" y="90" type="curve" smooth="yes"/>
      <point x="219" y="32"/>
      <point x="261" y="-10"/>
      <point x="349" y="-10" type="curve" smooth="yes"/>
      <point x="495" y="-10"/>
      <point x="592" y="94"/>
      <point x="592" y="260" type="curve" smooth="yes"/>
      <point x="592" y="427"/>
      <point x="503" y="530"/>
      <point x="344" y="530" type="curve" smooth="yes"/>
      <point x="327" y="530" type="line" smooth="yes"/>
      <point x="236" y="530"/>
      <point x="169" y="497"/>
      <point x="128" y="444" type="curve" smooth="yes"/>
      <point x="93" y="399"/>
      <point x="76" y="342"/>
      <point x="76" y="263" type="curve" smooth="yes"/>
      <point x="76" y="-271" type="line" smooth="yes"/>
      <point x="76" y="-342"/>
      <point x="94" y="-401"/>
      <point x="128" y="-444" type="curve" smooth="yes"/>
      <point x="171" y="-498"/>
      <point x="240" y="-530"/>
      <point x="338" y="-530" type="curve" smooth="yes"/>
      <point x="344" y="-530" type="line" smooth="yes"/>
      <point x="433" y="-530"/>
      <point x="504" y="-501"/>
      <point x="546" y="-449" type="curve" smooth="yes"/>
      <point x="576" y="-413"/>
      <point x="592" y="-366"/>
      <point x="592" y="-310" type="curve" smooth="yes"/>
      <point x="592" y="-306"/>
      <point x="592" y="-301"/>
      <point x="591" y="-296" type="curve"/>
      <point x="571" y="-296" type="line"/>
      <point x="571" y="-309" type="line" smooth="yes"/>
      <point x="571" y="-432"/>
      <point x="490" y="-502"/>
      <point x="341" y="-502" type="curve" smooth="yes"/>
      <point x="178" y="-502"/>
      <point x="98" y="-418"/>
      <point x="98" y="-269" type="curve" smooth="yes"/>
      <point x="98" y="269" type="line" smooth="yes"/>
      <point x="98" y="412"/>
      <point x="179" y="502"/>
      <point x="334" y="502" type="curve" smooth="yes"/>
      <point x="491" y="502"/>
      <point x="572" y="411"/>
      <point x="572" y="268" type="curve" smooth="yes"/>
      <point x="572" y="252" type="line" smooth="yes"/>
      <point x="572" y="108"/>
      <point x="482" y="18"/>
      <point x="350" y="18" type="curve" smooth="yes"/>
      <point x="270" y="18"/>
      <point x="239" y="51"/>
      <point x="239" y="91" type="curve" smooth="yes"/>
      <point x="239" y="200"/>
      <point x="448" y="136"/>
      <point x="448" y="271" type="curve" smooth="yes"/>
      <point x="448" y="327"/>
      <point x="414" y="369"/>
      <point x="343" y="369" type="curve" smooth="yes"/>
      <point x="267" y="369"/>
      <point x="222" y="323"/>
    </contour>
  </outline>
</glyph>
<glyph name="_tall_aa" format="2">
  <advance width="174"/>
  <unicode hex="102B"/>
  <note>
_tall_aa
</note>
  <outline>
    <contour>
      <point x="98" y="839" type="line" smooth="yes"/>
      <point x="98" y="969"/>
      <point x="25" y="1050"/>
      <point x="-112" y="1050" type="curve" smooth="yes"/>
      <point x="-249" y="1050"/>
      <point x="-323" y="969"/>
      <point x="-323" y="838" type="curve" smooth="yes"/>
      <point x="-323" y="831"/>
      <point x="-323" y="824"/>
      <point x="-322" y="816" type="curve"/>
      <point x="-303" y="816" type="line"/>
      <point x="-303" y="835" type="line" smooth="yes"/>
      <point x="-303" y="955"/>
      <point x="-236" y="1022"/>
      <point x="-112" y="1022" type="curve" smooth="yes"/>
      <point x="12" y="1022"/>
      <point x="76" y="955"/>
      <point x="76" y="835" type="curve" smooth="yes"/>
      <point x="76" y="0" type="line"/>
      <point x="98" y="0" type="line"/>
    </contour>
  </outline>
</glyph>
<glyph name="_aa" format="2">
  <advance width="402"/>
  <unicode hex="102C"/>
  <outline>
    <contour>
      <point x="-135" y="439" type="curve"/>
      <point x="-120" y="420" type="line"/>
      <point x="-81" y="472"/>
      <point x="-16" y="502"/>
      <point x="73" y="502" type="curve" smooth="yes"/>
      <point x="229" y="502"/>
      <point x="311" y="411"/>
      <point x="311" y="268" type="curve" smooth="yes"/>
      <point x="311" y="252" type="line" smooth="yes"/>
      <point x="311" y="108"/>
      <point x="229" y="18"/>
      <point x="72" y="18" type="curve" smooth="yes"/>
      <point x="17" y="18" type="line"/>
      <point x="17" y="-6" type="line"/>
      <point x="37" y="-9"/>
      <point x="56" y="-10"/>
      <point x="76" y="-10" type="curve" smooth="yes"/>
      <point x="171" y="-10"/>
      <point x="237" y="24"/>
      <point x="278" y="76" type="curve" smooth="yes"/>
      <point x="314" y="121"/>
      <point x="331" y="179"/>
      <point x="331" y="260" type="curve" smooth="yes"/>
      <point x="331" y="341"/>
      <point x="314" y="399"/>
      <point x="278" y="444" type="curve" smooth="yes"/>
      <point x="237" y="496"/>
      <point x="171" y="530"/>
      <point x="83" y="530" type="curve" smooth="yes"/>
      <point x="63" y="530" type="line" smooth="yes"/>
      <point x="-13" y="530"/>
      <point x="-92" y="503"/>
    </contour>
  </outline>
</glyph>
<glyph name="_u" format="2">
  <unicode hex="102F"/>
  <outline>
    <contour>
      <point x="-318" y="18" type="line"/>
      <point x="-340" y="18" type="line"/>
      <point x="-340" y="-349" type="line" smooth="yes"/>
      <point x="-340" y="-496"/>
      <point x="-295" y="-530"/>
      <point x="-238" y="-530" type="curve" smooth="yes"/>
      <point x="-233" y="-530"/>
      <point x="-223" y="-530"/>
      <point x="-213" y="-529" type="curve"/>
      <point x="-213" y="-502" type="line"/>
      <point x="-233" y="-502" type="line" smooth="yes"/>
      <point x="-283" y="-502"/>
      <point x="-318" y="-485"/>
      <point x="-318" y="-343" type="curve" smooth="yes"/>
    </contour>
  </outline>
</glyph>
<glyph name="_uu" format="2">
  <unicode hex="1030"/>
  <outline>
    <contour>
      <point x="-407" y="-520" type="line"/>
      <point x="-385" y="-520" type="line"/>
      <point x="-385" y="6" type="line"/>
      <point x="-407" y="6" type="line"/>
    </contour>
    <component base="_u" xOffset="67"/>
  </outline>
</glyph>
<glyph name="_e" format="2">
  <advance width="658"/>
  <unicode hex="1031"/>
  <note>
_e
</note>
  <outline>
    <contour>
      <point x="578" y="354" type="line"/>
      <point x="553" y="465"/>
      <point x="462" y="530"/>
      <point x="339" y="530" type="curve" smooth="yes"/>
      <point x="319" y="530" type="line" smooth="yes"/>
      <point x="233" y="530"/>
      <point x="167" y="500"/>
      <point x="124" y="445" type="curve" smooth="yes"/>
      <point x="90" y="399"/>
      <point x="71" y="337"/>
      <point x="71" y="260" type="curve" smooth="yes"/>
      <point x="71" y="185"/>
      <point x="89" y="124"/>
      <point x="124" y="78" type="curve" smooth="yes"/>
      <point x="168" y="21"/>
      <point x="240" y="-10"/>
      <point x="339" y="-10" type="curve" smooth="yes"/>
      <point x="353" y="-10" type="line" smooth="yes"/>
      <point x="549" y="-10"/>
      <point x="577" y="57"/>
      <point x="577" y="102" type="curve" smooth="yes"/>
      <point x="577" y="142"/>
      <point x="556" y="195"/>
      <point x="431" y="195" type="curve" smooth="yes"/>
      <point x="355" y="195"/>
      <point x="271" y="176"/>
      <point x="271" y="86" type="curve" smooth="yes"/>
      <point x="271" y="-1" type="line"/>
      <point x="291" y="-1" type="line"/>
      <point x="291" y="79" type="line" smooth="yes"/>
      <point x="291" y="157"/>
      <point x="371" y="167"/>
      <point x="422" y="167" type="curve" smooth="yes"/>
      <point x="439" y="167" type="line" smooth="yes"/>
      <point x="523" y="167"/>
      <point x="554" y="142"/>
      <point x="554" y="102" type="curve" smooth="yes"/>
      <point x="554" y="52"/>
      <point x="497" y="18"/>
      <point x="346" y="18" type="curve" smooth="yes"/>
      <point x="333" y="18" type="line" smooth="yes"/>
      <point x="174" y="18"/>
      <point x="91" y="108"/>
      <point x="91" y="252" type="curve" smooth="yes"/>
      <point x="91" y="268" type="line" smooth="yes"/>
      <point x="91" y="411"/>
      <point x="173" y="502"/>
      <point x="329" y="502" type="curve" smooth="yes"/>
      <point x="451" y="502"/>
      <point x="532" y="446"/>
      <point x="556" y="354" type="curve"/>
    </contour>
  </outline>
</glyph>
<glyph name="_ai" format="2">
  <unicode hex="1032"/>
  <note>
_ai
</note>
  <outline>
    <contour>
      <point x="-185" y="614" type="line"/>
      <point x="-416" y="851" type="line"/>
      <point x="-447" y="839" type="line"/>
      <point x="-216" y="620" type="line"/>
    </contour>
  </outline>
</glyph>
<glyph name="_ii_mon" format="2">
  <unicode hex="1033"/>
  <outline>
    <contour>
      <point x="-330" y="738" type="curve" smooth="yes"/>
      <point x="-267" y="738"/>
      <point x="-236" y="776"/>
      <point x="-236" y="827" type="curve" smooth="yes"/>
      <point x="-236" y="879"/>
      <point x="-267" y="917"/>
      <point x="-330" y="917" type="curve" smooth="yes"/>
      <point x="-392" y="917"/>
      <point x="-423" y="879"/>
      <point x="-423" y="827" type="curve" smooth="yes"/>
      <point x="-423" y="776"/>
      <point x="-392" y="738"/>
    </contour>
    <contour>
      <point x="-330" y="761" type="curve" smooth="yes"/>
      <point x="-382" y="761"/>
      <point x="-405" y="790"/>
      <point x="-405" y="827" type="curve" smooth="yes"/>
      <point x="-405" y="865"/>
      <point x="-382" y="894"/>
      <point x="-330" y="894" type="curve" smooth="yes"/>
      <point x="-278" y="894"/>
      <point x="-254" y="865"/>
      <point x="-254" y="827" type="curve" smooth="yes"/>
      <point x="-254" y="790"/>
      <point x="-278" y="761"/>
    </contour>
    <component base="_i"/>
  </outline>
</glyph>
<glyph name="_o_mon" format="2">
  <unicode hex="1034"/>
  <note>
_o_mon
</note>
  <outline>
    <contour>
      <point x="-211" y="839" type="line"/>
      <point x="-242" y="851" type="line"/>
      <point x="-473" y="614" type="line"/>
      <point x="-442" y="620" type="line"/>
    </contour>
  </outline>
</glyph>
<glyph name="dot_below" format="2">
  <unicode hex="1037"/>
  <outline>
    <contour>
      <point x="-329" y="-327" type="curve" smooth="yes"/>
      <point x="-255" y="-327"/>
      <point x="-217" y="-280"/>
      <point x="-217" y="-218" type="curve" smooth="yes"/>
      <point x="-217" y="-156"/>
      <point x="-255" y="-109"/>
      <point x="-329" y="-109" type="curve" smooth="yes"/>
      <point x="-403" y="-109"/>
      <point x="-441" y="-156"/>
      <point x="-441" y="-218" type="curve" smooth="yes"/>
      <point x="-441" y="-280"/>
      <point x="-403" y="-327"/>
    </contour>
    <contour>
      <point x="-329" y="-301" type="curve" smooth="yes"/>
      <point x="-392" y="-301"/>
      <point x="-421" y="-265"/>
      <point x="-421" y="-218" type="curve" smooth="yes"/>
      <point x="-421" y="-171"/>
      <point x="-392" y="-135"/>
      <point x="-329" y="-135" type="curve" smooth="yes"/>
      <point x="-266" y="-135"/>
      <point x="-237" y="-171"/>
      <point x="-237" y="-218" type="curve" smooth="yes"/>
      <point x="-237" y="-265"/>
      <point x="-266" y="-301"/>
    </contour>
  </outline>
</glyph>
<glyph name="virama" format="2">
  <unicode hex="1039"/>
  <note>
virama
</note>
  <outline>
    <contour>
      <point x="-343" y="-520" type="line"/>
      <point x="-314" y="-520" type="line"/>
      <point x="-320" y="-307" type="line"/>
      <point x="-314" y="-94" type="line"/>
      <point x="-343" y="-94" type="line"/>
      <point x="-337" y="-307" type="line"/>
    </contour>
    <contour>
      <point x="-111" y="-319" type="line"/>
      <point x="-111" y="-294" type="line"/>
      <point x="-546" y="-294" type="line"/>
      <point x="-546" y="-319" type="line"/>
    </contour>
  </outline>
</glyph>
<glyph name="asat" format="2">
  <unicode hex="103A"/>
  <outline>
    <contour>
      <point x="-305" y="615" type="line"/>
      <point x="-435" y="710"/>
      <point x="-500" y="777"/>
      <point x="-500" y="871" type="curve" smooth="yes"/>
      <point x="-500" y="948"/>
      <point x="-453" y="1022"/>
      <point x="-321" y="1022" type="curve" smooth="yes"/>
      <point x="-199" y="1022"/>
      <point x="-132" y="969"/>
      <point x="-132" y="848" type="curve" smooth="yes"/>
      <point x="-132" y="838" type="line"/>
      <point x="-113" y="838" type="line"/>
      <point x="-112" y="842"/>
      <point x="-112" y="846"/>
      <point x="-112" y="848" type="curve" smooth="yes"/>
      <point x="-112" y="977"/>
      <point x="-186" y="1050"/>
      <point x="-321" y="1050" type="curve" smooth="yes"/>
      <point x="-452" y="1050"/>
      <point x="-522" y="972"/>
      <point x="-522" y="871" type="curve" smooth="yes"/>
      <point x="-522" y="775"/>
      <point x="-457" y="705"/>
      <point x="-338" y="615" type="curve"/>
      <point x="-305" y="590" type="line"/>
    </contour>
  </outline>
</glyph>
<glyph name="great_sa" format="2">
  <advance width="1462"/>
  <unicode hex="103F"/>
  <note>
Disable this ligature (sa+virama+sa) and use sa with subjoined sa for Mon.
</note>
  <outline>
    <contour>
      <point x="102" y="354" type="line"/>
      <point x="126" y="447"/>
      <point x="207" y="502"/>
      <point x="329" y="502" type="curve" smooth="yes"/>
      <point x="485" y="502"/>
      <point x="567" y="412"/>
      <point x="567" y="268" type="curve" smooth="yes"/>
      <point x="567" y="252" type="line" smooth="yes"/>
      <point x="567" y="109"/>
      <point x="485" y="18"/>
      <point x="329" y="18" type="curve" smooth="yes"/>
      <point x="207" y="18"/>
      <point x="126" y="74"/>
      <point x="102" y="166" type="curve"/>
      <point x="80" y="166" type="line"/>
      <point x="105" y="55"/>
      <point x="196" y="-10"/>
      <point x="319" y="-10" type="curve" smooth="yes"/>
      <point x="339" y="-10" type="line" smooth="yes"/>
      <point x="425" y="-10"/>
      <point x="492" y="20"/>
      <point x="534" y="76" type="curve" smooth="yes"/>
      <point x="569" y="121"/>
      <point x="587" y="184"/>
      <point x="587" y="260" type="curve" smooth="yes"/>
      <point x="587" y="336"/>
      <point x="569" y="399"/>
      <point x="534" y="444" type="curve" smooth="yes"/>
      <point x="492" y="499"/>
      <point x="426" y="530"/>
      <point x="339" y="530" type="curve" smooth="yes"/>
      <point x="319" y="530" type="line" smooth="yes"/>
      <point x="199" y="530"/>
      <point x="106" y="468"/>
      <point x="80" y="354" type="curve"/>
    </contour>
    <contour>
      <point x="523" y="81" type="line"/>
      <point x="566" y="17"/>
      <point x="645" y="-10"/>
      <point x="721" y="-10" type="curve" smooth="yes"/>
      <point x="741" y="-10" type="line" smooth="yes"/>
      <point x="829" y="-10"/>
      <point x="895" y="24"/>
      <point x="936" y="76" type="curve" smooth="yes"/>
      <point x="972" y="121"/>
      <point x="989" y="179"/>
      <point x="989" y="260" type="curve" smooth="yes"/>
      <point x="989" y="341"/>
      <point x="972" y="399"/>
      <point x="936" y="444" type="curve" smooth="yes"/>
      <point x="895" y="496"/>
      <point x="829" y="530"/>
      <point x="734" y="530" type="curve" smooth="yes"/>
      <point x="714" y="530"/>
      <point x="695" y="529"/>
      <point x="675" y="526" type="curve"/>
      <point x="675" y="502" type="line"/>
      <point x="730" y="502" type="line" smooth="yes"/>
      <point x="887" y="502"/>
      <point x="969" y="412"/>
      <point x="969" y="268" type="curve" smooth="yes"/>
      <point x="969" y="252" type="line" smooth="yes"/>
      <point x="969" y="109"/>
      <point x="887" y="18"/>
      <point x="731" y="18" type="curve" smooth="yes"/>
      <point x="642" y="18"/>
      <point x="577" y="48"/>
      <point x="538" y="100" type="curve"/>
    </contour>
    <contour>
      <point x="925" y="80" type="line"/>
      <point x="968" y="16"/>
      <point x="1047" y="-11"/>
      <point x="1123" y="-11" type="curve" smooth="yes"/>
      <point x="1143" y="-11" type="line" smooth="yes"/>
      <point x="1231" y="-11"/>
      <point x="1297" y="23"/>
      <point x="1338" y="75" type="curve" smooth="yes"/>
      <point x="1374" y="120"/>
      <point x="1391" y="178"/>
      <point x="1391" y="259" type="curve" smooth="yes"/>
      <point x="1391" y="340"/>
      <point x="1374" y="398"/>
      <point x="1338" y="443" type="curve" smooth="yes"/>
      <point x="1297" y="495"/>
      <point x="1231" y="529"/>
      <point x="1136" y="529" type="curve" smooth="yes"/>
      <point x="1116" y="529"/>
      <point x="1097" y="528"/>
      <point x="1077" y="525" type="curve"/>
      <point x="1077" y="501" type="line"/>
      <point x="1132" y="501" type="line" smooth="yes"/>
      <point x="1289" y="501"/>
      <point x="1371" y="411"/>
      <point x="1371" y="267" type="curve" smooth="yes"/>
      <point x="1371" y="251" type="line" smooth="yes"/>
      <point x="1371" y="108"/>
      <point x="1289" y="17"/>
      <point x="1133" y="17" type="curve" smooth="yes"/>
      <point x="1044" y="17"/>
      <point x="979" y="47"/>
      <point x="940" y="99" type="curve"/>
    </contour>
  </outline>
</glyph>
<glyph name="two_m" format="2">
  <advance width="554"/>
  <unicode hex="1042"/>
  <outline>
    <contour>
      <point x="478" y="-219" type="curve" smooth="yes"/>
      <point x="478" y="520" type="line"/>
      <point x="456" y="520" type="line"/>
      <point x="456" y="-215" type="line" smooth="yes"/>
      <point x="456" y="-335"/>
      <point x="392" y="-402"/>
      <point x="268" y="-402" type="curve" smooth="yes"/>
      <point x="144" y="-402"/>
      <point x="77" y="-335"/>
      <point x="77" y="-215" type="curve" smooth="yes"/>
      <point x="77" y="-196" type="line"/>
      <point x="58" y="-196" type="line"/>
      <point x="57" y="-204"/>
      <point x="57" y="-211"/>
      <point x="57" y="-218" type="curve" smooth="yes"/>
      <point x="57" y="-349"/>
      <point x="131" y="-430"/>
      <point x="268" y="-430" type="curve" smooth="yes"/>
      <point x="405" y="-430"/>
      <point x="478" y="-349"/>
    </contour>
  </outline>
</glyph>
<glyph name="three_m" format="2">
  <advance width="658"/>
  <unicode hex="1043"/>
  <outline>
    <contour>
      <point x="319" y="-10" type="curve" smooth="yes"/>
      <point x="339" y="-10" type="line" smooth="yes"/>
      <point x="426" y="-10"/>
      <point x="492" y="21"/>
      <point x="534" y="76" type="curve" smooth="yes"/>
      <point x="569" y="121"/>
      <point x="587" y="184"/>
      <point x="587" y="260" type="curve" smooth="yes"/>
      <point x="587" y="336"/>
      <point x="569" y="399"/>
      <point x="534" y="444" type="curve" smooth="yes"/>
      <point x="492" y="500"/>
      <point x="425" y="530"/>
      <point x="339" y="530" type="curve" smooth="yes"/>
      <point x="319" y="530" type="line" smooth="yes"/>
      <point x="196" y="530"/>
      <point x="105" y="465"/>
      <point x="80" y="354" type="curve"/>
      <point x="102" y="354" type="line"/>
      <point x="126" y="446"/>
      <point x="207" y="502"/>
      <point x="329" y="502" type="curve" smooth="yes"/>
      <point x="485" y="502"/>
      <point x="567" y="411"/>
      <point x="567" y="268" type="curve" smooth="yes"/>
      <point x="567" y="252" type="line" smooth="yes"/>
      <point x="567" y="108"/>
      <point x="485" y="18"/>
      <point x="329" y="18" type="curve" smooth="yes"/>
      <point x="207" y="18"/>
      <point x="126" y="73"/>
      <point x="102" y="166" type="curve"/>
      <point x="80" y="166" type="line"/>
      <point x="89" y="125"/>
      <point x="107" y="92"/>
      <point x="153" y="39" type="curve" smooth="yes"/>
      <point x="556" y="-430" type="line"/>
      <point x="587" y="-418" type="line"/>
      <point x="203" y="13" type="line"/>
      <point x="237" y="-2"/>
      <point x="276" y="-10"/>
    </contour>
  </outline>
</glyph>
<glyph name="five_m" format="2">
  <advance width="650"/>
  <unicode hex="1045"/>
  <outline>
    <contour>
      <point x="299" y="-10" type="curve" smooth="yes"/>
      <point x="373" y="-10"/>
      <point x="411" y="37"/>
      <point x="411" y="99" type="curve" smooth="yes"/>
      <point x="411" y="161"/>
      <point x="373" y="208"/>
      <point x="299" y="208" type="curve" smooth="yes"/>
      <point x="225" y="208"/>
      <point x="187" y="161"/>
      <point x="187" y="99" type="curve" smooth="yes"/>
      <point x="187" y="37"/>
      <point x="225" y="-10"/>
    </contour>
    <contour>
      <point x="88" y="-196" type="line"/>
      <point x="68" y="-196" type="line"/>
      <point x="67" y="-201"/>
      <point x="67" y="-206"/>
      <point x="67" y="-210" type="curve" smooth="yes"/>
      <point x="67" y="-266"/>
      <point x="83" y="-313"/>
      <point x="113" y="-349" type="curve" smooth="yes"/>
      <point x="156" y="-400"/>
      <point x="226" y="-430"/>
      <point x="315" y="-430" type="curve" smooth="yes"/>
      <point x="321" y="-430" type="line" smooth="yes"/>
      <point x="419" y="-430"/>
      <point x="488" y="-398"/>
      <point x="531" y="-344" type="curve" smooth="yes"/>
      <point x="565" y="-301"/>
      <point x="583" y="-242"/>
      <point x="583" y="-171" type="curve" smooth="yes"/>
      <point x="583" y="263" type="line" smooth="yes"/>
      <point x="583" y="342"/>
      <point x="566" y="399"/>
      <point x="531" y="444" type="curve" smooth="yes"/>
      <point x="490" y="497"/>
      <point x="423" y="530"/>
      <point x="332" y="530" type="curve" smooth="yes"/>
      <point x="318" y="530" type="line" smooth="yes"/>
      <point x="227" y="530"/>
      <point x="161" y="496"/>
      <point x="120" y="445" type="curve" smooth="yes"/>
      <point x="83" y="399"/>
      <point x="67" y="341"/>
      <point x="67" y="260" type="curve" smooth="yes"/>
      <point x="67" y="179"/>
      <point x="83" y="119"/>
      <point x="122" y="70" type="curve" smooth="yes"/>
      <point x="158" y="25"/>
      <point x="216" y="-10"/>
      <point x="299" y="-10" type="curve"/>
      <point x="373" y="-10"/>
      <point x="411" y="37"/>
      <point x="411" y="99" type="curve"/>
      <point x="411" y="37"/>
      <point x="362" y="14"/>
      <point x="295" y="14" type="curve" smooth="yes"/>
      <point x="168" y="14"/>
      <point x="87" y="111"/>
      <point x="87" y="252" type="curve" smooth="yes"/>
      <point x="87" y="268" type="line" smooth="yes"/>
      <point x="87" y="411"/>
      <point x="169" y="502"/>
      <point x="325" y="502" type="curve" smooth="yes"/>
      <point x="481" y="502"/>
      <point x="561" y="412"/>
      <point x="561" y="269" type="curve" smooth="yes"/>
      <point x="561" y="-169" type="line" smooth="yes"/>
      <point x="561" y="-318"/>
      <point x="481" y="-402"/>
      <point x="318" y="-402" type="curve" smooth="yes"/>
      <point x="169" y="-402"/>
      <point x="88" y="-332"/>
      <point x="88" y="-209" type="curve" smooth="yes"/>
    </contour>
    <contour>
      <point x="299" y="16" type="curve" smooth="yes"/>
      <point x="236" y="16"/>
      <point x="207" y="52"/>
      <point x="207" y="99" type="curve" smooth="yes"/>
      <point x="207" y="146"/>
      <point x="236" y="182"/>
      <point x="299" y="182" type="curve" smooth="yes"/>
      <point x="362" y="182"/>
      <point x="391" y="146"/>
      <point x="391" y="99" type="curve" smooth="yes"/>
      <point x="391" y="52"/>
      <point x="362" y="16"/>
    </contour>
  </outline>
</glyph>
<glyph name="seven_m" format="2">
  <advance width="658"/>
  <unicode hex="1047"/>
  <outline>
    <contour>
      <point x="483" y="-251" type="curve"/>
      <point x="464" y="-251" type="line"/>
      <point x="464" y="-273" type="line" smooth="yes"/>
      <point x="464" y="-357"/>
      <point x="415" y="-402"/>
      <point x="326" y="-402" type="curve" smooth="yes"/>
      <point x="227" y="-402"/>
      <point x="190" y="-350"/>
      <point x="190" y="-295" type="curve" smooth="yes"/>
      <point x="190" y="-223"/>
      <point x="244" y="-184"/>
      <point x="343" y="-106" type="curve" smooth="yes"/>
      <point x="475" y="-3"/>
      <point x="587" y="98"/>
      <point x="587" y="260" type="curve" smooth="yes"/>
      <point x="587" y="335"/>
      <point x="572" y="398"/>
      <point x="530" y="449" type="curve" smooth="yes"/>
      <point x="492" y="495"/>
      <point x="429" y="530"/>
      <point x="339" y="530" type="curve" smooth="yes"/>
      <point x="319" y="530" type="line" smooth="yes"/>
      <point x="230" y="530"/>
      <point x="166" y="496"/>
      <point x="128" y="449" type="curve" smooth="yes"/>
      <point x="88" y="399"/>
      <point x="71" y="341"/>
      <point x="71" y="260" type="curve" smooth="yes"/>
      <point x="71" y="178"/>
      <point x="88" y="121"/>
      <point x="129" y="70" type="curve" smooth="yes"/>
      <point x="161" y="30"/>
      <point x="207" y="-1"/>
      <point x="273" y="-10" type="curve"/>
      <point x="273" y="19" type="line"/>
      <point x="153" y="37"/>
      <point x="91" y="129"/>
      <point x="91" y="252" type="curve" smooth="yes"/>
      <point x="91" y="268" type="line" smooth="yes"/>
      <point x="91" y="412"/>
      <point x="173" y="502"/>
      <point x="329" y="502" type="curve" smooth="yes"/>
      <point x="485" y="502"/>
      <point x="567" y="412"/>
      <point x="567" y="268" type="curve" smooth="yes"/>
      <point x="567" y="252" type="line" smooth="yes"/>
      <point x="567" y="112"/>
      <point x="460" y="14"/>
      <point x="335" y="-84" type="curve" smooth="yes"/>
      <point x="230" y="-166"/>
      <point x="168" y="-214"/>
      <point x="168" y="-295" type="curve" smooth="yes"/>
      <point x="168" y="-375"/>
      <point x="224" y="-430"/>
      <point x="326" y="-430" type="curve" smooth="yes"/>
      <point x="426" y="-430"/>
      <point x="486" y="-369"/>
      <point x="486" y="-273" type="curve" smooth="yes"/>
      <point x="486" y="-267"/>
      <point x="486" y="-262"/>
    </contour>
  </outline>
</glyph>
<glyph name="nine_m" format="2">
  <advance width="658"/>
  <unicode hex="1049"/>
  <outline>
    <contour>
      <point x="337" y="206" type="curve"/>
      <point x="370" y="191" type="line"/>
      <point x="529" y="212"/>
      <point x="592" y="249"/>
      <point x="592" y="349" type="curve" smooth="yes"/>
      <point x="592" y="446"/>
      <point x="509" y="530"/>
      <point x="351" y="530" type="curve" smooth="yes"/>
      <point x="337" y="530" type="line" smooth="yes"/>
      <point x="242" y="530"/>
      <point x="169" y="497"/>
      <point x="128" y="444" type="curve" smooth="yes"/>
      <point x="93" y="399"/>
      <point x="76" y="342"/>
      <point x="76" y="263" type="curve" smooth="yes"/>
      <point x="76" y="-171" type="line" smooth="yes"/>
      <point x="76" y="-242"/>
      <point x="94" y="-301"/>
      <point x="128" y="-344" type="curve" smooth="yes"/>
      <point x="170" y="-397"/>
      <point x="239" y="-430"/>
      <point x="341" y="-430" type="curve" smooth="yes"/>
      <point x="343" y="-430" type="line" smooth="yes"/>
      <point x="433" y="-430"/>
      <point x="504" y="-401"/>
      <point x="546" y="-350" type="curve" smooth="yes"/>
      <point x="576" y="-314"/>
      <point x="592" y="-266"/>
      <point x="592" y="-210" type="curve" smooth="yes"/>
      <point x="592" y="-206"/>
      <point x="592" y="-201"/>
      <point x="591" y="-196" type="curve"/>
      <point x="571" y="-196" type="line"/>
      <point x="571" y="-209" type="line" smooth="yes"/>
      <point x="571" y="-332"/>
      <point x="490" y="-402"/>
      <point x="341" y="-402" type="curve" smooth="yes"/>
      <point x="178" y="-402"/>
      <point x="98" y="-318"/>
      <point x="98" y="-169" type="curve" smooth="yes"/>
      <point x="98" y="269" type="line" smooth="yes"/>
      <point x="98" y="412"/>
      <point x="185" y="502"/>
      <point x="344" y="502" type="curve" smooth="yes"/>
      <point x="496" y="502"/>
      <point x="572" y="435"/>
      <point x="572" y="352" type="curve" smooth="yes"/>
      <point x="572" y="271"/>
      <point x="520" y="231"/>
      <point x="397" y="217" type="curve" smooth="yes"/>
      <point x="290" y="205"/>
      <point x="225" y="190"/>
      <point x="225" y="99" type="curve" smooth="yes"/>
      <point x="225" y="37"/>
      <point x="263" y="-10"/>
      <point x="337" y="-10" type="curve" smooth="yes"/>
      <point x="411" y="-10"/>
      <point x="449" y="37"/>
      <point x="449" y="99" type="curve" smooth="yes"/>
      <point x="449" y="161"/>
      <point x="411" y="206"/>
    </contour>
    <contour>
      <point x="337" y="16" type="curve" smooth="yes"/>
      <point x="274" y="16"/>
      <point x="245" y="52"/>
      <point x="245" y="99" type="curve" smooth="yes"/>
      <point x="245" y="146"/>
      <point x="274" y="182"/>
      <point x="337" y="182" type="curve" smooth="yes"/>
      <point x="400" y="182"/>
      <point x="429" y="146"/>
      <point x="429" y="99" type="curve" smooth="yes"/>
      <point x="429" y="52"/>
      <point x="400" y="16"/>
    </contour>
  </outline>
</glyph>
<glyph name="little_section" format="2">
  <advance width="230"/>
  <unicode hex="104A"/>
  <note>
little_section
</note>
  <outline>
    <contour>
      <point x="126" y="520" type="line"/>
      <point x="104" y="520" type="line"/>
      <point x="104" y="0" type="line"/>
      <point x="126" y="0" type="line"/>
    </contour>
  </outline>
</glyph>
<glyph name="locative" format="2">
  <advance width="658"/>
  <unicode hex="104C"/>
  <note>
locative
</note>
  <outline>
    <contour>
      <point x="80" y="166" type="line"/>
      <point x="80" y="7" type="line" smooth="yes"/>
      <point x="80" y="-91"/>
      <point x="100" y="-130"/>
      <point x="134" y="-155" type="curve" smooth="yes"/>
      <point x="177" y="-187"/>
      <point x="248" y="-193"/>
      <point x="334" y="-193" type="curve" smooth="yes"/>
      <point x="420" y="-193"/>
      <point x="491" y="-187"/>
      <point x="534" y="-155" type="curve" smooth="yes"/>
      <point x="568" y="-130"/>
      <point x="587" y="-91"/>
      <point x="587" y="7" type="curve"/>
      <point x="587" y="9" type="line"/>
      <point x="565" y="9" type="line"/>
      <point x="565" y="-74"/>
      <point x="549" y="-109"/>
      <point x="518" y="-131" type="curve" smooth="yes"/>
      <point x="477" y="-159"/>
      <point x="412" y="-166"/>
      <point x="334" y="-166" type="curve" smooth="yes"/>
      <point x="256" y="-166"/>
      <point x="191" y="-159"/>
      <point x="150" y="-131" type="curve" smooth="yes"/>
      <point x="119" y="-109"/>
      <point x="102" y="-74"/>
      <point x="102" y="12" type="curve" smooth="yes"/>
      <point x="102" y="151" type="line"/>
    </contour>
    <contour>
      <point x="587" y="9" type="line"/>
      <point x="565" y="-64" type="line"/>
      <point x="565" y="-325" type="line" smooth="yes"/>
      <point x="565" y="-411"/>
      <point x="548" y="-446"/>
      <point x="517" y="-468" type="curve" smooth="yes"/>
      <point x="476" y="-496"/>
      <point x="412" y="-503"/>
      <point x="334" y="-503" type="curve" smooth="yes"/>
      <point x="192" y="-503"/>
      <point x="102" y="-482"/>
      <point x="102" y="-402" type="curve" smooth="yes"/>
      <point x="102" y="-347"/>
      <point x="155" y="-308"/>
      <point x="243" y="-308" type="curve" smooth="yes"/>
      <point x="349" y="-308"/>
      <point x="394" y="-362"/>
      <point x="397" y="-405" type="curve"/>
      <point x="425" y="-405" type="line"/>
      <point x="421" y="-342"/>
      <point x="357" y="-287"/>
      <point x="243" y="-287" type="curve" smooth="yes"/>
      <point x="126" y="-287"/>
      <point x="80" y="-349"/>
      <point x="80" y="-404" type="curve" smooth="yes"/>
      <point x="80" y="-443"/>
      <point x="96" y="-474"/>
      <point x="131" y="-495" type="curve" smooth="yes"/>
      <point x="176" y="-523"/>
      <point x="248" y="-530"/>
      <point x="334" y="-530" type="curve" smooth="yes"/>
      <point x="420" y="-530"/>
      <point x="490" y="-524"/>
      <point x="533" y="-492" type="curve" smooth="yes"/>
      <point x="566" y="-467"/>
      <point x="587" y="-428"/>
      <point x="587" y="-330" type="curve" smooth="yes"/>
    </contour>
    <component base="asat" xOffset="649"/>
    <component base="nga" xScale="-1" xOffset="658"/>
  </outline>
</glyph>
<glyph name="completed" format="2">
  <advance width="807"/>
  <unicode hex="104D"/>
  <note>
completed
</note>
  <outline>
    <contour>
      <point x="761" y="10" type="line"/>
      <point x="739" y="10" type="line"/>
      <point x="739" y="-307" type="line" smooth="yes"/>
      <point x="739" y="-402"/>
      <point x="720" y="-442"/>
      <point x="683" y="-463" type="curve" smooth="yes"/>
      <point x="624" y="-496"/>
      <point x="534" y="-503"/>
      <point x="327" y="-503" type="curve" smooth="yes"/>
      <point x="177" y="-503"/>
      <point x="93" y="-482"/>
      <point x="93" y="-383" type="curve" smooth="yes"/>
      <point x="93" y="-316"/>
      <point x="146" y="-268"/>
      <point x="234" y="-268" type="curve" smooth="yes"/>
      <point x="340" y="-268"/>
      <point x="385" y="-322"/>
      <point x="388" y="-365" type="curve"/>
      <point x="416" y="-365" type="line"/>
      <point x="412" y="-302"/>
      <point x="348" y="-247"/>
      <point x="234" y="-247" type="curve" smooth="yes"/>
      <point x="120" y="-247"/>
      <point x="71" y="-322"/>
      <point x="71" y="-385" type="curve" smooth="yes"/>
      <point x="71" y="-440"/>
      <point x="90" y="-470"/>
      <point x="120" y="-490" type="curve" smooth="yes"/>
      <point x="161" y="-517"/>
      <point x="231" y="-530"/>
      <point x="328" y="-530" type="curve" smooth="yes"/>
      <point x="542" y="-530"/>
      <point x="639" y="-523"/>
      <point x="699" y="-486" type="curve" smooth="yes"/>
      <point x="737" y="-461"/>
      <point x="761" y="-417"/>
      <point x="761" y="-308" type="curve" smooth="yes"/>
    </contour>
    <component base="ra.alt2"/>
    <component base="asatstem" xOffset="693"/>
  </outline>
</glyph>
<glyph name="aforementioned" format="2">
  <advance width="658"/>
  <unicode hex="104E"/>
  <outline>
    <contour>
      <point x="556" y="-520" type="line"/>
      <point x="578" y="-520" type="line"/>
      <point x="578" y="166" type="line"/>
      <point x="556" y="136" type="line"/>
    </contour>
    <component base="nga"/>
  </outline>
</glyph>
<glyph name="genitive" format="2">
  <advance width="1067"/>
  <unicode hex="104F"/>
  <note>
genitive
</note>
  <outline>
    <contour>
      <point x="578" y="417" type="curve" smooth="yes"/>
      <point x="583" y="465"/>
      <point x="622" y="502"/>
      <point x="700" y="502" type="curve" smooth="yes"/>
      <point x="777" y="502"/>
      <point x="825" y="464"/>
      <point x="825" y="355" type="curve" smooth="yes"/>
      <point x="825" y="0" type="line"/>
      <point x="847" y="0" type="line"/>
      <point x="847" y="361" type="line" smooth="yes"/>
      <point x="847" y="476"/>
      <point x="792" y="530"/>
      <point x="704" y="530" type="curve" smooth="yes"/>
      <point x="695" y="530" type="line" smooth="yes"/>
      <point x="627" y="530"/>
      <point x="580" y="497"/>
      <point x="563" y="448" type="curve"/>
      <point x="572" y="449" type="line"/>
      <point x="559" y="488"/>
      <point x="510" y="530"/>
      <point x="363" y="530" type="curve" smooth="yes"/>
      <point x="173" y="530"/>
      <point x="71" y="435"/>
      <point x="71" y="260" type="curve" smooth="yes"/>
      <point x="71" y="87"/>
      <point x="170" y="-10"/>
      <point x="363" y="-10" type="curve" smooth="yes"/>
      <point x="548" y="-10"/>
      <point x="577" y="56"/>
      <point x="577" y="101" type="curve" smooth="yes"/>
      <point x="577" y="141"/>
      <point x="558" y="195"/>
      <point x="431" y="195" type="curve" smooth="yes"/>
      <point x="356" y="195"/>
      <point x="271" y="176"/>
      <point x="271" y="86" type="curve" smooth="yes"/>
      <point x="271" y="9" type="line"/>
      <point x="291" y="9" type="line"/>
      <point x="291" y="79" type="line" smooth="yes"/>
      <point x="291" y="157"/>
      <point x="371" y="167"/>
      <point x="422" y="167" type="curve" smooth="yes"/>
      <point x="439" y="167" type="line" smooth="yes"/>
      <point x="523" y="167"/>
      <point x="554" y="142"/>
      <point x="554" y="101" type="curve" smooth="yes"/>
      <point x="554" y="52"/>
      <point x="500" y="18"/>
      <point x="356" y="18" type="curve" smooth="yes"/>
      <point x="343" y="18" type="line" smooth="yes"/>
      <point x="182" y="18"/>
      <point x="91" y="110"/>
      <point x="91" y="252" type="curve" smooth="yes"/>
      <point x="91" y="268" type="line" smooth="yes"/>
      <point x="91" y="410"/>
      <point x="182" y="502"/>
      <point x="343" y="502" type="curve" smooth="yes"/>
      <point x="356" y="502" type="line" smooth="yes"/>
      <point x="500" y="502"/>
      <point x="554" y="468"/>
      <point x="554" y="419" type="curve" smooth="yes"/>
      <point x="554" y="378"/>
      <point x="523" y="353"/>
      <point x="439" y="353" type="curve" smooth="yes"/>
      <point x="422" y="353" type="line" smooth="yes"/>
      <point x="371" y="353"/>
      <point x="291" y="363"/>
      <point x="291" y="441" type="curve" smooth="yes"/>
      <point x="291" y="511" type="line"/>
      <point x="271" y="511" type="line"/>
      <point x="271" y="434" type="line" smooth="yes"/>
      <point x="271" y="344"/>
      <point x="356" y="325"/>
      <point x="431" y="325" type="curve" smooth="yes"/>
      <point x="547" y="325"/>
      <point x="573" y="369"/>
    </contour>
    <component base="asatstem" xOffset="953"/>
  </outline>
</glyph>
<glyph name="vocRR_skt" format="2">
  <advance width="598"/>
  <unicode hex="1053"/>
  <note>
vocRR_skt
</note>
  <outline>
    <contour>
      <point x="302" y="-10" type="line" smooth="yes"/>
      <point x="442" y="-10"/>
      <point x="532" y="69"/>
      <point x="532" y="186" type="curve" smooth="yes"/>
      <point x="532" y="340"/>
      <point x="376" y="344"/>
      <point x="376" y="442" type="curve" smooth="yes"/>
      <point x="376" y="490"/>
      <point x="412" y="504"/>
      <point x="445" y="504" type="curve" smooth="yes"/>
      <point x="486" y="504"/>
      <point x="515" y="481"/>
      <point x="517" y="430" type="curve"/>
      <point x="537" y="430" type="line"/>
      <point x="540" y="498"/>
      <point x="493" y="530"/>
      <point x="444" y="530" type="curve" smooth="yes"/>
      <point x="403" y="530"/>
      <point x="355" y="508"/>
      <point x="355" y="444" type="curve" smooth="yes"/>
      <point x="355" y="329"/>
      <point x="512" y="326"/>
      <point x="512" y="186" type="curve" smooth="yes"/>
      <point x="512" y="84"/>
      <point x="425" y="18"/>
      <point x="299" y="18" type="curve" smooth="yes"/>
      <point x="173" y="18"/>
      <point x="86" y="84"/>
      <point x="86" y="186" type="curve" smooth="yes"/>
      <point x="86" y="326"/>
      <point x="243" y="329"/>
      <point x="243" y="444" type="curve" smooth="yes"/>
      <point x="243" y="508"/>
      <point x="195" y="530"/>
      <point x="154" y="530" type="curve" smooth="yes"/>
      <point x="105" y="530"/>
      <point x="58" y="498"/>
      <point x="61" y="430" type="curve"/>
      <point x="81" y="430" type="line"/>
      <point x="83" y="481"/>
      <point x="112" y="504"/>
      <point x="153" y="504" type="curve" smooth="yes"/>
      <point x="186" y="504"/>
      <point x="222" y="490"/>
      <point x="222" y="442" type="curve" smooth="yes"/>
      <point x="222" y="344"/>
      <point x="66" y="340"/>
      <point x="66" y="186" type="curve" smooth="yes"/>
      <point x="66" y="69"/>
      <point x="156" y="-10"/>
      <point x="296" y="-10" type="curve" smooth="yes"/>
    </contour>
  </outline>
</glyph>
<glyph name="vocLL_skt" format="2">
  <advance width="636"/>
  <unicode hex="1055"/>
  <note>
vocLL_skt
</note>
  <outline>
    <contour>
      <point x="207" y="18" type="curve" smooth="yes"/>
      <point x="134" y="18"/>
      <point x="91" y="72"/>
      <point x="91" y="231" type="curve" smooth="yes"/>
      <point x="91" y="242" type="line" smooth="yes"/>
      <point x="91" y="401"/>
      <point x="176" y="502"/>
      <point x="339" y="502" type="curve" smooth="yes"/>
      <point x="353" y="502" type="line" smooth="yes"/>
      <point x="499" y="502"/>
      <point x="554" y="464"/>
      <point x="554" y="415" type="curve" smooth="yes"/>
      <point x="554" y="382"/>
      <point x="522" y="353"/>
      <point x="449" y="353" type="curve" smooth="yes"/>
      <point x="432" y="353" type="line" smooth="yes"/>
      <point x="381" y="353"/>
      <point x="301" y="363"/>
      <point x="301" y="441" type="curve" smooth="yes"/>
      <point x="301" y="521" type="line"/>
      <point x="281" y="521" type="line"/>
      <point x="281" y="434" type="line" smooth="yes"/>
      <point x="281" y="345"/>
      <point x="365" y="325"/>
      <point x="441" y="325" type="curve" smooth="yes"/>
      <point x="554" y="325"/>
      <point x="577" y="382"/>
      <point x="577" y="418" type="curve" smooth="yes"/>
      <point x="577" y="493"/>
      <point x="495" y="530"/>
      <point x="356" y="530" type="curve" smooth="yes"/>
      <point x="237" y="530"/>
      <point x="157" y="487"/>
      <point x="113" y="413" type="curve" smooth="yes"/>
      <point x="85" y="366"/>
      <point x="71" y="305"/>
      <point x="71" y="235" type="curve" smooth="yes"/>
      <point x="71" y="86"/>
      <point x="104" y="-10"/>
      <point x="204" y="-10" type="curve" smooth="yes"/>
      <point x="276" y="-10"/>
      <point x="322" y="42"/>
      <point x="326" y="116" type="curve"/>
      <point x="330" y="42"/>
      <point x="378" y="-10"/>
      <point x="448" y="-10" type="curve" smooth="yes"/>
      <point x="543" y="-10"/>
      <point x="582" y="90"/>
      <point x="582" y="177" type="curve"/>
      <point x="562" y="177" type="line"/>
      <point x="561" y="68"/>
      <point x="518" y="18"/>
      <point x="449" y="18" type="curve" smooth="yes"/>
      <point x="379" y="18"/>
      <point x="337" y="67"/>
      <point x="337" y="177" type="curve"/>
      <point x="316" y="177" type="line"/>
      <point x="316" y="67"/>
      <point x="274" y="18"/>
    </contour>
  </outline>
</glyph>
<glyph name="_vocR_skt" format="2">
  <advance width="355"/>
  <unicode hex="1056"/>
  <note>
_vocR_skt
</note>
  <outline>
    <contour>
      <point x="59" y="-10" type="line" smooth="yes"/>
      <point x="199" y="-10"/>
      <point x="289" y="69"/>
      <point x="289" y="186" type="curve" smooth="yes"/>
      <point x="289" y="340"/>
      <point x="133" y="344"/>
      <point x="133" y="442" type="curve" smooth="yes"/>
      <point x="133" y="490"/>
      <point x="169" y="504"/>
      <point x="202" y="504" type="curve" smooth="yes"/>
      <point x="243" y="504"/>
      <point x="272" y="481"/>
      <point x="274" y="430" type="curve"/>
      <point x="294" y="430" type="line"/>
      <point x="297" y="498"/>
      <point x="250" y="530"/>
      <point x="201" y="530" type="curve" smooth="yes"/>
      <point x="160" y="530"/>
      <point x="112" y="508"/>
      <point x="112" y="444" type="curve" smooth="yes"/>
      <point x="112" y="329"/>
      <point x="269" y="326"/>
      <point x="269" y="186" type="curve" smooth="yes"/>
      <point x="269" y="84"/>
      <point x="182" y="18"/>
      <point x="56" y="18" type="curve" smooth="yes"/>
      <point x="-27" y="18"/>
      <point x="-89" y="44"/>
      <point x="-128" y="92" type="curve"/>
      <point x="-141" y="71" type="line"/>
      <point x="-104" y="24"/>
      <point x="-38" y="-10"/>
      <point x="50" y="-10" type="curve" smooth="yes"/>
    </contour>
  </outline>
</glyph>
<glyph name="_vocRR_skt" format="2">
  <advance width="411"/>
  <unicode hex="1057"/>
  <note>
_vocRR_skt
</note>
  <outline>
    <contour>
      <point x="-125" y="98" type="curve"/>
      <point x="-139" y="74" type="line"/>
      <point x="-119" y="21"/>
      <point x="-84" y="-10"/>
      <point x="-28" y="-10" type="curve" smooth="yes"/>
      <point x="44" y="-10"/>
      <point x="90" y="42"/>
      <point x="94" y="116" type="curve"/>
      <point x="98" y="42"/>
      <point x="147" y="-10"/>
      <point x="216" y="-10" type="curve" smooth="yes"/>
      <point x="298" y="-10"/>
      <point x="350" y="65"/>
      <point x="350" y="167" type="curve" smooth="yes"/>
      <point x="350" y="348"/>
      <point x="182" y="342"/>
      <point x="182" y="443" type="curve" smooth="yes"/>
      <point x="182" y="489"/>
      <point x="219" y="504"/>
      <point x="252" y="504" type="curve" smooth="yes"/>
      <point x="293" y="504"/>
      <point x="322" y="481"/>
      <point x="324" y="430" type="curve"/>
      <point x="344" y="430" type="line"/>
      <point x="347" y="498"/>
      <point x="299" y="530"/>
      <point x="252" y="530" type="curve" smooth="yes"/>
      <point x="209" y="530"/>
      <point x="161" y="507"/>
      <point x="161" y="445" type="curve" smooth="yes"/>
      <point x="161" y="327"/>
      <point x="330" y="333"/>
      <point x="329" y="167" type="curve" smooth="yes"/>
      <point x="328" y="68"/>
      <point x="286" y="18"/>
      <point x="217" y="18" type="curve" smooth="yes"/>
      <point x="147" y="18"/>
      <point x="105" y="67"/>
      <point x="105" y="177" type="curve"/>
      <point x="84" y="177" type="line"/>
      <point x="84" y="67"/>
      <point x="42" y="18"/>
      <point x="-25" y="18" type="curve" smooth="yes"/>
      <point x="-72" y="18"/>
      <point x="-106" y="40"/>
    </contour>
  </outline>
</glyph>
<glyph name="_vocLL_skt" format="2">
  <unicode hex="1059"/>
  <outline>
    <contour>
      <point x="-112" y="-376" type="curve"/>
      <point x="-132" y="-376" type="line"/>
      <point x="-133" y="-463"/>
      <point x="-168" y="-502"/>
      <point x="-224" y="-502" type="curve" smooth="yes"/>
      <point x="-282" y="-502"/>
      <point x="-316" y="-464"/>
      <point x="-316" y="-376" type="curve"/>
      <point x="-338" y="-376" type="line"/>
      <point x="-338" y="-464"/>
      <point x="-372" y="-502"/>
      <point x="-428" y="-502" type="curve" smooth="yes"/>
      <point x="-487" y="-502"/>
      <point x="-522" y="-461"/>
      <point x="-522" y="-335" type="curve" smooth="yes"/>
      <point x="-522" y="-309" type="line" smooth="yes"/>
      <point x="-522" y="-188"/>
      <point x="-454" y="-113"/>
      <point x="-317" y="-113" type="curve" smooth="yes"/>
      <point x="-306" y="-113" type="line" smooth="yes"/>
      <point x="-184" y="-113"/>
      <point x="-136" y="-139"/>
      <point x="-136" y="-177" type="curve" smooth="yes"/>
      <point x="-136" y="-209"/>
      <point x="-162" y="-229"/>
      <point x="-232" y="-229" type="curve" smooth="yes"/>
      <point x="-246" y="-229" type="line" smooth="yes"/>
      <point x="-288" y="-229"/>
      <point x="-354" y="-221"/>
      <point x="-354" y="-158" type="curve" smooth="yes"/>
      <point x="-354" y="-92" type="line"/>
      <point x="-374" y="-92" type="line"/>
      <point x="-374" y="-164" type="line" smooth="yes"/>
      <point x="-374" y="-241"/>
      <point x="-304" y="-257"/>
      <point x="-239" y="-257" type="curve" smooth="yes"/>
      <point x="-135" y="-257"/>
      <point x="-116" y="-212"/>
      <point x="-116" y="-177" type="curve" smooth="yes"/>
      <point x="-116" y="-140"/>
      <point x="-139" y="-85"/>
      <point x="-300" y="-85" type="curve" smooth="yes"/>
      <point x="-325" y="-85" type="line" smooth="yes"/>
      <point x="-407" y="-85"/>
      <point x="-463" y="-114"/>
      <point x="-497" y="-156" type="curve" smooth="yes"/>
      <point x="-528" y="-193"/>
      <point x="-542" y="-243"/>
      <point x="-542" y="-322" type="curve" smooth="yes"/>
      <point x="-542" y="-465"/>
      <point x="-508" y="-530"/>
      <point x="-430" y="-530" type="curve" smooth="yes"/>
      <point x="-370" y="-530"/>
      <point x="-331" y="-487"/>
      <point x="-328" y="-430" type="curve"/>
      <point x="-324" y="-487"/>
      <point x="-284" y="-530"/>
      <point x="-225" y="-530" type="curve" smooth="yes"/>
      <point x="-145" y="-530"/>
      <point x="-112" y="-448"/>
    </contour>
  </outline>
</glyph>
<glyph name="jha_mon" format="2">
  <advance width="832"/>
  <unicode hex="105B"/>
  <note>
Unlikely to ever take marks below.
</note>
  <outline>
    <contour>
      <point x="462" y="-356" type="line" smooth="yes"/>
      <point x="462" y="-468"/>
      <point x="508" y="-530"/>
      <point x="609" y="-530" type="curve" smooth="yes"/>
      <point x="710" y="-530"/>
      <point x="756" y="-468"/>
      <point x="756" y="-356" type="curve" smooth="yes"/>
      <point x="756" y="520" type="line"/>
      <point x="734" y="520" type="line"/>
      <point x="734" y="-350" type="line" smooth="yes"/>
      <point x="734" y="-458"/>
      <point x="695" y="-502"/>
      <point x="609" y="-502" type="curve" smooth="yes"/>
      <point x="523" y="-502"/>
      <point x="484" y="-458"/>
      <point x="484" y="-350" type="curve" smooth="yes"/>
      <point x="484" y="40" type="line"/>
      <point x="446" y="19" type="line"/>
      <point x="318" y="-372" type="line" smooth="yes"/>
      <point x="281" y="-485"/>
      <point x="249" y="-506"/>
      <point x="210" y="-501" type="curve"/>
      <point x="198" y="-500"/>
      <point x="186" y="-497"/>
      <point x="171" y="-490" type="curve"/>
      <point x="162" y="-515" type="line"/>
      <point x="174" y="-521"/>
      <point x="192" y="-527"/>
      <point x="207" y="-529" type="curve" smooth="yes"/>
      <point x="253" y="-535"/>
      <point x="299" y="-503"/>
      <point x="338" y="-384" type="curve" smooth="yes"/>
      <point x="421" y="-131" type="line" smooth="yes"/>
      <point x="437" y="-83"/>
      <point x="449" y="-39"/>
      <point x="462" y="16" type="curve"/>
      <point x="466" y="16" type="line"/>
      <point x="462" y="-34"/>
      <point x="462" y="-84"/>
      <point x="462" y="-134" type="curve" smooth="yes"/>
    </contour>
    <component base="ja"/>
  </outline>
</glyph>
<glyph name="bbe_mon" format="2">
  <advance width="658"/>
  <unicode hex="105D"/>
  <outline>
    <contour>
      <point x="484" y="45" type="line"/>
      <point x="462" y="32" type="line"/>
      <point x="462" y="-324" type="line" smooth="yes"/>
      <point x="462" y="-410"/>
      <point x="449" y="-445"/>
      <point x="424" y="-467" type="curve" smooth="yes"/>
      <point x="392" y="-495"/>
      <point x="342" y="-502"/>
      <point x="274" y="-502" type="curve" smooth="yes"/>
      <point x="164" y="-502"/>
      <point x="92" y="-483"/>
      <point x="92" y="-398" type="curve" smooth="yes"/>
      <point x="92" y="-337"/>
      <point x="133" y="-295"/>
      <point x="208" y="-295" type="curve" smooth="yes"/>
      <point x="289" y="-295"/>
      <point x="327" y="-337"/>
      <point x="330" y="-384" type="curve"/>
      <point x="356" y="-384" type="line"/>
      <point x="352" y="-323"/>
      <point x="298" y="-274"/>
      <point x="207" y="-274" type="curve" smooth="yes"/>
      <point x="111" y="-274"/>
      <point x="71" y="-338"/>
      <point x="71" y="-400" type="curve" smooth="yes"/>
      <point x="71" y="-443"/>
      <point x="88" y="-477"/>
      <point x="115" y="-496" type="curve" smooth="yes"/>
      <point x="151" y="-525"/>
      <point x="210" y="-529"/>
      <point x="274" y="-529" type="curve" smooth="yes"/>
      <point x="353" y="-529"/>
      <point x="403" y="-522"/>
      <point x="438" y="-490" type="curve" smooth="yes"/>
      <point x="466" y="-465"/>
      <point x="484" y="-427"/>
      <point x="484" y="-329" type="curve" smooth="yes"/>
    </contour>
    <component base="ma"/>
  </outline>
</glyph>
<glyph name="_medialNa_mon" format="2">
  <unicode hex="105E"/>
  <outline>
    <contour>
      <point x="-174" y="41" type="line"/>
      <point x="-196" y="41" type="line"/>
      <point x="-196" y="-426" type="line" smooth="yes"/>
      <point x="-196" y="-485"/>
      <point x="-227" y="-502"/>
      <point x="-292" y="-502" type="curve" smooth="yes"/>
      <point x="-376" y="-502"/>
      <point x="-507" y="-431"/>
      <point x="-507" y="-338" type="curve" smooth="yes"/>
      <point x="-507" y="-264"/>
      <point x="-401" y="-234"/>
      <point x="-272" y="-234" type="curve" smooth="yes"/>
      <point x="-179" y="-234"/>
      <point x="-83" y="-259"/>
      <point x="-23" y="-284" type="curve"/>
      <point x="-14" y="-254" type="line"/>
      <point x="-85" y="-227"/>
      <point x="-171" y="-206"/>
      <point x="-274" y="-206" type="curve" smooth="yes"/>
      <point x="-436" y="-206"/>
      <point x="-529" y="-251"/>
      <point x="-529" y="-335" type="curve" smooth="yes"/>
      <point x="-529" y="-444"/>
      <point x="-393" y="-530"/>
      <point x="-286" y="-530" type="curve" smooth="yes"/>
      <point x="-210" y="-530"/>
      <point x="-174" y="-495"/>
      <point x="-174" y="-432" type="curve" smooth="yes"/>
    </contour>
  </outline>
</glyph>
<glyph name="_medialMa_mon" format="2">
  <unicode hex="105F"/>
  <outline>
    <contour>
      <point x="-174" y="45" type="line"/>
      <point x="-196" y="32" type="line"/>
      <point x="-196" y="-224" type="line"/>
      <point x="-423" y="-211"/>
      <point x="-547" y="-258"/>
      <point x="-547" y="-381" type="curve" smooth="yes"/>
      <point x="-547" y="-482"/>
      <point x="-447" y="-530"/>
      <point x="-311" y="-530" type="curve" smooth="yes"/>
      <point x="-209" y="-530"/>
      <point x="-130" y="-508"/>
      <point x="-60" y="-469" type="curve"/>
      <point x="-70" y="-448" type="line"/>
      <point x="-139" y="-491"/>
      <point x="-234" y="-502"/>
      <point x="-311" y="-502" type="curve" smooth="yes"/>
      <point x="-417" y="-502"/>
      <point x="-527" y="-470"/>
      <point x="-527" y="-380" type="curve" smooth="yes"/>
      <point x="-527" y="-276"/>
      <point x="-404" y="-238"/>
      <point x="-174" y="-251" type="curve"/>
    </contour>
  </outline>
</glyph>
<glyph name="_medialLa_mon" format="2">
  <unicode hex="1060"/>
  <outline>
    <contour>
      <point x="-213" y="27" type="curve"/>
      <point x="-242" y="16" type="line"/>
      <point x="-323" y="-132"/>
      <point x="-434" y="-253"/>
      <point x="-561" y="-383" type="curve"/>
      <point x="-545" y="-466"/>
      <point x="-455" y="-530"/>
      <point x="-304" y="-530" type="curve" smooth="yes"/>
      <point x="-187" y="-530"/>
      <point x="-93" y="-492"/>
      <point x="-70" y="-385" type="curve"/>
      <point x="-87" y="-383" type="line"/>
      <point x="-116" y="-472"/>
      <point x="-193" y="-502"/>
      <point x="-304" y="-502" type="curve" smooth="yes"/>
      <point x="-412" y="-502"/>
      <point x="-508" y="-474"/>
      <point x="-537" y="-388" type="curve"/>
      <point x="-410" y="-256"/>
      <point x="-297" y="-133"/>
    </contour>
  </outline>
</glyph>
<glyph name="sha_skn" format="2">
  <advance width="663"/>
  <unicode hex="1061"/>
  <note>
Sgaw Karen does not use subjoined consonants.
</note>
  <outline>
    <contour>
      <point x="405" y="48" type="line"/>
      <point x="405" y="-343" type="line" smooth="yes"/>
      <point x="405" y="-485"/>
      <point x="370" y="-502"/>
      <point x="320" y="-502" type="curve" smooth="yes"/>
      <point x="300" y="-502" type="line"/>
      <point x="300" y="-529" type="line"/>
      <point x="310" y="-530"/>
      <point x="320" y="-530"/>
      <point x="325" y="-530" type="curve" smooth="yes"/>
      <point x="382" y="-530"/>
      <point x="427" y="-496"/>
      <point x="427" y="-349" type="curve" smooth="yes"/>
      <point x="427" y="93" type="line"/>
    </contour>
    <component base="ra.alt"/>
  </outline>
</glyph>
<glyph name="eu_skn" format="2">
  <advance width="569"/>
  <unicode hex="1062"/>
  <note>
Used in Sgaw, Khamti, Shan.
</note>
  <outline>
    <contour>
      <point x="493" y="0" type="line"/>
      <point x="493" y="387" type="line" smooth="yes"/>
      <point x="493" y="516"/>
      <point x="405" y="530"/>
      <point x="275" y="530" type="curve" smooth="yes"/>
      <point x="145" y="530"/>
      <point x="76" y="507"/>
      <point x="76" y="414" type="curve" smooth="yes"/>
      <point x="76" y="411"/>
      <point x="76" y="405"/>
      <point x="77" y="398" type="curve"/>
      <point x="97" y="398" type="line"/>
      <point x="99" y="498"/>
      <point x="155" y="502"/>
      <point x="277" y="502" type="curve" smooth="yes"/>
      <point x="395" y="502"/>
      <point x="471" y="498"/>
      <point x="471" y="379" type="curve" smooth="yes"/>
      <point x="471" y="0" type="line"/>
    </contour>
  </outline>
</glyph>
<glyph name="kepho_skn" format="2">
  <advance width="516"/>
  <unicode hex="1064"/>
  <outline>
    <contour>
      <point x="157" y="530" type="curve" smooth="yes"/>
      <point x="128" y="530"/>
      <point x="104" y="528"/>
      <point x="76" y="522" type="curve"/>
      <point x="76" y="502" type="line"/>
      <point x="154" y="502" type="line" smooth="yes"/>
      <point x="217" y="502"/>
      <point x="247" y="475"/>
      <point x="247" y="395" type="curve" smooth="yes"/>
      <point x="247" y="122" type="line" smooth="yes"/>
      <point x="247" y="36"/>
      <point x="279" y="-10"/>
      <point x="359" y="-10" type="curve" smooth="yes"/>
      <point x="388" y="-10"/>
      <point x="412" y="-8"/>
      <point x="440" y="-2" type="curve"/>
      <point x="440" y="18" type="line"/>
      <point x="362" y="18" type="line" smooth="yes"/>
      <point x="299" y="18"/>
      <point x="269" y="45"/>
      <point x="269" y="125" type="curve" smooth="yes"/>
      <point x="269" y="398" type="line" smooth="yes"/>
      <point x="269" y="484"/>
      <point x="237" y="530"/>
    </contour>
  </outline>
</glyph>
<glyph name="pwa_wpk" format="2">
  <advance width="658"/>
  <unicode hex="1066"/>
  <outline>
    <contour>
      <point x="587" y="-374" type="curve" smooth="yes"/>
      <point x="587" y="260" type="line"/>
      <point x="565" y="165" type="line"/>
      <point x="565" y="-353" type="line" smooth="yes"/>
      <point x="565" y="-465"/>
      <point x="511" y="-502"/>
      <point x="436" y="-502" type="curve" smooth="yes"/>
      <point x="361" y="-502"/>
      <point x="306" y="-464"/>
      <point x="306" y="-366" type="curve"/>
      <point x="287" y="-366" type="line"/>
      <point x="286" y="-371"/>
      <point x="286" y="-376"/>
      <point x="286" y="-381" type="curve" smooth="yes"/>
      <point x="286" y="-469"/>
      <point x="350" y="-530"/>
      <point x="437" y="-530" type="curve" smooth="yes"/>
      <point x="524" y="-530"/>
      <point x="587" y="-469"/>
    </contour>
    <component base="pa"/>
  </outline>
</glyph>
<glyph name="eu_wpk" format="2">
  <advance width="405"/>
  <unicode hex="1067"/>
  <outline>
    <contour>
      <point x="329" y="520" type="line"/>
      <point x="307" y="520" type="line"/>
      <point x="307" y="181" type="line"/>
      <point x="326" y="125" type="line"/>
      <point x="326" y="201"/>
      <point x="280" y="258"/>
      <point x="193" y="258" type="curve" smooth="yes"/>
      <point x="102" y="258"/>
      <point x="58" y="202"/>
      <point x="58" y="125" type="curve" smooth="yes"/>
      <point x="58" y="44"/>
      <point x="106" y="-10"/>
      <point x="194" y="-10" type="curve" smooth="yes"/>
      <point x="288" y="-10"/>
      <point x="329" y="52"/>
      <point x="329" y="122" type="curve" smooth="yes"/>
    </contour>
    <contour>
      <point x="196" y="18" type="curve" smooth="yes"/>
      <point x="117" y="18"/>
      <point x="80" y="64"/>
      <point x="80" y="125" type="curve" smooth="yes"/>
      <point x="80" y="186"/>
      <point x="117" y="232"/>
      <point x="194" y="232" type="curve" smooth="yes"/>
      <point x="271" y="232"/>
      <point x="307" y="183"/>
      <point x="307" y="122" type="curve" smooth="yes"/>
      <point x="307" y="61"/>
      <point x="271" y="18"/>
    </contour>
  </outline>
</glyph>
<glyph name="tone1_wpk" format="2">
  <advance width="387"/>
  <unicode hex="1069"/>
  <outline>
    <contour>
      <point x="326" y="144" type="curve"/>
      <point x="306" y="144" type="line"/>
      <point x="306" y="125" type="line" smooth="yes"/>
      <point x="306" y="57"/>
      <point x="260" y="18"/>
      <point x="194" y="18" type="curve" smooth="yes"/>
      <point x="119" y="18"/>
      <point x="79" y="58"/>
      <point x="79" y="111" type="curve" smooth="yes"/>
      <point x="79" y="179"/>
      <point x="131" y="209"/>
      <point x="199" y="250" type="curve" smooth="yes"/>
      <point x="280" y="299"/>
      <point x="329" y="330"/>
      <point x="329" y="409" type="curve" smooth="yes"/>
      <point x="329" y="473"/>
      <point x="290" y="530"/>
      <point x="193" y="530" type="curve" smooth="yes"/>
      <point x="107" y="530"/>
      <point x="59" y="476"/>
      <point x="59" y="400" type="curve" smooth="yes"/>
      <point x="59" y="388"/>
      <point x="60" y="381"/>
      <point x="61" y="376" type="curve"/>
      <point x="81" y="376" type="line"/>
      <point x="81" y="395" type="line" smooth="yes"/>
      <point x="81" y="463"/>
      <point x="127" y="502"/>
      <point x="193" y="502" type="curve" smooth="yes"/>
      <point x="268" y="502"/>
      <point x="308" y="462"/>
      <point x="308" y="409" type="curve" smooth="yes"/>
      <point x="308" y="341"/>
      <point x="259" y="313"/>
      <point x="188" y="270" type="curve" smooth="yes"/>
      <point x="107" y="221"/>
      <point x="58" y="190"/>
      <point x="58" y="111" type="curve" smooth="yes"/>
      <point x="58" y="47"/>
      <point x="97" y="-10"/>
      <point x="194" y="-10" type="curve" smooth="yes"/>
      <point x="280" y="-10"/>
      <point x="328" y="44"/>
      <point x="328" y="120" type="curve" smooth="yes"/>
      <point x="328" y="132"/>
      <point x="327" y="139"/>
    </contour>
  </outline>
</glyph>
<glyph name="tone3_wpk" format="2">
  <advance width="420"/>
  <unicode hex="106B"/>
  <outline>
    <contour>
      <point x="344" y="0" type="line"/>
      <point x="344" y="378" type="line" smooth="yes"/>
      <point x="344" y="484"/>
      <point x="289" y="530"/>
      <point x="211" y="530" type="curve" smooth="yes"/>
      <point x="122" y="530"/>
      <point x="75" y="469"/>
      <point x="75" y="407" type="curve" smooth="yes"/>
      <point x="75" y="406"/>
      <point x="75" y="405"/>
      <point x="75" y="404" type="curve"/>
      <point x="94" y="404" type="line"/>
      <point x="101" y="465"/>
      <point x="141" y="502"/>
      <point x="210" y="502" type="curve" smooth="yes"/>
      <point x="274" y="502"/>
      <point x="322" y="470"/>
      <point x="322" y="372" type="curve" smooth="yes"/>
      <point x="322" y="0" type="line"/>
    </contour>
  </outline>
</glyph>
<glyph name="tone5_wpk" format="2">
  <advance width="386"/>
  <unicode hex="106D"/>
  <outline>
    <contour>
      <point x="194" y="530" type="curve" smooth="yes"/>
      <point x="97" y="530"/>
      <point x="58" y="468"/>
      <point x="58" y="398" type="curve" smooth="yes"/>
      <point x="58" y="303"/>
      <point x="130" y="280"/>
      <point x="194" y="244" type="curve" smooth="yes"/>
      <point x="253" y="211"/>
      <point x="307" y="182"/>
      <point x="307" y="111" type="curve" smooth="yes"/>
      <point x="307" y="58"/>
      <point x="267" y="18"/>
      <point x="192" y="18" type="curve" smooth="yes"/>
      <point x="126" y="18"/>
      <point x="80" y="57"/>
      <point x="80" y="125" type="curve" smooth="yes"/>
      <point x="80" y="144" type="line"/>
      <point x="60" y="144" type="line"/>
      <point x="59" y="139"/>
      <point x="58" y="132"/>
      <point x="58" y="120" type="curve" smooth="yes"/>
      <point x="58" y="44"/>
      <point x="106" y="-10"/>
      <point x="192" y="-10" type="curve" smooth="yes"/>
      <point x="289" y="-10"/>
      <point x="328" y="47"/>
      <point x="328" y="111" type="curve" smooth="yes"/>
      <point x="328" y="190"/>
      <point x="279" y="221"/>
      <point x="198" y="270" type="curve"/>
      <point x="192" y="263" type="line"/>
      <point x="283" y="263"/>
      <point x="328" y="319"/>
      <point x="328" y="395" type="curve" smooth="yes"/>
      <point x="328" y="476"/>
      <point x="280" y="530"/>
    </contour>
    <contour>
      <point x="192" y="288" type="curve" smooth="yes"/>
      <point x="132" y="288"/>
      <point x="79" y="336"/>
      <point x="79" y="398" type="curve" smooth="yes"/>
      <point x="79" y="457"/>
      <point x="115" y="502"/>
      <point x="192" y="502" type="curve" smooth="yes"/>
      <point x="269" y="502"/>
      <point x="306" y="456"/>
      <point x="306" y="395" type="curve" smooth="yes"/>
      <point x="306" y="334"/>
      <point x="269" y="288"/>
    </contour>
  </outline>
</glyph>
<glyph name="nna_epk" format="2">
  <advance width="1252"/>
  <unicode hex="106E"/>
  <note>
Also used in Thai Mon.
</note>
  <outline>
    <contour>
      <point x="547" y="402" type="line"/>
      <point x="553" y="476"/>
      <point x="584" y="502"/>
      <point x="635" y="502" type="curve" smooth="yes"/>
      <point x="686" y="502"/>
      <point x="718" y="464"/>
      <point x="729" y="372" type="curve" smooth="yes"/>
      <point x="737" y="312"/>
      <point x="737" y="192"/>
      <point x="725" y="129" type="curve" smooth="yes"/>
      <point x="712" y="60"/>
      <point x="681" y="30"/>
      <point x="635" y="19" type="curve" smooth="yes"/>
      <point x="635" y="-10" type="line"/>
      <point x="691" y="1"/>
      <point x="728" y="40"/>
      <point x="744" y="124" type="curve" smooth="yes"/>
      <point x="757" y="192"/>
      <point x="758" y="304"/>
      <point x="750" y="377" type="curve" smooth="yes"/>
      <point x="737" y="488"/>
      <point x="700" y="530"/>
      <point x="635" y="530" type="curve" smooth="yes"/>
      <point x="575" y="530"/>
      <point x="540" y="495"/>
      <point x="529" y="432" type="curve"/>
    </contour>
    <component base="_aa" xOffset="850"/>
    <component base="ga"/>
  </outline>
</glyph>
<glyph name="ywa_epk" format="2">
  <advance width="1060"/>
  <unicode hex="106F"/>
  <outline>
    <contour>
      <point x="565" y="159" type="line"/>
      <point x="565" y="-343" type="line" smooth="yes"/>
      <point x="565" y="-485"/>
      <point x="530" y="-502"/>
      <point x="480" y="-502" type="curve" smooth="yes"/>
      <point x="460" y="-502" type="line"/>
      <point x="460" y="-529" type="line"/>
      <point x="470" y="-530"/>
      <point x="480" y="-530"/>
      <point x="485" y="-530" type="curve" smooth="yes"/>
      <point x="542" y="-530"/>
      <point x="587" y="-496"/>
      <point x="587" y="-349" type="curve" smooth="yes"/>
      <point x="587" y="260" type="line"/>
    </contour>
    <component base="ha"/>
  </outline>
</glyph>
<glyph name="ghwa_epk" format="2">
  <advance width="1027"/>
  <unicode hex="1070"/>
  <outline>
    <contour>
      <point x="486" y="78" type="line"/>
      <point x="486" y="-343" type="line" smooth="yes"/>
      <point x="486" y="-485"/>
      <point x="451" y="-502"/>
      <point x="401" y="-502" type="curve" smooth="yes"/>
      <point x="381" y="-502" type="line"/>
      <point x="381" y="-529" type="line"/>
      <point x="391" y="-530"/>
      <point x="401" y="-530"/>
      <point x="406" y="-530" type="curve" smooth="yes"/>
      <point x="463" y="-530"/>
      <point x="508" y="-496"/>
      <point x="508" y="-349" type="curve" smooth="yes"/>
      <point x="508" y="78" type="line"/>
    </contour>
    <component base="gha"/>
  </outline>
</glyph>
<glyph name="u_kyh" format="2">
  <unicode hex="1073"/>
  <outline>
    <contour>
      <point x="-158" y="631" type="line"/>
      <point x="-127" y="643" type="line"/>
      <point x="-318" y="862" type="line"/>
      <point x="-340" y="862" type="line"/>
      <point x="-531" y="643" type="line"/>
      <point x="-500" y="631" type="line"/>
      <point x="-329" y="842" type="line"/>
    </contour>
  </outline>
</glyph>
<glyph name="kha_shn" format="2">
  <advance width="658"/>
  <unicode hex="1076"/>
  <outline>
    <contour>
      <point x="123" y="530" type="curve"/>
      <point x="101" y="530" type="line"/>
      <point x="93" y="512"/>
      <point x="92" y="497"/>
      <point x="92" y="482" type="curve" smooth="yes"/>
      <point x="92" y="432"/>
      <point x="122" y="401"/>
      <point x="174" y="401" type="curve" smooth="yes"/>
      <point x="263" y="401"/>
      <point x="279" y="502"/>
      <point x="393" y="502" type="curve" smooth="yes"/>
      <point x="491" y="502"/>
      <point x="567" y="417"/>
      <point x="567" y="268" type="curve" smooth="yes"/>
      <point x="567" y="252" type="line" smooth="yes"/>
      <point x="567" y="108"/>
      <point x="484" y="18"/>
      <point x="325" y="18" type="curve" smooth="yes"/>
      <point x="312" y="18" type="line" smooth="yes"/>
      <point x="161" y="18"/>
      <point x="104" y="52"/>
      <point x="104" y="102" type="curve" smooth="yes"/>
      <point x="104" y="142"/>
      <point x="135" y="167"/>
      <point x="219" y="167" type="curve" smooth="yes"/>
      <point x="236" y="167" type="line" smooth="yes"/>
      <point x="287" y="167"/>
      <point x="367" y="157"/>
      <point x="367" y="79" type="curve" smooth="yes"/>
      <point x="367" y="-1" type="line"/>
      <point x="387" y="-1" type="line"/>
      <point x="387" y="86" type="line" smooth="yes"/>
      <point x="387" y="176"/>
      <point x="303" y="195"/>
      <point x="227" y="195" type="curve" smooth="yes"/>
      <point x="102" y="195"/>
      <point x="81" y="142"/>
      <point x="81" y="102" type="curve" smooth="yes"/>
      <point x="81" y="57"/>
      <point x="109" y="-10"/>
      <point x="305" y="-10" type="curve" smooth="yes"/>
      <point x="319" y="-10" type="line" smooth="yes"/>
      <point x="418" y="-10"/>
      <point x="490" y="21"/>
      <point x="534" y="78" type="curve" smooth="yes"/>
      <point x="569" y="124"/>
      <point x="587" y="185"/>
      <point x="587" y="260" type="curve" smooth="yes"/>
      <point x="587" y="431"/>
      <point x="501" y="530"/>
      <point x="392" y="530" type="curve" smooth="yes"/>
      <point x="273" y="530"/>
      <point x="255" y="427"/>
      <point x="173" y="427" type="curve" smooth="yes"/>
      <point x="124" y="427"/>
      <point x="99" y="471"/>
    </contour>
  </outline>
</glyph>
<glyph name="ga_shn" format="2">
  <advance width="625"/>
  <unicode hex="1077"/>
  <note>
ga_shn
</note>
  <outline>
    <contour>
      <point x="296" y="530" type="line" smooth="yes"/>
      <point x="156" y="530"/>
      <point x="66" y="451"/>
      <point x="66" y="334" type="curve" smooth="yes"/>
      <point x="66" y="180"/>
      <point x="222" y="176"/>
      <point x="222" y="78" type="curve" smooth="yes"/>
      <point x="222" y="30"/>
      <point x="186" y="16"/>
      <point x="153" y="16" type="curve" smooth="yes"/>
      <point x="112" y="16"/>
      <point x="83" y="39"/>
      <point x="81" y="90" type="curve"/>
      <point x="61" y="90" type="line"/>
      <point x="58" y="22"/>
      <point x="105" y="-10"/>
      <point x="154" y="-10" type="curve" smooth="yes"/>
      <point x="195" y="-10"/>
      <point x="243" y="12"/>
      <point x="243" y="76" type="curve" smooth="yes"/>
      <point x="243" y="191"/>
      <point x="86" y="194"/>
      <point x="86" y="334" type="curve" smooth="yes"/>
      <point x="86" y="436"/>
      <point x="173" y="502"/>
      <point x="299" y="502" type="curve" smooth="yes"/>
      <point x="452" y="502"/>
      <point x="534" y="412"/>
      <point x="534" y="268" type="curve" smooth="yes"/>
      <point x="534" y="252" type="line" smooth="yes"/>
      <point x="534" y="148"/>
      <point x="478" y="19"/>
      <point x="405" y="19" type="curve" smooth="yes"/>
      <point x="354" y="19"/>
      <point x="343" y="78"/>
      <point x="343" y="145" type="curve" smooth="yes"/>
      <point x="343" y="281"/>
      <point x="414" y="379"/>
      <point x="505" y="409" type="curve"/>
      <point x="505" y="435" type="line"/>
      <point x="395" y="393"/>
      <point x="323" y="293"/>
      <point x="323" y="142" type="curve" smooth="yes"/>
      <point x="323" y="57"/>
      <point x="341" y="-9"/>
      <point x="401" y="-9" type="curve" smooth="yes"/>
      <point x="489" y="-9"/>
      <point x="554" y="132"/>
      <point x="554" y="260" type="curve" smooth="yes"/>
      <point x="554" y="341"/>
      <point x="537" y="399"/>
      <point x="501" y="444" type="curve" smooth="yes"/>
      <point x="460" y="496"/>
      <point x="394" y="530"/>
      <point x="306" y="530" type="curve" smooth="yes"/>
    </contour>
  </outline>
</glyph>
<glyph name="na_shn" format="2">
  <advance width="1082"/>
  <unicode hex="107C"/>
  <note>
na_shn
</note>
  <outline>
    <contour>
      <point x="1002" y="354" type="line"/>
      <point x="983" y="464"/>
      <point x="901" y="529"/>
      <point x="790" y="529" type="curve" smooth="yes"/>
      <point x="640" y="529"/>
      <point x="572" y="417"/>
      <point x="572" y="261" type="curve" smooth="yes"/>
      <point x="572" y="80"/>
      <point x="660" y="-9"/>
      <point x="805" y="-9" type="curve" smooth="yes"/>
      <point x="937" y="-9"/>
      <point x="968" y="65"/>
      <point x="968" y="122" type="curve" smooth="yes"/>
      <point x="968" y="183"/>
      <point x="932" y="227"/>
      <point x="842" y="246" type="curve" smooth="yes"/>
      <point x="779" y="259"/>
      <point x="655" y="268"/>
      <point x="541" y="268" type="curve" smooth="yes"/>
      <point x="428" y="268"/>
      <point x="303" y="259"/>
      <point x="240" y="246" type="curve" smooth="yes"/>
      <point x="150" y="227"/>
      <point x="109" y="184"/>
      <point x="109" y="123" type="curve" smooth="yes"/>
      <point x="109" y="66"/>
      <point x="145" y="-9"/>
      <point x="277" y="-9" type="curve" smooth="yes"/>
      <point x="422" y="-9"/>
      <point x="510" y="80"/>
      <point x="510" y="261" type="curve" smooth="yes"/>
      <point x="510" y="417"/>
      <point x="442" y="529"/>
      <point x="292" y="529" type="curve" smooth="yes"/>
      <point x="181" y="529"/>
      <point x="99" y="464"/>
      <point x="80" y="354" type="curve"/>
      <point x="102" y="354" type="line"/>
      <point x="120" y="448"/>
      <point x="193" y="501"/>
      <point x="292" y="501" type="curve" smooth="yes"/>
      <point x="420" y="501"/>
      <point x="490" y="417"/>
      <point x="490" y="270" type="curve" smooth="yes"/>
      <point x="490" y="250" type="line" smooth="yes"/>
      <point x="490" y="106"/>
      <point x="411" y="19"/>
      <point x="278" y="19" type="curve" smooth="yes"/>
      <point x="186" y="19"/>
      <point x="132" y="62"/>
      <point x="132" y="123" type="curve" smooth="yes"/>
      <point x="132" y="176"/>
      <point x="175" y="208"/>
      <point x="248" y="223" type="curve" smooth="yes"/>
      <point x="302" y="234"/>
      <point x="414" y="242"/>
      <point x="541" y="242" type="curve" smooth="yes"/>
      <point x="669" y="242"/>
      <point x="780" y="234"/>
      <point x="834" y="223" type="curve" smooth="yes"/>
      <point x="907" y="208"/>
      <point x="945" y="175"/>
      <point x="945" y="122" type="curve" smooth="yes"/>
      <point x="945" y="61"/>
      <point x="896" y="19"/>
      <point x="804" y="19" type="curve" smooth="yes"/>
      <point x="671" y="19"/>
      <point x="592" y="106"/>
      <point x="592" y="250" type="curve" smooth="yes"/>
      <point x="592" y="270" type="line" smooth="yes"/>
      <point x="592" y="417"/>
      <point x="662" y="501"/>
      <point x="790" y="501" type="curve" smooth="yes"/>
      <point x="889" y="501"/>
      <point x="962" y="448"/>
      <point x="980" y="354" type="curve"/>
    </contour>
  </outline>
</glyph>
<glyph name="tha_shn" format="2">
  <advance width="1060"/>
  <unicode hex="1080"/>
  <note>
tha_shn
</note>
  <outline>
    <contour>
      <point x="80" y="354" type="curve"/>
      <point x="102" y="354" type="line"/>
      <point x="126" y="446"/>
      <point x="207" y="502"/>
      <point x="329" y="502" type="curve" smooth="yes"/>
      <point x="485" y="502"/>
      <point x="567" y="411"/>
      <point x="567" y="268" type="curve" smooth="yes"/>
      <point x="567" y="252" type="line" smooth="yes"/>
      <point x="567" y="108"/>
      <point x="484" y="18"/>
      <point x="325" y="18" type="curve" smooth="yes"/>
      <point x="312" y="18" type="line" smooth="yes"/>
      <point x="161" y="18"/>
      <point x="104" y="52"/>
      <point x="104" y="102" type="curve" smooth="yes"/>
      <point x="104" y="142"/>
      <point x="135" y="167"/>
      <point x="219" y="167" type="curve" smooth="yes"/>
      <point x="236" y="167" type="line" smooth="yes"/>
      <point x="287" y="167"/>
      <point x="367" y="157"/>
      <point x="367" y="79" type="curve" smooth="yes"/>
      <point x="367" y="-1" type="line"/>
      <point x="387" y="-1" type="line"/>
      <point x="387" y="86" type="line" smooth="yes"/>
      <point x="387" y="176"/>
      <point x="303" y="195"/>
      <point x="227" y="195" type="curve" smooth="yes"/>
      <point x="102" y="195"/>
      <point x="81" y="142"/>
      <point x="81" y="102" type="curve" smooth="yes"/>
      <point x="81" y="57"/>
      <point x="109" y="-10"/>
      <point x="305" y="-10" type="curve" smooth="yes"/>
      <point x="319" y="-10" type="line" smooth="yes"/>
      <point x="418" y="-10"/>
      <point x="490" y="21"/>
      <point x="534" y="78" type="curve" smooth="yes"/>
      <point x="569" y="124"/>
      <point x="587" y="185"/>
      <point x="587" y="260" type="curve" smooth="yes"/>
      <point x="587" y="337"/>
      <point x="568" y="399"/>
      <point x="534" y="445" type="curve" smooth="yes"/>
      <point x="491" y="500"/>
      <point x="425" y="530"/>
      <point x="339" y="530" type="curve" smooth="yes"/>
      <point x="319" y="530" type="line" smooth="yes"/>
      <point x="196" y="530"/>
      <point x="105" y="465"/>
    </contour>
    <contour>
      <point x="523" y="81" type="line"/>
      <point x="566" y="17"/>
      <point x="645" y="-10"/>
      <point x="721" y="-10" type="curve" smooth="yes"/>
      <point x="741" y="-10" type="line" smooth="yes"/>
      <point x="829" y="-10"/>
      <point x="895" y="24"/>
      <point x="936" y="76" type="curve" smooth="yes"/>
      <point x="972" y="121"/>
      <point x="989" y="179"/>
      <point x="989" y="260" type="curve" smooth="yes"/>
      <point x="989" y="341"/>
      <point x="972" y="399"/>
      <point x="936" y="444" type="curve" smooth="yes"/>
      <point x="895" y="496"/>
      <point x="829" y="530"/>
      <point x="734" y="530" type="curve" smooth="yes"/>
      <point x="714" y="530"/>
      <point x="695" y="529"/>
      <point x="675" y="526" type="curve"/>
      <point x="675" y="502" type="line"/>
      <point x="730" y="502" type="line" smooth="yes"/>
      <point x="887" y="502"/>
      <point x="969" y="412"/>
      <point x="969" y="268" type="curve" smooth="yes"/>
      <point x="969" y="252" type="line" smooth="yes"/>
      <point x="969" y="109"/>
      <point x="887" y="18"/>
      <point x="731" y="18" type="curve" smooth="yes"/>
      <point x="642" y="18"/>
      <point x="577" y="48"/>
      <point x="538" y="100" type="curve"/>
    </contour>
  </outline>
</glyph>
<glyph name="ha_shn" format="2">
  <advance width="658"/>
  <unicode hex="1081"/>
  <outline>
    <contour>
      <point x="571" y="170" type="line"/>
      <point x="580" y="196"/>
      <point x="587" y="229"/>
      <point x="587" y="273" type="curve" smooth="yes"/>
      <point x="587" y="341"/>
      <point x="570" y="399"/>
      <point x="534" y="444" type="curve" smooth="yes"/>
      <point x="493" y="496"/>
      <point x="427" y="530"/>
      <point x="339" y="530" type="curve" smooth="yes"/>
      <point x="319" y="530" type="line" smooth="yes"/>
      <point x="231" y="530"/>
      <point x="165" y="496"/>
      <point x="123" y="443" type="curve" smooth="yes"/>
      <point x="88" y="398"/>
      <point x="71" y="341"/>
      <point x="71" y="260" type="curve" smooth="yes"/>
      <point x="71" y="178"/>
      <point x="93" y="117"/>
      <point x="128" y="70" type="curve" smooth="yes"/>
      <point x="161" y="25"/>
      <point x="217" y="-10"/>
      <point x="273" y="-10" type="curve" smooth="yes"/>
      <point x="304" y="-10"/>
      <point x="329" y="-1"/>
      <point x="348" y="13" type="curve"/>
      <point x="342" y="18" type="line"/>
      <point x="214" y="-372" type="line" smooth="yes"/>
      <point x="177" y="-483"/>
      <point x="154" y="-502"/>
      <point x="115" y="-502" type="curve" smooth="yes"/>
      <point x="100" y="-502"/>
      <point x="87" y="-500"/>
      <point x="67" y="-492" type="curve"/>
      <point x="58" y="-517" type="line"/>
      <point x="73" y="-525"/>
      <point x="92" y="-530"/>
      <point x="113" y="-530" type="curve" smooth="yes"/>
      <point x="156" y="-530"/>
      <point x="194" y="-506"/>
      <point x="234" y="-384" type="curve" smooth="yes"/>
      <point x="376" y="50" type="line" smooth="yes"/>
      <point x="383" y="73"/>
      <point x="385" y="85"/>
      <point x="385" y="99" type="curve" smooth="yes"/>
      <point x="385" y="161"/>
      <point x="347" y="208"/>
      <point x="273" y="208" type="curve" smooth="yes"/>
      <point x="199" y="208"/>
      <point x="161" y="161"/>
      <point x="161" y="99" type="curve" smooth="yes"/>
      <point x="161" y="37"/>
      <point x="204" y="-5"/>
      <point x="273" y="-5" type="curve"/>
      <point x="273" y="9" type="line"/>
      <point x="163" y="20"/>
      <point x="91" y="125"/>
      <point x="91" y="260" type="curve" smooth="yes"/>
      <point x="91" y="414"/>
      <point x="173" y="502"/>
      <point x="329" y="502" type="curve" smooth="yes"/>
      <point x="485" y="502"/>
      <point x="567" y="412"/>
      <point x="567" y="268" type="curve" smooth="yes"/>
      <point x="567" y="232"/>
      <point x="562" y="207"/>
      <point x="552" y="170" type="curve"/>
    </contour>
    <contour>
      <point x="273" y="16" type="curve" smooth="yes"/>
      <point x="210" y="16"/>
      <point x="181" y="52"/>
      <point x="181" y="99" type="curve" smooth="yes"/>
      <point x="181" y="146"/>
      <point x="210" y="182"/>
      <point x="273" y="182" type="curve" smooth="yes"/>
      <point x="336" y="182"/>
      <point x="365" y="146"/>
      <point x="365" y="99" type="curve" smooth="yes"/>
      <point x="365" y="52"/>
      <point x="336" y="16"/>
    </contour>
  </outline>
</glyph>
<glyph name="aa_shn" format="2">
  <advance width="314"/>
  <unicode hex="1083"/>
  <outline>
    <contour>
      <point x="238" y="360" type="line" smooth="yes"/>
      <point x="238" y="470"/>
      <point x="195" y="530"/>
      <point x="91" y="530" type="curve" smooth="yes"/>
      <point x="57" y="530"/>
      <point x="30" y="525"/>
      <point x="8" y="515" type="curve"/>
      <point x="9" y="488" type="line"/>
      <point x="30" y="498"/>
      <point x="56" y="502"/>
      <point x="91" y="502" type="curve" smooth="yes"/>
      <point x="180" y="502"/>
      <point x="216" y="460"/>
      <point x="216" y="354" type="curve" smooth="yes"/>
      <point x="216" y="-352" type="line" smooth="yes"/>
      <point x="216" y="-488"/>
      <point x="260" y="-530"/>
      <point x="332" y="-530" type="curve" smooth="yes"/>
      <point x="347" y="-530"/>
      <point x="363" y="-528"/>
      <point x="377" y="-525" type="curve"/>
      <point x="377" y="-498" type="line"/>
      <point x="365" y="-501"/>
      <point x="352" y="-502"/>
      <point x="335" y="-502" type="curve" smooth="yes"/>
      <point x="273" y="-502"/>
      <point x="238" y="-477"/>
      <point x="238" y="-346" type="curve" smooth="yes"/>
    </contour>
  </outline>
</glyph>
<glyph name="_final_y_shn" format="2">
  <unicode hex="1086"/>
  <note>
Renamed from _f_above_shn
</note>
  <outline>
    <contour>
      <point x="-155" y="885" type="curve"/>
      <point x="-167" y="885" type="line"/>
      <point x="-184" y="799"/>
      <point x="-245" y="702"/>
      <point x="-336" y="625" type="curve"/>
      <point x="-321" y="605" type="line"/>
      <point x="-210" y="699"/>
      <point x="-142" y="823"/>
      <point x="-142" y="934" type="curve" smooth="yes"/>
      <point x="-142" y="1003"/>
      <point x="-180" y="1050"/>
      <point x="-254" y="1050" type="curve" smooth="yes"/>
      <point x="-328" y="1050"/>
      <point x="-366" y="1003"/>
      <point x="-366" y="941" type="curve" smooth="yes"/>
      <point x="-366" y="879"/>
      <point x="-328" y="832"/>
      <point x="-254" y="832" type="curve" smooth="yes"/>
      <point x="-205" y="832"/>
      <point x="-172" y="853"/>
    </contour>
    <contour>
      <point x="-254" y="858" type="curve" smooth="yes"/>
      <point x="-317" y="858"/>
      <point x="-346" y="894"/>
      <point x="-346" y="941" type="curve" smooth="yes"/>
      <point x="-346" y="988"/>
      <point x="-317" y="1024"/>
      <point x="-254" y="1024" type="curve" smooth="yes"/>
      <point x="-191" y="1024"/>
      <point x="-162" y="988"/>
      <point x="-162" y="941" type="curve" smooth="yes"/>
      <point x="-162" y="894"/>
      <point x="-191" y="858"/>
    </contour>
  </outline>
</glyph>
<glyph name="tone2_shn" format="2">
  <advance width="376"/>
  <unicode hex="1087"/>
  <outline>
    <contour>
      <point x="130" y="-189" type="line"/>
      <point x="255" y="-110"/>
      <point x="300" y="-21"/>
      <point x="300" y="80" type="curve" smooth="yes"/>
      <point x="300" y="165"/>
      <point x="262" y="208"/>
      <point x="188" y="208" type="curve" smooth="yes"/>
      <point x="114" y="208"/>
      <point x="76" y="161"/>
      <point x="76" y="99" type="curve" smooth="yes"/>
      <point x="76" y="37"/>
      <point x="114" y="-10"/>
      <point x="188" y="-10" type="curve" smooth="yes"/>
      <point x="240" y="-10"/>
      <point x="274" y="14"/>
      <point x="290" y="49" type="curve"/>
      <point x="280" y="52" type="line"/>
      <point x="275" y="-9"/>
      <point x="240" y="-94"/>
      <point x="116" y="-172" type="curve"/>
    </contour>
    <contour>
      <point x="188" y="16" type="curve" smooth="yes"/>
      <point x="125" y="16"/>
      <point x="96" y="52"/>
      <point x="96" y="99" type="curve" smooth="yes"/>
      <point x="96" y="146"/>
      <point x="125" y="182"/>
      <point x="188" y="182" type="curve" smooth="yes"/>
      <point x="251" y="182"/>
      <point x="279" y="146"/>
      <point x="279" y="99" type="curve" smooth="yes"/>
      <point x="279" y="52"/>
      <point x="251" y="16"/>
    </contour>
  </outline>
</glyph>
<glyph name="tone6_shn" format="2">
  <advance width="534"/>
  <unicode hex="108A"/>
  <outline>
    <contour>
      <point x="239" y="337" type="curve"/>
      <point x="245" y="329" type="line"/>
      <point x="281" y="346"/>
      <point x="300" y="380"/>
      <point x="300" y="421" type="curve" smooth="yes"/>
      <point x="300" y="483"/>
      <point x="262" y="530"/>
      <point x="188" y="530" type="curve" smooth="yes"/>
      <point x="114" y="530"/>
      <point x="76" y="483"/>
      <point x="76" y="421" type="curve" smooth="yes"/>
      <point x="76" y="362"/>
      <point x="103" y="312"/>
      <point x="203" y="312" type="curve" smooth="yes"/>
      <point x="320" y="312"/>
      <point x="432" y="369"/>
      <point x="494" y="469" type="curve"/>
      <point x="479" y="481" type="line"/>
      <point x="413" y="381"/>
      <point x="322" y="344"/>
    </contour>
    <contour>
      <point x="188" y="338" type="curve" smooth="yes"/>
      <point x="125" y="338"/>
      <point x="96" y="374"/>
      <point x="96" y="421" type="curve" smooth="yes"/>
      <point x="96" y="468"/>
      <point x="125" y="504"/>
      <point x="188" y="504" type="curve" smooth="yes"/>
      <point x="251" y="504"/>
      <point x="280" y="468"/>
      <point x="280" y="421" type="curve" smooth="yes"/>
      <point x="280" y="374"/>
      <point x="251" y="338"/>
    </contour>
    <contour>
      <point x="239" y="15" type="curve"/>
      <point x="245" y="7" type="line"/>
      <point x="281" y="24"/>
      <point x="300" y="58"/>
      <point x="300" y="100" type="curve" smooth="yes"/>
      <point x="300" y="161"/>
      <point x="262" y="208"/>
      <point x="188" y="208" type="curve" smooth="yes"/>
      <point x="114" y="208"/>
      <point x="76" y="161"/>
      <point x="76" y="98" type="curve" smooth="yes"/>
      <point x="76" y="40"/>
      <point x="103" y="-10"/>
      <point x="203" y="-10" type="curve" smooth="yes"/>
      <point x="320" y="-10"/>
      <point x="432" y="47"/>
      <point x="494" y="147" type="curve"/>
      <point x="479" y="159" type="line"/>
      <point x="413" y="59"/>
      <point x="322" y="22"/>
    </contour>
    <contour>
      <point x="188" y="16" type="curve" smooth="yes"/>
      <point x="125" y="16"/>
      <point x="96" y="52"/>
      <point x="96" y="98" type="curve" smooth="yes"/>
      <point x="96" y="146"/>
      <point x="125" y="182"/>
      <point x="188" y="182" type="curve" smooth="yes"/>
      <point x="251" y="182"/>
      <point x="280" y="146"/>
      <point x="280" y="100" type="curve" smooth="yes"/>
      <point x="280" y="52"/>
      <point x="251" y="16"/>
    </contour>
  </outline>
</glyph>
<glyph name="zero_shn" format="2">
  <advance width="668"/>
  <unicode hex="1090"/>
  <outline>
    <contour>
      <point x="592" y="257" type="line" smooth="yes"/>
      <point x="592" y="339"/>
      <point x="575" y="398"/>
      <point x="539" y="444" type="curve" smooth="yes"/>
      <point x="498" y="496"/>
      <point x="432" y="530"/>
      <point x="344" y="530" type="curve" smooth="yes"/>
      <point x="324" y="530" type="line" smooth="yes"/>
      <point x="236" y="530"/>
      <point x="170" y="496"/>
      <point x="129" y="445" type="curve" smooth="yes"/>
      <point x="92" y="398"/>
      <point x="76" y="339"/>
      <point x="76" y="257" type="curve" smooth="yes"/>
      <point x="76" y="-157" type="line" smooth="yes"/>
      <point x="76" y="-239"/>
      <point x="92" y="-298"/>
      <point x="129" y="-344" type="curve" smooth="yes"/>
      <point x="170" y="-396"/>
      <point x="236" y="-430"/>
      <point x="324" y="-430" type="curve" smooth="yes"/>
      <point x="344" y="-430" type="line" smooth="yes"/>
      <point x="432" y="-430"/>
      <point x="498" y="-396"/>
      <point x="539" y="-344" type="curve" smooth="yes"/>
      <point x="575" y="-298"/>
      <point x="592" y="-239"/>
      <point x="592" y="-157" type="curve" smooth="yes"/>
    </contour>
    <contour>
      <point x="572" y="252" type="curve" smooth="yes"/>
      <point x="572" y="-152" type="line" smooth="yes"/>
      <point x="572" y="-311"/>
      <point x="490" y="-402"/>
      <point x="334" y="-402" type="curve" smooth="yes"/>
      <point x="178" y="-402"/>
      <point x="96" y="-311"/>
      <point x="96" y="-152" type="curve" smooth="yes"/>
      <point x="96" y="252" type="line" smooth="yes"/>
      <point x="96" y="410"/>
      <point x="178" y="502"/>
      <point x="334" y="502" type="curve" smooth="yes"/>
      <point x="490" y="502"/>
      <point x="572" y="410"/>
    </contour>
  </outline>
</glyph>
<glyph name="one_shn" format="2">
  <advance width="399"/>
  <unicode hex="1091"/>
  <outline>
    <contour>
      <point x="237" y="520" type="line"/>
      <point x="221" y="520" type="line"/>
      <point x="70" y="425" type="line"/>
      <point x="70" y="395" type="line"/>
      <point x="215" y="486" type="line"/>
      <point x="215" y="-249" type="line" smooth="yes"/>
      <point x="215" y="-396"/>
      <point x="260" y="-430"/>
      <point x="317" y="-430" type="curve" smooth="yes"/>
      <point x="322" y="-430"/>
      <point x="332" y="-430"/>
      <point x="342" y="-429" type="curve"/>
      <point x="342" y="-402" type="line"/>
      <point x="322" y="-402" type="line" smooth="yes"/>
      <point x="272" y="-402"/>
      <point x="237" y="-385"/>
      <point x="237" y="-243" type="curve" smooth="yes"/>
    </contour>
  </outline>
</glyph>
<glyph name="two_shn" format="2">
  <advance width="657"/>
  <unicode hex="1092"/>
  <outline>
    <contour>
      <point x="124" y="530" type="curve"/>
      <point x="101" y="530" type="line"/>
      <point x="95" y="515"/>
      <point x="92" y="497"/>
      <point x="92" y="482" type="curve" smooth="yes"/>
      <point x="92" y="429"/>
      <point x="127" y="402"/>
      <point x="174" y="402" type="curve" smooth="yes"/>
      <point x="265" y="402"/>
      <point x="305" y="502"/>
      <point x="408" y="502" type="curve" smooth="yes"/>
      <point x="513" y="502"/>
      <point x="564" y="429"/>
      <point x="564" y="321" type="curve" smooth="yes"/>
      <point x="564" y="5"/>
      <point x="89" y="5"/>
      <point x="89" y="-295" type="curve" smooth="yes"/>
      <point x="89" y="-343"/>
      <point x="104" y="-391"/>
      <point x="123" y="-420" type="curve"/>
      <point x="146" y="-420" type="line"/>
      <point x="147" y="-417" type="line"/>
      <point x="121" y="-380"/>
      <point x="111" y="-329"/>
      <point x="111" y="-293" type="curve" smooth="yes"/>
      <point x="111" y="-13"/>
      <point x="586" y="-12"/>
      <point x="586" y="323" type="curve" smooth="yes"/>
      <point x="586" y="444"/>
      <point x="523" y="530"/>
      <point x="410" y="530" type="curve" smooth="yes"/>
      <point x="294" y="530"/>
      <point x="262" y="427"/>
      <point x="177" y="427" type="curve" smooth="yes"/>
      <point x="137" y="427"/>
      <point x="114" y="450"/>
      <point x="114" y="484" type="curve" smooth="yes"/>
      <point x="114" y="502"/>
      <point x="118" y="515"/>
    </contour>
  </outline>
</glyph>
<glyph name="three_shn" format="2">
  <advance width="582"/>
  <unicode hex="1093"/>
  <outline>
    <contour>
      <point x="387" y="520" type="line"/>
      <point x="180" y="520" type="line"/>
      <point x="180" y="492" type="line"/>
      <point x="360" y="492" type="line"/>
      <point x="58" y="-420" type="line"/>
      <point x="82" y="-420" type="line"/>
      <point x="388" y="515" type="line"/>
    </contour>
    <contour>
      <point x="229" y="59" type="line"/>
      <point x="220" y="31" type="line"/>
      <point x="289" y="31" type="line" smooth="yes"/>
      <point x="382" y="31"/>
      <point x="399" y="-1"/>
      <point x="428" y="-110" type="curve" smooth="yes"/>
      <point x="460" y="-230"/>
      <point x="471" y="-296"/>
      <point x="491" y="-420" type="curve"/>
      <point x="517" y="-420" type="line"/>
      <point x="500" y="-311"/>
      <point x="473" y="-191"/>
      <point x="449" y="-105" type="curve" smooth="yes"/>
      <point x="416" y="12"/>
      <point x="393" y="59"/>
      <point x="293" y="59" type="curve" smooth="yes"/>
    </contour>
  </outline>
</glyph>
<glyph name="four_shn" format="2">
  <advance width="729"/>
  <unicode hex="1094"/>
  <outline>
    <contour>
      <point x="387" y="520" type="line"/>
      <point x="180" y="520" type="line"/>
      <point x="180" y="492" type="line"/>
      <point x="350" y="492" type="line"/>
      <point x="147" y="-329" type="line" smooth="yes"/>
      <point x="130" y="-397"/>
      <point x="100" y="-402"/>
      <point x="62" y="-402" type="curve" smooth="yes"/>
      <point x="57" y="-402"/>
      <point x="53" y="-402"/>
      <point x="46" y="-400" type="curve"/>
      <point x="39" y="-426" type="line"/>
      <point x="47" y="-429"/>
      <point x="56" y="-430"/>
      <point x="65" y="-430" type="curve" smooth="yes"/>
      <point x="114" y="-430"/>
      <point x="149" y="-414"/>
      <point x="167" y="-339" type="curve" smooth="yes"/>
      <point x="374" y="502" type="line"/>
      <point x="369" y="502" type="line"/>
      <point x="576" y="-339" type="line" smooth="yes"/>
      <point x="594" y="-414"/>
      <point x="629" y="-430"/>
      <point x="678" y="-430" type="curve" smooth="yes"/>
      <point x="687" y="-430"/>
      <point x="696" y="-429"/>
      <point x="704" y="-426" type="curve"/>
      <point x="697" y="-400" type="line"/>
      <point x="690" y="-402"/>
      <point x="686" y="-402"/>
      <point x="681" y="-402" type="curve" smooth="yes"/>
      <point x="643" y="-402"/>
      <point x="613" y="-397"/>
      <point x="596" y="-329" type="curve" smooth="yes"/>
    </contour>
  </outline>
</glyph>
<glyph name="six_shn" format="2">
  <advance width="655"/>
  <unicode hex="1096"/>
  <outline>
    <contour>
      <point x="637" y="28" type="line"/>
      <point x="352" y="28" type="line" smooth="yes"/>
      <point x="174" y="28"/>
      <point x="91" y="112"/>
      <point x="91" y="252" type="curve" smooth="yes"/>
      <point x="91" y="268" type="line" smooth="yes"/>
      <point x="91" y="411"/>
      <point x="171" y="502"/>
      <point x="326" y="502" type="curve" smooth="yes"/>
      <point x="474" y="502"/>
      <point x="551" y="406"/>
      <point x="551" y="255" type="curve" smooth="yes"/>
      <point x="551" y="250" type="line" smooth="yes"/>
      <point x="551" y="86"/>
      <point x="478" y="-193"/>
      <point x="402" y="-420" type="curve"/>
      <point x="427" y="-420" type="line"/>
      <point x="501" y="-202"/>
      <point x="571" y="83"/>
      <point x="571" y="247" type="curve" smooth="yes"/>
      <point x="571" y="422"/>
      <point x="487" y="530"/>
      <point x="336" y="530" type="curve" smooth="yes"/>
      <point x="316" y="530" type="line" smooth="yes"/>
      <point x="228" y="530"/>
      <point x="165" y="496"/>
      <point x="124" y="445" type="curve" smooth="yes"/>
      <point x="87" y="399"/>
      <point x="71" y="341"/>
      <point x="71" y="260" type="curve" smooth="yes"/>
      <point x="71" y="97"/>
      <point x="161" y="0"/>
      <point x="350" y="0" type="curve" smooth="yes"/>
      <point x="637" y="0" type="line"/>
    </contour>
  </outline>
</glyph>
<glyph name="seven_shn" format="2">
  <advance width="659"/>
  <unicode hex="1097"/>
  <outline>
    <contour>
      <point x="602" y="425" type="line"/>
      <point x="573" y="482"/>
      <point x="498" y="530"/>
      <point x="348" y="530" type="curve" smooth="yes"/>
      <point x="311" y="530" type="line" smooth="yes"/>
      <point x="136" y="530"/>
      <point x="72" y="474"/>
      <point x="72" y="369" type="curve" smooth="yes"/>
      <point x="72" y="366"/>
      <point x="72" y="363"/>
      <point x="72" y="360" type="curve"/>
      <point x="92" y="360" type="line"/>
      <point x="92" y="453"/>
      <point x="141" y="502"/>
      <point x="332" y="502" type="curve" smooth="yes"/>
      <point x="457" y="502"/>
      <point x="535" y="482"/>
      <point x="575" y="423" type="curve"/>
      <point x="62" y="-396" type="line"/>
      <point x="107" y="-421"/>
      <point x="183" y="-430"/>
      <point x="262" y="-430" type="curve" smooth="yes"/>
      <point x="448" y="-430"/>
      <point x="509" y="-380"/>
      <point x="509" y="-272" type="curve" smooth="yes"/>
      <point x="509" y="-267"/>
      <point x="509" y="-263"/>
      <point x="509" y="-260" type="curve"/>
      <point x="489" y="-260" type="line"/>
      <point x="489" y="-357"/>
      <point x="433" y="-402"/>
      <point x="264" y="-402" type="curve" smooth="yes"/>
      <point x="207" y="-402"/>
      <point x="140" y="-397"/>
      <point x="99" y="-381" type="curve"/>
    </contour>
  </outline>
</glyph>
<glyph name="eight_shn" format="2">
  <advance width="618"/>
  <unicode hex="1098"/>
  <outline>
    <contour>
      <point x="80" y="379" type="curve" smooth="yes"/>
      <point x="80" y="73"/>
      <point x="526" y="60"/>
      <point x="526" y="-204" type="curve" smooth="yes"/>
      <point x="526" y="-302"/>
      <point x="467" y="-402"/>
      <point x="313" y="-402" type="curve" smooth="yes"/>
      <point x="305" y="-402" type="line" smooth="yes"/>
      <point x="151" y="-402"/>
      <point x="92" y="-302"/>
      <point x="92" y="-204" type="curve" smooth="yes"/>
      <point x="92" y="60"/>
      <point x="538" y="73"/>
      <point x="538" y="379" type="curve" smooth="yes"/>
      <point x="538" y="441"/>
      <point x="519" y="489"/>
      <point x="494" y="520" type="curve"/>
      <point x="472" y="520" type="line"/>
      <point x="471" y="517" type="line"/>
      <point x="496" y="486"/>
      <point x="517" y="443"/>
      <point x="517" y="381" type="curve" smooth="yes"/>
      <point x="517" y="87"/>
      <point x="71" y="72"/>
      <point x="71" y="-205" type="curve" smooth="yes"/>
      <point x="71" y="-321"/>
      <point x="144" y="-430"/>
      <point x="305" y="-430" type="curve" smooth="yes"/>
      <point x="313" y="-430" type="line" smooth="yes"/>
      <point x="474" y="-430"/>
      <point x="547" y="-321"/>
      <point x="547" y="-205" type="curve" smooth="yes"/>
      <point x="547" y="72"/>
      <point x="101" y="87"/>
      <point x="101" y="381" type="curve" smooth="yes"/>
      <point x="101" y="443"/>
      <point x="122" y="486"/>
      <point x="147" y="517" type="curve"/>
      <point x="146" y="520" type="line"/>
      <point x="124" y="520" type="line"/>
      <point x="99" y="489"/>
      <point x="80" y="441"/>
    </contour>
  </outline>
</glyph>
<glyph name="tone1_khm" format="2">
  <advance width="342"/>
  <unicode hex="109A"/>
  <outline>
    <contour>
      <point x="171" y="342" type="curve" smooth="yes"/>
      <point x="229" y="342"/>
      <point x="266" y="383"/>
      <point x="266" y="435" type="curve" smooth="yes"/>
      <point x="266" y="489"/>
      <point x="229" y="530"/>
      <point x="171" y="530" type="curve" smooth="yes"/>
      <point x="113" y="530"/>
      <point x="76" y="489"/>
      <point x="76" y="435" type="curve" smooth="yes"/>
      <point x="76" y="383"/>
      <point x="113" y="342"/>
    </contour>
  </outline>
</glyph>
<glyph name="_a_atn" format="2">
  <advance width="447"/>
  <unicode hex="109C"/>
  <outline>
    <contour>
      <point x="402" y="423" type="line"/>
      <point x="342" y="474"/>
      <point x="277" y="500"/>
      <point x="210" y="500" type="curve" smooth="yes"/>
      <point x="122" y="500"/>
      <point x="76" y="456"/>
      <point x="76" y="399" type="curve" smooth="yes"/>
      <point x="76" y="353"/>
      <point x="111" y="321"/>
      <point x="155" y="321" type="curve" smooth="yes"/>
      <point x="205" y="321"/>
      <point x="234" y="354"/>
      <point x="234" y="400" type="curve" smooth="yes"/>
      <point x="234" y="446"/>
      <point x="198" y="471"/>
      <point x="159" y="471" type="curve" smooth="yes"/>
      <point x="141" y="471"/>
      <point x="123" y="468"/>
      <point x="114" y="459" type="curve"/>
      <point x="126" y="459" type="line"/>
      <point x="145" y="467"/>
      <point x="163" y="472"/>
      <point x="208" y="472" type="curve" smooth="yes"/>
      <point x="257" y="472"/>
      <point x="320" y="461"/>
      <point x="388" y="403" type="curve"/>
    </contour>
    <contour>
      <point x="402" y="122" type="line"/>
      <point x="343" y="174"/>
      <point x="278" y="199"/>
      <point x="211" y="199" type="curve" smooth="yes"/>
      <point x="123" y="199"/>
      <point x="76" y="156"/>
      <point x="76" y="99" type="curve" smooth="yes"/>
      <point x="76" y="52"/>
      <point x="111" y="20"/>
      <point x="155" y="20" type="curve" smooth="yes"/>
      <point x="205" y="20"/>
      <point x="234" y="54"/>
      <point x="234" y="100" type="curve" smooth="yes"/>
      <point x="234" y="146"/>
      <point x="198" y="171"/>
      <point x="160" y="171" type="curve" smooth="yes"/>
      <point x="143" y="171"/>
      <point x="124" y="167"/>
      <point x="114" y="158" type="curve"/>
      <point x="126" y="160" type="line"/>
      <point x="145" y="166"/>
      <point x="163" y="171"/>
      <point x="208" y="171" type="curve" smooth="yes"/>
      <point x="257" y="171"/>
      <point x="321" y="160"/>
      <point x="388" y="104" type="curve"/>
    </contour>
  </outline>
</glyph>
<glyph name="_ai_phk" format="2">
  <unicode hex="109D"/>
  <outline>
    <contour>
      <point x="-244" y="817" type="curve"/>
      <point x="-256" y="843" type="line"/>
      <point x="-256" y="786"/>
      <point x="-289" y="763"/>
      <point x="-337" y="763" type="curve" smooth="yes"/>
      <point x="-402" y="763"/>
      <point x="-442" y="810"/>
      <point x="-442" y="879" type="curve" smooth="yes"/>
      <point x="-442" y="970"/>
      <point x="-380" y="1022"/>
      <point x="-282" y="1022" type="curve" smooth="yes"/>
      <point x="-174" y="1022"/>
      <point x="-113" y="956"/>
      <point x="-113" y="832" type="curve" smooth="yes"/>
      <point x="-113" y="743"/>
      <point x="-142" y="626"/>
      <point x="-197" y="489" type="curve"/>
      <point x="-177" y="476" type="line"/>
      <point x="-118" y="628"/>
      <point x="-91" y="737"/>
      <point x="-91" y="828" type="curve" smooth="yes"/>
      <point x="-91" y="970"/>
      <point x="-163" y="1050"/>
      <point x="-281" y="1050" type="curve" smooth="yes"/>
      <point x="-390" y="1050"/>
      <point x="-463" y="984"/>
      <point x="-463" y="878" type="curve" smooth="yes"/>
      <point x="-463" y="795"/>
      <point x="-413" y="737"/>
      <point x="-338" y="737" type="curve" smooth="yes"/>
      <point x="-278" y="737"/>
      <point x="-236" y="772"/>
      <point x="-236" y="841" type="curve" smooth="yes"/>
      <point x="-236" y="889"/>
      <point x="-266" y="917"/>
      <point x="-307" y="917" type="curve" smooth="yes"/>
      <point x="-349" y="917"/>
      <point x="-377" y="889"/>
      <point x="-377" y="848" type="curve" smooth="yes"/>
      <point x="-377" y="808"/>
      <point x="-349" y="781"/>
      <point x="-307" y="781" type="curve" smooth="yes"/>
      <point x="-278" y="781"/>
      <point x="-255" y="795"/>
    </contour>
  </outline>
</glyph>
<glyph name="exclam_shn" format="2">
  <advance width="807"/>
  <unicode hex="109F"/>
  <outline>
    <contour>
      <point x="761" y="10" type="line"/>
      <point x="739" y="10" type="line"/>
      <point x="739" y="-412" type="line" smooth="yes"/>
      <point x="739" y="-470"/>
      <point x="714" y="-502"/>
      <point x="663" y="-502" type="curve" smooth="yes"/>
      <point x="611" y="-502"/>
      <point x="587" y="-470"/>
      <point x="587" y="-411" type="curve" smooth="yes"/>
      <point x="587" y="263" type="line" smooth="yes"/>
      <point x="587" y="342"/>
      <point x="570" y="399"/>
      <point x="535" y="444" type="curve" smooth="yes"/>
      <point x="494" y="497"/>
      <point x="427" y="530"/>
      <point x="336" y="530" type="curve" smooth="yes"/>
      <point x="322" y="530" type="line" smooth="yes"/>
      <point x="231" y="530"/>
      <point x="165" y="496"/>
      <point x="124" y="445" type="curve" smooth="yes"/>
      <point x="87" y="399"/>
      <point x="71" y="341"/>
      <point x="71" y="260" type="curve" smooth="yes"/>
      <point x="71" y="179"/>
      <point x="87" y="119"/>
      <point x="126" y="70" type="curve" smooth="yes"/>
      <point x="162" y="25"/>
      <point x="220" y="-10"/>
      <point x="303" y="-10" type="curve"/>
      <point x="377" y="-10"/>
      <point x="415" y="37"/>
      <point x="415" y="99" type="curve"/>
      <point x="415" y="37"/>
      <point x="366" y="14"/>
      <point x="299" y="14" type="curve" smooth="yes"/>
      <point x="172" y="14"/>
      <point x="91" y="111"/>
      <point x="91" y="252" type="curve" smooth="yes"/>
      <point x="91" y="268" type="line" smooth="yes"/>
      <point x="91" y="411"/>
      <point x="173" y="502"/>
      <point x="329" y="502" type="curve" smooth="yes"/>
      <point x="485" y="502"/>
      <point x="565" y="412"/>
      <point x="565" y="269" type="curve" smooth="yes"/>
      <point x="565" y="-415" type="line" smooth="yes"/>
      <point x="565" y="-492"/>
      <point x="601" y="-530"/>
      <point x="657" y="-530" type="curve" smooth="yes"/>
      <point x="668" y="-530" type="line" smooth="yes"/>
      <point x="722" y="-530"/>
      <point x="761" y="-493"/>
      <point x="761" y="-411" type="curve" smooth="yes"/>
    </contour>
    <contour>
      <point x="303" y="-10" type="curve" smooth="yes"/>
      <point x="377" y="-10"/>
      <point x="415" y="37"/>
      <point x="415" y="99" type="curve" smooth="yes"/>
      <point x="415" y="161"/>
      <point x="377" y="208"/>
      <point x="303" y="208" type="curve" smooth="yes"/>
      <point x="229" y="208"/>
      <point x="191" y="161"/>
      <point x="191" y="99" type="curve" smooth="yes"/>
      <point x="191" y="37"/>
      <point x="229" y="-10"/>
    </contour>
    <contour>
      <point x="303" y="16" type="curve" smooth="yes"/>
      <point x="240" y="16"/>
      <point x="211" y="52"/>
      <point x="211" y="99" type="curve" smooth="yes"/>
      <point x="211" y="146"/>
      <point x="240" y="182"/>
      <point x="303" y="182" type="curve" smooth="yes"/>
      <point x="366" y="182"/>
      <point x="395" y="146"/>
      <point x="395" y="99" type="curve" smooth="yes"/>
      <point x="395" y="52"/>
      <point x="366" y="16"/>
    </contour>
    <component base="asatstem" xOffset="693"/>
  </outline>
</glyph>
<glyph name="quoteright" format="2">
  <advance width="376"/>
  <unicode hex="2019"/>
  <outline>
    <contour>
      <point x="300" y="841" type="curve"/>
      <point x="269" y="771" type="line"/>
      <point x="247" y="695"/>
      <point x="200" y="631"/>
      <point x="127" y="572" type="curve"/>
      <point x="142" y="560" type="line"/>
      <point x="210" y="612"/>
      <point x="300" y="715"/>
    </contour>
    <contour>
      <point x="188" y="732" type="curve" smooth="yes"/>
      <point x="262" y="732"/>
      <point x="300" y="779"/>
      <point x="300" y="841" type="curve" smooth="yes"/>
      <point x="300" y="903"/>
      <point x="262" y="950"/>
      <point x="188" y="950" type="curve" smooth="yes"/>
      <point x="114" y="950"/>
      <point x="76" y="903"/>
      <point x="76" y="841" type="curve" smooth="yes"/>
      <point x="76" y="779"/>
      <point x="114" y="732"/>
    </contour>
    <contour>
      <point x="188" y="758" type="curve" smooth="yes"/>
      <point x="125" y="758"/>
      <point x="96" y="794"/>
      <point x="96" y="841" type="curve" smooth="yes"/>
      <point x="96" y="888"/>
      <point x="125" y="924"/>
      <point x="188" y="924" type="curve" smooth="yes"/>
      <point x="251" y="924"/>
      <point x="280" y="888"/>
      <point x="280" y="841" type="curve" smooth="yes"/>
      <point x="280" y="794"/>
      <point x="251" y="758"/>
    </contour>
  </outline>
</glyph>
<glyph name="ellipsis" format="2">
  <advance width="1128"/>
  <unicode hex="2026"/>
  <outline>
    <contour>
      <point x="188" y="-10" type="curve" smooth="yes"/>
      <point x="262" y="-10"/>
      <point x="300" y="37"/>
      <point x="300" y="99" type="curve" smooth="yes"/>
      <point x="300" y="161"/>
      <point x="262" y="208"/>
      <point x="188" y="208" type="curve" smooth="yes"/>
      <point x="114" y="208"/>
      <point x="76" y="161"/>
      <point x="76" y="99" type="curve" smooth="yes"/>
      <point x="76" y="37"/>
      <point x="114" y="-10"/>
    </contour>
    <contour>
      <point x="188" y="16" type="curve" smooth="yes"/>
      <point x="125" y="16"/>
      <point x="96" y="52"/>
      <point x="96" y="99" type="curve" smooth="yes"/>
      <point x="96" y="146"/>
      <point x="125" y="182"/>
      <point x="188" y="182" type="curve" smooth="yes"/>
      <point x="251" y="182"/>
      <point x="280" y="146"/>
      <point x="280" y="99" type="curve" smooth="yes"/>
      <point x="280" y="52"/>
      <point x="251" y="16"/>
    </contour>
    <contour>
      <point x="564" y="-10" type="curve" smooth="yes"/>
      <point x="638" y="-10"/>
      <point x="676" y="37"/>
      <point x="676" y="99" type="curve" smooth="yes"/>
      <point x="676" y="161"/>
      <point x="638" y="208"/>
      <point x="564" y="208" type="curve" smooth="yes"/>
      <point x="490" y="208"/>
      <point x="452" y="161"/>
      <point x="452" y="99" type="curve" smooth="yes"/>
      <point x="452" y="37"/>
      <point x="490" y="-10"/>
    </contour>
    <contour>
      <point x="564" y="16" type="curve" smooth="yes"/>
      <point x="501" y="16"/>
      <point x="472" y="52"/>
      <point x="472" y="99" type="curve" smooth="yes"/>
      <point x="472" y="146"/>
      <point x="501" y="182"/>
      <point x="564" y="182" type="curve" smooth="yes"/>
      <point x="627" y="182"/>
      <point x="656" y="146"/>
      <point x="656" y="99" type="curve" smooth="yes"/>
      <point x="656" y="52"/>
      <point x="627" y="16"/>
    </contour>
    <contour>
      <point x="940" y="-10" type="curve" smooth="yes"/>
      <point x="1014" y="-10"/>
      <point x="1052" y="37"/>
      <point x="1052" y="99" type="curve" smooth="yes"/>
      <point x="1052" y="161"/>
      <point x="1014" y="208"/>
      <point x="940" y="208" type="curve" smooth="yes"/>
      <point x="866" y="208"/>
      <point x="828" y="161"/>
      <point x="828" y="99" type="curve" smooth="yes"/>
      <point x="828" y="37"/>
      <point x="866" y="-10"/>
    </contour>
    <contour>
      <point x="940" y="16" type="curve" smooth="yes"/>
      <point x="877" y="16"/>
      <point x="848" y="52"/>
      <point x="848" y="99" type="curve" smooth="yes"/>
      <point x="848" y="146"/>
      <point x="877" y="182"/>
      <point x="940" y="182" type="curve" smooth="yes"/>
      <point x="1003" y="182"/>
      <point x="1032" y="146"/>
      <point x="1032" y="99" type="curve" smooth="yes"/>
      <point x="1032" y="52"/>
      <point x="1003" y="16"/>
    </contour>
  </outline>
</glyph>
<glyph name="uni25CC" format="2">
  <advance width="594"/>
  <unicode hex="25CC"/>
  <note>
uni25CC
</note>
  <outline>
    <contour>
      <point x="455" y="391" type="curve" smooth="yes"/>
      <point x="470" y="391"/>
      <point x="480" y="402"/>
      <point x="480" y="417" type="curve" smooth="yes"/>
      <point x="480" y="433"/>
      <point x="470" y="444"/>
      <point x="455" y="444" type="curve" smooth="yes"/>
      <point x="439" y="444"/>
      <point x="428" y="433"/>
      <point x="428" y="417" type="curve" smooth="yes"/>
      <point x="428" y="402"/>
      <point x="439" y="391"/>
    </contour>
    <contour>
      <point x="383" y="439" type="curve" smooth="yes"/>
      <point x="398" y="439"/>
      <point x="408" y="450"/>
      <point x="408" y="465" type="curve" smooth="yes"/>
      <point x="408" y="481"/>
      <point x="398" y="492"/>
      <point x="383" y="492" type="curve" smooth="yes"/>
      <point x="366" y="492"/>
      <point x="355" y="481"/>
      <point x="355" y="465" type="curve" smooth="yes"/>
      <point x="355" y="450"/>
      <point x="366" y="439"/>
    </contour>
    <contour>
      <point x="502" y="318" type="curve" smooth="yes"/>
      <point x="518" y="318"/>
      <point x="529" y="329"/>
      <point x="529" y="345" type="curve" smooth="yes"/>
      <point x="529" y="360"/>
      <point x="518" y="371"/>
      <point x="503" y="371" type="curve" smooth="yes"/>
      <point x="487" y="371"/>
      <point x="476" y="360"/>
      <point x="476" y="345" type="curve" smooth="yes"/>
      <point x="476" y="329"/>
      <point x="487" y="318"/>
    </contour>
    <contour>
      <point x="521" y="234" type="curve" smooth="yes"/>
      <point x="536" y="234"/>
      <point x="546" y="245"/>
      <point x="546" y="260" type="curve" smooth="yes"/>
      <point x="546" y="275"/>
      <point x="536" y="286"/>
      <point x="521" y="286" type="curve" smooth="yes"/>
      <point x="505" y="286"/>
      <point x="494" y="275"/>
      <point x="494" y="260" type="curve" smooth="yes"/>
      <point x="494" y="245"/>
      <point x="505" y="234"/>
    </contour>
    <contour>
      <point x="297" y="456" type="curve" smooth="yes"/>
      <point x="312" y="456"/>
      <point x="323" y="467"/>
      <point x="323" y="483" type="curve" smooth="yes"/>
      <point x="323" y="498"/>
      <point x="312" y="509"/>
      <point x="297" y="509" type="curve" smooth="yes"/>
      <point x="282" y="509"/>
      <point x="271" y="498"/>
      <point x="271" y="483" type="curve" smooth="yes"/>
      <point x="271" y="467"/>
      <point x="282" y="456"/>
    </contour>
    <contour>
      <point x="212" y="439" type="curve" smooth="yes"/>
      <point x="228" y="439"/>
      <point x="239" y="450"/>
      <point x="239" y="465" type="curve" smooth="yes"/>
      <point x="239" y="481"/>
      <point x="228" y="492"/>
      <point x="212" y="492" type="curve" smooth="yes"/>
      <point x="197" y="492"/>
      <point x="186" y="481"/>
      <point x="186" y="465" type="curve" smooth="yes"/>
      <point x="186" y="450"/>
      <point x="197" y="439"/>
    </contour>
    <contour>
      <point x="502" y="149" type="curve" smooth="yes"/>
      <point x="518" y="149"/>
      <point x="529" y="160"/>
      <point x="529" y="175" type="curve" smooth="yes"/>
      <point x="529" y="191"/>
      <point x="518" y="202"/>
      <point x="502" y="202" type="curve" smooth="yes"/>
      <point x="487" y="202"/>
      <point x="476" y="191"/>
      <point x="476" y="175" type="curve" smooth="yes"/>
      <point x="476" y="160"/>
      <point x="487" y="149"/>
    </contour>
    <contour>
      <point x="140" y="391" type="curve" smooth="yes"/>
      <point x="156" y="391"/>
      <point x="167" y="402"/>
      <point x="167" y="417" type="curve" smooth="yes"/>
      <point x="167" y="433"/>
      <point x="156" y="444"/>
      <point x="140" y="444" type="curve" smooth="yes"/>
      <point x="125" y="444"/>
      <point x="114" y="433"/>
      <point x="114" y="416" type="curve" smooth="yes"/>
      <point x="114" y="401"/>
      <point x="125" y="391"/>
    </contour>
    <contour>
      <point x="455" y="76" type="curve" smooth="yes"/>
      <point x="470" y="76"/>
      <point x="480" y="87"/>
      <point x="480" y="102" type="curve" smooth="yes"/>
      <point x="480" y="118"/>
      <point x="470" y="129"/>
      <point x="455" y="129" type="curve" smooth="yes"/>
      <point x="439" y="129"/>
      <point x="428" y="118"/>
      <point x="428" y="102" type="curve" smooth="yes"/>
      <point x="428" y="87"/>
      <point x="439" y="76"/>
    </contour>
    <contour>
      <point x="383" y="29" type="curve" smooth="yes"/>
      <point x="398" y="29"/>
      <point x="408" y="39"/>
      <point x="408" y="54" type="curve" smooth="yes"/>
      <point x="408" y="70"/>
      <point x="398" y="81"/>
      <point x="383" y="81" type="curve" smooth="yes"/>
      <point x="366" y="81"/>
      <point x="355" y="70"/>
      <point x="355" y="54" type="curve" smooth="yes"/>
      <point x="355" y="39"/>
      <point x="366" y="29"/>
    </contour>
    <contour>
      <point x="93" y="318" type="curve" smooth="yes"/>
      <point x="108" y="318"/>
      <point x="118" y="329"/>
      <point x="118" y="345" type="curve" smooth="yes"/>
      <point x="118" y="360"/>
      <point x="107" y="371"/>
      <point x="92" y="371" type="curve" smooth="yes"/>
      <point x="76" y="371"/>
      <point x="65" y="360"/>
      <point x="65" y="345" type="curve" smooth="yes"/>
      <point x="65" y="329"/>
      <point x="76" y="318"/>
    </contour>
    <contour>
      <point x="75" y="234" type="curve" smooth="yes"/>
      <point x="90" y="234"/>
      <point x="101" y="245"/>
      <point x="101" y="260" type="curve" smooth="yes"/>
      <point x="101" y="275"/>
      <point x="90" y="286"/>
      <point x="75" y="286" type="curve" smooth="yes"/>
      <point x="59" y="286"/>
      <point x="48" y="275"/>
      <point x="48" y="260" type="curve" smooth="yes"/>
      <point x="48" y="245"/>
      <point x="59" y="234"/>
    </contour>
    <contour>
      <point x="297" y="11" type="curve" smooth="yes"/>
      <point x="312" y="11"/>
      <point x="323" y="22"/>
      <point x="323" y="38" type="curve" smooth="yes"/>
      <point x="323" y="53"/>
      <point x="312" y="64"/>
      <point x="297" y="64" type="curve" smooth="yes"/>
      <point x="282" y="64"/>
      <point x="271" y="53"/>
      <point x="271" y="38" type="curve" smooth="yes"/>
      <point x="271" y="22"/>
      <point x="282" y="11"/>
    </contour>
    <contour>
      <point x="92" y="149" type="curve" smooth="yes"/>
      <point x="107" y="149"/>
      <point x="118" y="160"/>
      <point x="118" y="175" type="curve" smooth="yes"/>
      <point x="118" y="191"/>
      <point x="107" y="202"/>
      <point x="92" y="202" type="curve" smooth="yes"/>
      <point x="76" y="202"/>
      <point x="65" y="191"/>
      <point x="65" y="175" type="curve" smooth="yes"/>
      <point x="65" y="160"/>
      <point x="76" y="149"/>
    </contour>
    <contour>
      <point x="212" y="29" type="curve" smooth="yes"/>
      <point x="228" y="29"/>
      <point x="239" y="40"/>
      <point x="239" y="56" type="curve" smooth="yes"/>
      <point x="239" y="71"/>
      <point x="228" y="81"/>
      <point x="212" y="81" type="curve" smooth="yes"/>
      <point x="197" y="81"/>
      <point x="186" y="70"/>
      <point x="186" y="54" type="curve" smooth="yes"/>
      <point x="186" y="39"/>
      <point x="197" y="29"/>
    </contour>
    <contour>
      <point x="140" y="76" type="curve" smooth="yes"/>
      <point x="156" y="76"/>
      <point x="167" y="87"/>
      <point x="167" y="102" type="curve" smooth="yes"/>
      <point x="167" y="118"/>
      <point x="156" y="129"/>
      <point x="140" y="129" type="curve" smooth="yes"/>
      <point x="125" y="129"/>
      <point x="114" y="118"/>
      <point x="114" y="102" type="curve" smooth="yes"/>
      <point x="114" y="87"/>
      <point x="125" y="76"/>
    </contour>
  </outline>
</glyph>
<glyph name="uniA92E" format="2">
  <advance width="740"/>
  <unicode hex="A92E"/>
  <outline>
    <contour>
      <point x="370" y="274" type="curve" smooth="yes"/>
      <point x="197" y="274"/>
      <point x="90" y="202"/>
      <point x="36" y="61" type="curve"/>
      <point x="54" y="61" type="line"/>
      <point x="112" y="185"/>
      <point x="206" y="247"/>
      <point x="370" y="247" type="curve" smooth="yes"/>
      <point x="534" y="247"/>
      <point x="628" y="185"/>
      <point x="686" y="61" type="curve"/>
      <point x="704" y="61" type="line"/>
      <point x="650" y="202"/>
      <point x="543" y="274"/>
    </contour>
  </outline>
</glyph>
<glyph name="gha_shn" format="2">
  <advance width="658"/>
  <unicode hex="A9E0"/>
  <outline>
    <contour>
      <point x="387" y="9" type="line"/>
      <point x="387" y="86" type="line" smooth="yes"/>
      <point x="387" y="176"/>
      <point x="303" y="195"/>
      <point x="227" y="195" type="curve" smooth="yes"/>
      <point x="102" y="195"/>
      <point x="81" y="142"/>
      <point x="81" y="102" type="curve" smooth="yes"/>
      <point x="81" y="27"/>
      <point x="161" y="-10"/>
      <point x="312" y="-10" type="curve" smooth="yes"/>
      <point x="493" y="-10"/>
      <point x="587" y="87"/>
      <point x="587" y="260" type="curve" smooth="yes"/>
      <point x="587" y="432"/>
      <point x="475" y="530"/>
      <point x="310" y="530" type="curve" smooth="yes"/>
      <point x="161" y="530"/>
      <point x="82" y="471"/>
      <point x="82" y="387" type="curve" smooth="yes"/>
      <point x="82" y="332"/>
      <point x="115" y="291"/>
      <point x="179" y="291" type="curve" smooth="yes"/>
      <point x="244" y="291"/>
      <point x="277" y="332"/>
      <point x="277" y="387" type="curve" smooth="yes"/>
      <point x="277" y="440"/>
      <point x="244" y="480"/>
      <point x="181" y="480" type="curve" smooth="yes"/>
      <point x="168" y="480"/>
      <point x="156" y="478"/>
      <point x="144" y="475" type="curve"/>
      <point x="144" y="473" type="line"/>
      <point x="208" y="500"/>
      <point x="265" y="501"/>
      <point x="313" y="501" type="curve" smooth="yes"/>
      <point x="475" y="501"/>
      <point x="567" y="411"/>
      <point x="567" y="268" type="curve" smooth="yes"/>
      <point x="567" y="252" type="line" smooth="yes"/>
      <point x="567" y="108"/>
      <point x="484" y="18"/>
      <point x="325" y="18" type="curve" smooth="yes"/>
      <point x="312" y="18" type="line" smooth="yes"/>
      <point x="161" y="18"/>
      <point x="104" y="52"/>
      <point x="104" y="102" type="curve" smooth="yes"/>
      <point x="104" y="142"/>
      <point x="135" y="167"/>
      <point x="219" y="167" type="curve" smooth="yes"/>
      <point x="236" y="167" type="line" smooth="yes"/>
      <point x="287" y="167"/>
      <point x="367" y="157"/>
      <point x="367" y="79" type="curve" smooth="yes"/>
      <point x="367" y="9" type="line"/>
    </contour>
    <contour>
      <point x="179" y="314" type="curve" smooth="yes"/>
      <point x="124" y="314"/>
      <point x="99" y="345"/>
      <point x="99" y="387" type="curve" smooth="yes"/>
      <point x="99" y="428"/>
      <point x="124" y="459"/>
      <point x="179" y="459" type="curve" smooth="yes"/>
      <point x="234" y="459"/>
      <point x="260" y="428"/>
      <point x="260" y="387" type="curve" smooth="yes"/>
      <point x="260" y="345"/>
      <point x="234" y="314"/>
    </contour>
  </outline>
</glyph>
<glyph name="cha_shn" format="2">
  <advance width="1060"/>
  <unicode hex="A9E1"/>
  <outline>
    <contour>
      <point x="80" y="166" type="line"/>
      <point x="105" y="55"/>
      <point x="196" y="-10"/>
      <point x="319" y="-10" type="curve" smooth="yes"/>
      <point x="339" y="-10" type="line" smooth="yes"/>
      <point x="425" y="-10"/>
      <point x="491" y="20"/>
      <point x="534" y="75" type="curve" smooth="yes"/>
      <point x="568" y="121"/>
      <point x="587" y="183"/>
      <point x="587" y="260" type="curve" smooth="yes"/>
      <point x="587" y="335"/>
      <point x="569" y="396"/>
      <point x="534" y="442" type="curve" smooth="yes"/>
      <point x="490" y="499"/>
      <point x="418" y="530"/>
      <point x="319" y="530" type="curve" smooth="yes"/>
      <point x="305" y="530" type="line" smooth="yes"/>
      <point x="109" y="530"/>
      <point x="81" y="463"/>
      <point x="81" y="418" type="curve" smooth="yes"/>
      <point x="81" y="378"/>
      <point x="102" y="325"/>
      <point x="227" y="325" type="curve" smooth="yes"/>
      <point x="303" y="325"/>
      <point x="387" y="344"/>
      <point x="387" y="434" type="curve" smooth="yes"/>
      <point x="387" y="521" type="line"/>
      <point x="367" y="521" type="line"/>
      <point x="367" y="441" type="line" smooth="yes"/>
      <point x="367" y="363"/>
      <point x="287" y="353"/>
      <point x="236" y="353" type="curve" smooth="yes"/>
      <point x="219" y="353" type="line" smooth="yes"/>
      <point x="135" y="353"/>
      <point x="104" y="378"/>
      <point x="104" y="418" type="curve" smooth="yes"/>
      <point x="104" y="468"/>
      <point x="161" y="502"/>
      <point x="312" y="502" type="curve" smooth="yes"/>
      <point x="325" y="502" type="line" smooth="yes"/>
      <point x="484" y="502"/>
      <point x="567" y="412"/>
      <point x="567" y="268" type="curve" smooth="yes"/>
      <point x="567" y="252" type="line" smooth="yes"/>
      <point x="567" y="109"/>
      <point x="485" y="18"/>
      <point x="329" y="18" type="curve" smooth="yes"/>
      <point x="207" y="18"/>
      <point x="126" y="74"/>
      <point x="102" y="166" type="curve"/>
    </contour>
    <contour>
      <point x="523" y="81" type="line"/>
      <point x="566" y="17"/>
      <point x="645" y="-10"/>
      <point x="721" y="-10" type="curve" smooth="yes"/>
      <point x="741" y="-10" type="line" smooth="yes"/>
      <point x="829" y="-10"/>
      <point x="895" y="24"/>
      <point x="936" y="76" type="curve" smooth="yes"/>
      <point x="972" y="121"/>
      <point x="989" y="179"/>
      <point x="989" y="260" type="curve" smooth="yes"/>
      <point x="989" y="341"/>
      <point x="972" y="399"/>
      <point x="936" y="444" type="curve" smooth="yes"/>
      <point x="895" y="496"/>
      <point x="829" y="530"/>
      <point x="734" y="530" type="curve" smooth="yes"/>
      <point x="714" y="530"/>
      <point x="695" y="529"/>
      <point x="675" y="526" type="curve"/>
      <point x="675" y="502" type="line"/>
      <point x="730" y="502" type="line" smooth="yes"/>
      <point x="887" y="502"/>
      <point x="969" y="412"/>
      <point x="969" y="268" type="curve" smooth="yes"/>
      <point x="969" y="252" type="line" smooth="yes"/>
      <point x="969" y="109"/>
      <point x="887" y="18"/>
      <point x="731" y="18" type="curve" smooth="yes"/>
      <point x="642" y="18"/>
      <point x="577" y="48"/>
      <point x="538" y="100" type="curve"/>
    </contour>
  </outline>
</glyph>
